/* XPM */
static char * oscbrowser_xpm[] = {
"32 32 6 1",
" 	c None",
".	c #000080",
"+	c #008080",
"@	c #808080",
"#	c #FFFFFF",
"$	c #C0C0C0",
"................................",
"................................",
"................................",
"................................",
"................................",
"................................",
"................................",
"................................",
"................................",
"................................",
"................................",
"................................",
"............+.+@@@@+.+..........",
"..+@@@@@@@@@@@@@@@@@@@@@@@@@@@@.",
".@#$@@@@@@@$##@....@$$$@@@@@@$$@",
"@#$........@#$$$@@@@$#@.........",
"@#$........@#$@@@@@@$#@.........",
".@#$@@++@@@$#$@....@$#$@@@+@@$$@",
"..+@@@@@@@@@@@@@@@@@@@@@@@@@@@@.",
"................................",
"................................",
"................................",
"................................",
"................................",
"................................",
"................................",
"................................",
"................................",
"................................",
"................................",
"................................",
"................................"};
