<?xml version="1.0" encoding="utf-8"?>
<!-- Generator: Adobe Illustrator 13.0.2, SVG Export Plug-In . SVG Version: 6.00 Build 14948)  -->
<!DOCTYPE svg PUBLIC "-//W3C//DTD SVG 1.1//EN" "http://www.w3.org/Graphics/SVG/1.1/DTD/svg11.dtd" [
	<!ENTITY ns_extend "http://ns.adobe.com/Extensibility/1.0/">
	<!ENTITY ns_ai "http://ns.adobe.com/AdobeIllustrator/10.0/">
	<!ENTITY ns_graphs "http://ns.adobe.com/Graphs/1.0/">
	<!ENTITY ns_vars "http://ns.adobe.com/Variables/1.0/">
	<!ENTITY ns_imrep "http://ns.adobe.com/ImageReplacement/1.0/">
	<!ENTITY ns_sfw "http://ns.adobe.com/SaveForWeb/1.0/">
	<!ENTITY ns_custom "http://ns.adobe.com/GenericCustomNamespace/1.0/">
	<!ENTITY ns_adobe_xpath "http://ns.adobe.com/XPath/1.0/">
]>
<svg version="1.1" id="Layer_1" xmlns:x="&ns_extend;" xmlns:i="&ns_ai;" xmlns:graph="&ns_graphs;"
	 xmlns="http://www.w3.org/2000/svg" xmlns:xlink="http://www.w3.org/1999/xlink" x="0px" y="0px" width="19.027px"
	 height="222.142px" viewBox="0 0 19.027 222.142" enable-background="new 0 0 19.027 222.142" xml:space="preserve">
<switch>
	<g i:extraneous="self">
		<g id="active_copy_5_1_">
			<g>
				<path fill-rule="evenodd" clip-rule="evenodd" d="M9.021,0c-4.97,0-8.999,4.029-8.999,8.999v203.974
					c0,4.971,4.029,8.999,8.999,8.999c4.97,0,8.999-4.028,8.999-8.999V8.999C18.021,4.029,13.991,0,9.021,0z"/>
			</g>
		</g>
		<g>
			<g>
				<path fill-rule="evenodd" clip-rule="evenodd" fill="#D93D3D" d="M13.029,0.951v0.071h0.147
					C13.129,0.996,13.078,0.975,13.029,0.951z M1.106,217.258v-0.119H1.049C1.069,217.178,1.085,217.22,1.106,217.258z
					 M17.028,4.905v0.119h0.058C17.066,4.984,17.049,4.944,17.028,4.905z M15.029,2.312v0.709h0.706
					C15.513,2.772,15.277,2.536,15.029,2.312z M3.107,219.745v-0.605H2.479C2.679,219.351,2.888,219.553,3.107,219.745z
					 M2.106,218.73v-0.59H1.661C1.802,218.342,1.949,218.541,2.106,218.73z M4.105,220.505v-0.365h-0.51
					C3.762,220.267,3.93,220.391,4.105,220.505z M16.028,9.024V8.023h1v1.001h0.992V8.999c0-1.044-0.187-2.042-0.514-2.975h-0.479
					V5.023h-1.001V4.022h-0.998V3.021h-1.001V2.022h-0.999V1.021h-1.001V0.526C11.087,0.191,10.078,0,9.021,0
					C8.884,0,8.751,0.015,8.615,0.021h0.411v1.001h1v0.999h1v1.001h1v1.001h0.999v1.001h1v0.999h1v1.001h1v1.001h-1V7.023h-1.001
					V6.024h-0.999V5.023h-1.001V4.022h-0.998V3.021h-1.001V2.022H9.026V1.021H8.025V0.058C6.943,0.177,5.923,0.493,4.991,0.961
					v0.042h1.001v1.001H4.991V1.003H4.905C4.208,1.363,3.566,1.812,2.99,2.334v0.672h1v0.999h1v1.001h1v1.001h0.999v1.001h1v0.999h1
					v1.001h1v1.001h-1V9.008H7.988V8.009H6.989V7.008H5.988V6.007H4.99V5.006H3.989V4.007H2.99V3.006H2.322
					C1.811,3.577,1.37,4.211,1.017,4.899v0.124h1v0.999h0.999v1.001h1.001v1.001H3.017V7.023h-1V6.024h-1V5.023h-0.06
					c-0.456,0.923-0.765,1.931-0.88,3h0.94v1.001h1v0.999h1v1.001h1v1.001h0.999v1.001h1v0.999h1v1.001h1v1.001h-1v-1.001H6.016
					v-0.999H5.017v-1.001H4.016v-1.001H3.018v-1.001H2.017v-0.999H1.018V9.024H0.022v2.983h0.991v1.001h1.001v1.001h0.998v1.001
					h1.001v0.999h0.999v1.001h1.001v1.001H5.013v-1.001h-1v-0.999h-1v-1.001h-1V14.01H1.014v-1.001H0.022v3.001H1.01v1.001h1.001
					v1.001H1.01v-1.001H0.022v11.006h0.982v1.001h1v1.001h0.999v1.001h1v0.999h1v1.001h1v1.001h-1V33.02H4.003v-0.999H3.004V31.02
					H2.003v-1.001H1.005v-1.001H0.022v3.001h0.979v1.001h1v1.001h-1V33.02H0.022v15.009h1v1.001h1.001v1.001H1.022V49.03h-1v11.006
					h0.994v1.001h1v1.001h0.999v1.001h1v0.999h1v1.001h1v1.001h-1v-1.001H4.015V64.04H3.016v-1.001H2.015v-1.001H1.016v-1.001H0.022
					v3.001h0.99v1.001h1v1.001h-1v-1.001h-0.99v147.935c0,1.115,0.212,2.179,0.583,3.165h0.5v1.001h1.001v0.999h1v1.001h1v1.001
					h0.999v0.927c0.052,0.024,0.103,0.05,0.155,0.074h0.845v0.339c0.915,0.313,1.894,0.492,2.915,0.492
					c0.03,0,0.058-0.004,0.088-0.005v-0.826H8.108v-1.001H7.11v-1.001H6.109v-0.999h-1v-1.001h-1v-1.001h1v1.001H6.11v0.999h1v1.001
					h1v1.001h0.999v1.001h1v0.759c0.958-0.115,1.867-0.384,2.709-0.776h-0.736v-0.999h-1v-1.001h-1v-1.001h1v1.001h1.001v0.999h1
					v0.873c0.731-0.371,1.402-0.839,2.002-1.387v-0.485h-1v-1.001h1v1.001h0.493c0.557-0.593,1.035-1.258,1.416-1.984h-0.906v-1.001
					h1v0.806c0.428-0.866,0.72-1.81,0.849-2.806h-0.848v-1.001h-1v-1.001H15.09v-1.001h-1v-0.999h-1v-1.001h-1v-1.001h1v1.001h1.001
					v0.999h0.999v1.001h1.001v1.001h0.998v1.001h0.923c0.002-0.056,0.009-0.108,0.009-0.164v-2.855h-0.959v-1.001h-1.001v-0.999
					h-0.999v-1.001h-1.001v-1.001h-0.998v-1.001h-1.001v-0.999h-0.999v-1.001h-1.001v-1.001h1.001v1.001h1v0.999h1v1.001h1v1.001
					h0.999v1.001h1v0.999h1v1.001h0.959v-3.001h-0.955v-1.001h-1.001v-0.999h-0.999v-1.001h-1.001v-1.001h1.001v1.001h1v0.999h1
					v1.001h0.955v-2.983h-0.922v-1.001h-1.001v-1.001h1.001v1.001h0.922v-3h-0.923v-1.001h-1v-1.001h-0.999v-1.001h-1v-0.999h-1
					v-1.001h-1v-1.001h1v1.001H14.1v0.999h0.999v1.001H16.1v1.001h0.998v1.001h0.923v-3.02h-0.95v-1.001h-1.001v-0.999H15.07v-1.001
					h-1.001v-1.001h-0.998v-1.001H12.07v-0.999h-0.999v-1.001H10.07v-1.001h1.001v1.001h1v0.999h1v1.001h1v1.001h0.999v1.001h1
					v0.999h1v1.001h0.95v-3.001h-0.946v-1.001h-1.001v-0.999h-0.999v-1.001h-1.001v-1.001h1.001v1.001h1v0.999h1v1.001h0.946v-2.983
					h-0.944v-1.001h-1.001v-1.001h1.001v1.001h0.944v-3.001h-0.943v-1.001h-1.001v-1.001h-0.998v-1.001h-1.001v-0.999h-0.999v-1.001
					h-1.001v-1.001h1.001v1.001h1v0.999h1v1.001h1v1.001h0.999v1.001h0.943v-3.02h-0.972V177.1h-1v-0.999h-1V175.1h-1v-1.001H13.05
					v-1.001h-1v-0.999h-1v-1.001h-1v-1.001h1v1.001h1.001v0.999h0.999v1.001h1.001v1.001h0.998v1.001h1.001v0.999h0.999v1.001h0.972
					v-3.001h-0.968v-1.001h-1v-0.999h-1v-1.001h-1v-1.001h1v1.001h1.001v0.999h0.999v1.001h0.968v-2.983h-0.935v-1.001h-1v-1.001h1
					v1.001h0.935v-3.003h-0.933v-1.001h-1v-1.001h-0.999v-1.001h-1v-0.999h-1v-1.001h-1v-1.001h1v1.001h1.001v0.999h0.999v1.001
					h1.001v1.001h0.998v1.001h0.933v-3.02h-0.96v-1.001H16.06v-0.999h-0.999v-1.001H14.06v-1.001h-0.998v-1.001h-1.001v-0.999
					h-0.999v-1.001h-1.001v-1.001h1.001v1.001h1v0.999h1v1.001h1v1.001h0.999v1.001h1v0.999h1v1.001h0.96v-3.001h-0.956v-1.001
					h-1.001v-0.999h-0.999v-1.001h-1.001v-1.001h1.001v1.001h1v0.999h1v1.001h0.956v-2.983h-0.957v-1.001h-1.001v-1.001h1.001v1.001
					h0.957v-3.001h-0.956v-1.001h-1.001V148.1h-0.999v-1.001h-1V146.1h-1v-1.001h-1v-1.001h1v1.001h1.001v0.999h0.999v1.001h1.001
					v1.001h0.999v1.001h0.956v-3.02h-0.984v-1.001h-1.001v-0.999h-0.999v-1.001h-1.001v-1.001h-0.998v-1.001h-1v-0.999h-1v-1.001h-1
					v-1.001h1v1.001h1v0.999h1v1.001h1v1.001h0.999v1.001h1.001v0.999h0.999v1.001h0.984v-3.001h-0.98v-1.001h-1v-0.999h-1v-1.001
					h-1v-1.001h1v1.001h1v0.999h1v1.001h0.98v-2.983h-0.947v-1.001h-1v-1.001h1v1.001h0.947v-3h-0.948v-1.001h-1v-1.001h-0.998
					v-1.001h-1.001v-0.999h-0.999v-1.001h-1.001v-1.001h1.001v1.001h1v0.999h1v1.001h1v1.001h0.998v1.001h0.948v-3.02h-0.976v-1.001
					h-1v-0.999h-1v-1.001h-1v-1.001h-0.999v-1.001h-1.001v-0.999h-0.999v-1.001h-1.001v-1.001H9.044v-1.001H8.043v-0.999H7.044
					v-1.001H6.043v-1.001H5.045v-1.001h-1v-0.999h-1v-1.001h-1v-1.001h1v1.001h1v0.999h1v1.001h1v1.001h0.999v1.001h1.001v0.999
					h0.999v1.001h1.001v1.001h1.001v1.001h1.001v0.999h0.999v1.001h1.001v1.001h0.998v1.001h1v0.999h1v1.001h0.976v-3.001h-0.972
					v-1.001h-1.001v-0.999h-0.999v-1.001h-1.001v-1.001h-1.001v-1.001h-1.001v-0.999h-0.999v-1.001h-1.001v-1.001H9.048v-1.001h-1
					v-0.999h-1v-1.001h-1v-1.001h1v1.001h1v0.999h1v1.001h1v1.001h0.999v1.001h1.001v0.999h0.999v1.001h1.001v1.001h1.001v1.001
					h1.001v0.999h0.999v1.001h0.972v-2.983h-0.969v-1.001h-1.001v-1.001H15.05v-1.001h-1.001v-0.999H13.05v-1.001h-1.001v-1.001
					h-0.998v-1.001h-1v-0.999h-1v-1.001h-1v-1.001h1v1.001h1v0.999h1v1.001h1v1.001h0.999v1.001h1.001v0.999h0.999v1.001h1.001
					v1.001h1.001v1.001h0.969v-3.001h-0.968v-1.001h-1.001v-1.001h-0.998v-1.001h-1v-0.999h-1v-1.001h-1v-1.001h1v1.001h1v0.999h1
					v1.001h1v1.001h0.999v1.001h0.968v-3.02h-0.996v-1.001h-1v-0.999h-1v-1.001h-1v-1.001h-0.998v-1.001h-1.001v-0.999h-0.999
					v-1.001h-1.001v-1.001h-1v-1.001h-1v-0.999h-1v-1.001h-1v-1.001H5.026v-1.001h-1v-0.999h-1v-1.001h-1v-1.001h1v1.001h1.001
					v0.999h0.999v1.001h1.001v1.001h0.998v1.001h1.001v0.999h0.999v1.001h1.001v1.001h1v1.001h1v0.999h1v1.001h1v1.001h0.998v1.001
					h1.001v0.999h0.999v1.001h0.996v-3.001h-0.991v-1.001h-1.001v-0.999h-0.999v-1.001h-1.001v-1.001h-1v-1.001h-1v-0.999h-1v-1.001
					h-1v-1.001H9.029v-1.001h-1v-0.999h-1v-1.001h-1v-1.001h1v1.001H8.03v0.999h0.999v1.001h1.001v1.001h0.998v1.001h1.001v0.999
					h0.999v1.001h1.001v1.001h1v1.001h1v0.999h1v1.001h0.991v-2.983h-0.958v-1.001h-1.001v-1.001h-1v-1.001h-1v-0.999h-1v-1.001h-1
					v-1.001h-0.999v-1.001h-1v-0.999h-1v-1.001h-1v-1.001h1v1.001h1.001v0.999h0.999v1.001h1.001v1.001h0.998v1.001h1.001v0.999
					h0.999v1.001h1.001v1.001h1v1.001h0.958v-3.001h-0.956v-1.001h-1v-1.001h-0.999v-1.001h-1v-0.999h-1v-1.001h-1v-1.001h1v1.001
					h1.001v0.999h0.999v1.001h1.001v1.001h0.998v1.001h0.956v-3.02h-0.983v-1.001h-1.001v-0.999h-0.999v-1.001h-1.001v-1.001h-0.998
					v-1.001h-1.001v-0.999h-1v-1.001h-1v-1.001h1v1.001h1.001v0.999h1v1.001h1v1.001h0.999v1.001h1v0.999h1v1.001h0.983v-3.001
					h-0.979v-1.001H16.04v-0.999h-1v-1.001h-1v-1.001h1v1.001h1.001v0.999h1v1.001h0.979V90.07h-0.979v-1.001h-1v-1.001h1v1.001
					h0.979v-3.001h-0.978v-1.001h-1v-1.001h-0.999v-1.001h-1v-0.999h-1v-1.001h-1v-1.001h1v1.001h1.001v0.999h0.999v1.001h1.001
					v1.001h0.998v1.001h0.978v-2.018h-0.004v-1.001h0.004v-3.002h-0.003v-1.001H17.02v-1.001h-1.001v-0.999H15.02v-1.001h-1.001
					v-1.001h1.001v1.001h1v0.999h1v1.001h1v1.001h0.001v-3.984h-0.968V73.06h-1.001v-1.001h1.001v1.001h0.968v-3h-0.969v-1.001h-1
					v-1.001h-0.999v-1.001h-1v-0.999h-1v-1.001h-1v-1.001h1v1.001h1.001v0.999h0.999v1.001h1.001v1.001h0.998v1.001h0.969v-3.02
					h-0.996v-1.001h-1.001V64.04h-0.999v-1.001h-1.001v-1.001h-0.998v-1.001h-1.001v-0.999h-0.999v-1.001h-1.001v-1.001h1.001v1.001
					h1v0.999h1v1.001h1v1.001h0.999v1.001h1v0.999h1v1.001h0.996v-3.001h-0.992v-1.001h-1.001v-0.999h-0.999v-1.001h-1.001v-1.001
					h1.001v1.001h1v0.999h1v1.001h0.992v-2.983h-0.992v-1.001h-1.001v-1.001h1.001v1.001h0.992v-3.001h-0.991V53.05h-1.001v-1.001
					H15.03v-1.001h-1.001v-0.999H13.03v-1.001h-1.001v-1.001h1.001v1.001h1v0.999h1v1.001h1v1.001h0.999v1.001h0.991v-2.018h-0.019
					v-1.001h0.019V47.03h-0.017v-1.001h-0.999v-1.001h-1v-0.999h-1v-1.001h-1v-1.001h1v1.001h1.001v0.999h0.999v1.001h1.001v1.001
					h0.015v-3.984h-0.982v-1.001h-1v-1.001h1v1.001h0.982v-3.002h-0.98V37.04h-1v-1.001h-0.999v-1.001h-1v-0.999h-1v-1.001h-1
					v-1.001h1v1.001h1.001v0.999h0.999v1.001h1.001v1.001h0.998v1.001h0.98v-2.018h-0.007v-1.001h0.007V31.02h-0.006v-1.001h-0.998
					v-1.001h-1.001v-0.999h-1v-1.001h-1v-1.001h1v1.001h1.001v0.999h1v1.001h1v1.001h0.004v-2.985h-0.002v-0.999h-1v-1.001h-1
					v-1.001h1v1.001h1.001v0.999h0.001v-3.001H18.02v-0.999h-1v-1.001h-1V20.03h-0.999v-1.001h-1V18.03h-1v-1.001h-1v-1.001h1v1.001
					h1.001v0.999h0.999v1.001h1.001v1.001h0.998v1.001h1.001v-2.018h-0.028v-1.001h0.028v-3.002h-0.026V14.01h-0.999v-1.001h-1
					V12.01h-1v-1.001h-1v-1.001h1v1.001h1.001v0.999h0.999v1.001h1.001v1.001h0.024v-3.984h-0.992V9.024H16.028z M8.993,6.007V5.006
					H7.992V4.007H6.993V3.006H5.992V2.005h1.001v1.001h1v0.999h1v1.001h1v1.001h0.999v1.001h1v0.999h1v1.001h1v1.001h-1V9.008
					h-1.001V8.009h-0.999V7.008H9.991V6.007H8.993z M7.021,12.025v-1.001H6.02v-0.999H5.021V9.024H4.02V8.023h1.001v1.001h1v0.999h1
					v1.001h1v1.001H9.02v1.001h1v0.999h1v1.001h1v1.001h-1v-1.001h-1.001v-0.999H9.02v-1.001H8.019v-1.001H7.021z M6.014,18.013
					h1.001v1.001h1.001v0.999h0.999v1.001h1.001v1.001h0.998v1.001h1.001v0.999h0.999v1.001h1.001v1.001h-1.001v-1.001h-1v-0.999h-1
					v-1.001h-1v-1.001H9.015v-1.001h-1v-0.999h-1v-1.001H6.014V18.013z M2.011,18.013h1.001v1.001h1v0.999h1v1.001h1v1.001h0.999
					v1.001h1.001v0.999h0.999v1.001h1.001v1.001H9.011v-1.001h-1v-0.999h-1v-1.001H6.01v-1.001H5.012v-1.001H4.011v-0.999H3.012
					v-1.001H2.011V18.013z M11.04,30.034v1.001h1v1.001h-1v-1.001h-1.001v-0.999H9.04v-1.001H8.039v-1.001H7.041v-1.001H6.04v-0.999
					h-1v-1.001h-1v-1.001h1v1.001h1.001v0.999h1v1.001h1v1.001H9.04v1.001h1v0.999H11.04z M0.038,20.03h1v1.001h1.001v0.999h0.999
					v1.001h1.001v1.001H3.038v-1.001h-1v-0.999h-1v-1.001h-1V20.03z M5.037,30.036v-1.001H4.036v-1.001H3.038v-1.001H2.037v-0.999
					h-1v-1.001h-1v-1.001h1v1.001h1.001v0.999h1v1.001h1v1.001h0.999v1.001h1v0.999h1v1.001h1v1.001h-1v-1.001H6.036v-0.999H5.037z
					 M2.002,34.021h1v1.001h1.001v0.999h0.999v1.001h1.001v1.001h0.998v1.001h1.001v0.999h0.999v1.001h1.001v1.001H9.001v-1.001h-1
					v-0.999h-1v-1.001h-1v-1.001H5.002v-1.001h-1v-0.999h-1v-1.001h-1V34.021z M0.028,36.039h1v1.001h1.001v0.999h0.999v1.001h1.001
					v1.001H3.028V39.04h-1v-0.999h-1V37.04h-1V36.039z M0.026,40.042h1v1.001h1.001v0.999h0.999v1.001h1.001v1.001h0.998v1.001
					h1.001v0.999h0.999v1.001h1.001v1.001H7.025v-1.001h-1v-0.999h-1v-1.001h-1v-1.001H3.026v-1.001h-1v-0.999h-1v-1.001h-1V40.042z
					 M1.026,46.029v-1.001h-1v-1.001h1v1.001h1.001v1.001h0.998v1.001h1.001v0.999h0.999v1.001h1.001v1.001H5.025V49.03h-1v-0.999
					h-1V47.03h-1v-1.001H1.026z M2.023,50.032h1.001v1.001h1v0.999h1v1.001h1v1.001h0.999v1.001h1v0.999h1v1.001h1v1.001h-1v-1.001
					H8.022v-0.999H7.023v-1.001H6.022v-1.001H5.024v-1.001H4.023v-0.999H3.024v-1.001H2.023V50.032z M0.049,52.049H1.05v1.001h1
					v0.999h1v1.001h1v1.001h-1V55.05H2.05v-0.999h-1V53.05H0.049V52.049z M5.049,62.055v-1.001H4.048v-1.001H3.05v-1.001H2.049
					v-0.999h-1v-1.001H0.048v-1.001h1.001v1.001h1v0.999h1v1.001h1v1.001h0.999v1.001h1v0.999h1v1.001h1v1.001h-1v-1.001H6.048
					v-0.999H5.049z M10.018,69.042v1.001h0.998v1.001h1.001v0.999h0.999v1.001h1.001v1.001h-1.001v-1.001h-1v-0.999h-1v-1.001h-1
					v-1.001H9.017v-1.001h-1v-0.999h-1v-1.001h-1v-1.001h1v1.001h1.001v0.999h0.999v1.001H10.018z M2.014,66.041h1v1.001h1.001
					v0.999h0.999v1.001h1.001v1.001h0.998v1.001h1.001v0.999h0.999v1.001h1.001v1.001H9.013v-1.001h-1v-0.999h-1v-1.001h-1v-1.001
					H5.014v-1.001h-1v-0.999h-1v-1.001h-1V66.041z M11.043,78.061v1.001h1v1.001h-1v-1.001h-1.001v-0.999H9.043v-1.001H8.042v-1.001
					H7.044V75.06H6.043v-0.999H5.044V73.06H4.043v-1.001h1.001v1.001h1v0.999h1v1.001h1v1.001h0.999v1.001h1v0.999H11.043z
					 M0.04,68.058h1v1.001h1.001v0.999H3.04v1.001h1.001v1.001H3.04v-1.001h-1V70.06h-1v-1.001h-1V68.058z M0.04,72.059h1.001v1.001
					h1v0.999h1v1.001h1v1.001H5.04v1.001h1v0.999h1v1.001h1v1.001h-1v-1.001H6.039v-0.999H5.04v-1.001H4.039v-1.001H3.041V75.06
					H2.04v-0.999h-1V73.06H0.04V72.059z M0.038,76.043h1.001v1.001h1v1.001h0.999v1.001h1v0.999h1v1.001h1v1.001h-1v-1.001H4.037
					v-0.999H3.038v-1.001H2.037v-1.001H1.039v-1.001H0.038V76.043z M8.036,87.051v0.999h0.999v1.001h1.001v1.001H9.035v-1.001h-1
					v-0.999h-1v-1.001h-1V86.05H5.036v-1.001h-1V84.05h-1v-1.001h-1v-1.001h1v1.001h1.001v0.999h0.999v1.001h1.001v1.001h0.998
					v1.001H8.036z M2.062,87.067v-0.999h-1v-1.001h-1v-1.001h1v1.001h1.001v0.999h0.999v1.001h1.001v1.001H3.062v-1.001H2.062z
					 M0.034,80.045h1.001v1.001h1v1.001h-1v-1.001H0.034V80.045z M0.024,96.054h1.001v1.001h1v1.001h-1v-1.001H0.024V96.054z
					 M2.044,113.064v1.001H1.043v-1.001h-1v-1.001h1v1.001H2.044z M2.071,121.086v0.999H3.07v1.001h1.001v1.001h0.998v1.001h1v0.999
					h1v1.001h1v1.001h-1v-1.001h-1v-0.999h-1v-1.001h-1v-1.001H3.07v-1.001H2.069v-0.999H1.07v-1.001H0.069v-1.001H1.07v1.001H2.071
					z M8.034,135.078v0.999h0.999v1.001h1.001v1.001H9.033v-1.001h-1v-0.999h-1v-1.001h-1v-1.001H5.035v-1.001H4.034v-0.999H3.035
					v-1.001H2.034v-1.001h1.001v1.001h1v0.999h1v1.001h1v1.001h0.998v1.001H8.034z M6.062,141.096v0.999h0.999v1.001h1.001v1.001
					H7.061v-1.001H6.06v-0.999H5.061v-1.001H4.06v-1.001H3.062v-1.001h-1v-0.999h-1v-1.001h-1v-1.001h1v1.001h1v0.999h1v1.001h1
					v1.001h0.999v1.001H6.062z M7.06,150.084v1.001h1v0.999h1v1.001h1v1.001h-1v-1.001H8.059v-0.999H7.06v-1.001H6.059v-1.001H5.06
					v-1.001h-1v-0.999h-1v-1.001h-1v-1.001h1v1.001h1.001v0.999H5.06v1.001h1.001v1.001H7.06z M6.085,157.105v0.999h1v1.001h1v1.001
					h-1v-1.001H6.084v-0.999H5.085v-1.001H4.084v-1.001H3.086v-1.001H2.085v-0.999h-1v-1.001H0.084v-1.001h1.001v1.001h1v0.999h1
					v1.001h1v1.001h0.999v1.001H6.085z M4.051,161.089v-0.999H3.052v-1.001H2.051v-1.001H1.052v-1.001H0.051v-1.001h1.001v1.001h1
					v1.001h0.999v1.001h1v0.999h1v1.001h1v1.001h-1v-1.001H4.051z M2.06,145.081v1.001H1.058v-1.001H0.057v-1.001h1.001v1.001H2.06z
					 M4.087,152.102h-1v-1.001H2.086v-0.999h-1v-1.001H0.085V148.1h1.001v1.001h1v0.999h1v1.001h1V152.102z M5.062,146.082v-1.001
					H4.061v-0.999H3.062v-1.001H2.061v-1.001H1.062v-1.001h-1v-1.001h1v1.001h1v1.001h0.999v1.001h1.001v0.999h0.999v1.001h1.001
					v1.001H5.062z M4.062,136.094H3.061v-1.001h-1v-0.999h-1v-1.001h-1v-1.001h1v1.001h1.001v0.999h0.999v1.001h1.001V136.094z
					 M6.036,130.074h-1v-1.001h-1v-0.999h-1v-1.001h-1v-1.001H1.037v-1.001H0.036v-1.001h1.001v1.001h1.001v1.001h0.998v1.001h1
					v0.999h1v1.001h1V130.074z M0.033,128.072h1v1.001h1v1.001h-1v-1.001h-1V128.072z M0.047,160.088h1.001v1.001h1v1.001h-1v-1.001
					H0.047V160.088z M3.076,166.109v1.001h1.001v1.001H3.076v-1.001h-1v-0.999h-1v-1.001h-1v-1.001h1v1.001h1.001v0.999H3.076z
					 M5.073,172.115v1.001h1.001v0.999h0.999v1.001h1.001v1.001H7.073v-1.001h-1v-0.999h-1v-1.001h-1v-1.001H3.074v-1.001h-1v-0.999
					h-1v-1.001h-1v-1.001h1v1.001h1.001v0.999h0.999v1.001h1.001v1.001H5.073z M7.069,182.104v1.001h1v0.999h1v1.001h1v1.001h-1
					v-1.001H8.068v-0.999H7.069v-1.001H6.068v-1.001H5.07v-1.001H4.069v-0.999H3.07v-1.001H2.069v-1.001H3.07v1.001h1v0.999h1v1.001
					h1v1.001H7.069z M6.095,189.125v0.999h1v1.001h1v1.001h-1v-1.001H6.094v-0.999H5.095v-1.001H4.094v-1.001H3.096v-1.001H2.095
					v-0.999H1.096v-1.001H0.095v-1.001h1.001v1.001h1v0.999h1v1.001h1v1.001h0.999v1.001H6.095z M8.06,199.114v0.999h0.999v1.001
					h1.001v1.001H9.059v-1.001h-1v-0.999h-1v-1.001h-1v-1.001H5.06v-1.001h-1v-0.999h-1v-1.001h-1v-1.001h1v1.001h1.001v0.999H5.06
					v1.001h1.001v1.001h0.998v1.001H8.06z M6.086,205.132v0.999h1v1.001h1v1.001h-1v-1.001H6.085v-0.999H5.086v-1.001H4.085v-1.001
					H3.087v-1.001H2.086v-0.999H1.087v-1.001H0.086v-1.001h1.001v1.001h1v0.999h1v1.001h1v1.001h0.999v1.001H6.086z M4.082,209.117
					v-0.999H3.083v-1.001H2.082v-1.001H1.084v-1.001H0.083v-1.001h1.001v1.001h1v1.001h0.999v1.001h1v0.999h1v1.001h1v1.001h-1
					v-1.001H4.082z M4.087,200.13H3.086v-1.001h-1v-0.999h-1v-1.001h-1v-1.001h1v1.001h1.001v0.999h0.999v1.001h1.001V200.13z
					 M6.062,194.11h-1v-1.001H4.061v-0.999H3.062v-1.001H2.061v-1.001H1.062v-1.001H0.062v-1.001h1.001v1.001h1v1.001h0.999v1.001h1
					v0.999h1v1.001h1V194.11z M2.069,177.1v1.001H1.068V177.1h-1v-1.001h1v1.001H2.069z M4.097,184.122h-1v-1.001H2.096v-0.999
					H1.097v-1.001H0.096v-1.001h1.001v1.001h1v0.999h1v1.001h1V184.122z M5.071,178.101V177.1h-1v-0.999h-1V175.1h-1v-1.001H1.072
					v-1.001h-1v-1.001h1v1.001h1.001v1.001h0.998v1.001h1.001v0.999h0.999v1.001h1.001v1.001H5.071z M0.058,192.108h1.001v1.001h1
					v1.001h-1v-1.001H0.058V192.108z M0.079,208.116H1.08v1.001h1v1.001h-1v-1.001H0.079V208.116z M4.108,216.138H3.107v-1.001h-1
					v-0.999h-1v-1.001h-1v-1.001h1v1.001h1.001v0.999h0.999v1.001h1.001V216.138z M10.081,218.123H9.08v-1.001h-1v-0.999h-1v-1.001
					h-1v-1.001H5.081v-1.001h-1v-0.999h-1v-1.001h-1v-1.001h1v1.001h1.001v0.999h0.999v1.001h1.001v1.001H7.08v1.001h1.001v0.999
					H9.08v1.001h1.001V218.123z M14.084,218.123h-1.001v-1.001h-1v-0.999h-1v-1.001h-1v-1.001H9.084v-1.001h-1v-0.999h-1v-1.001h-1
					v-1.001h1v1.001h1.001v0.999h0.999v1.001h1.001v1.001h0.998v1.001h1.001v0.999h0.999v1.001h1.001V218.123z M13.086,212.136
					v1.001h1.001v0.999h0.999v1.001h1.001v1.001h-1.001v-1.001h-1v-0.999h-1v-1.001h-1v-1.001h-0.999v-1.001h-1v-0.999h-1v-1.001h-1
					v-1.001h1v1.001h1.001v0.999h0.999v1.001h1.001v1.001H13.086z M10.089,205.132v0.999h1v1.001h1v1.001h-1v-1.001h-1.001v-0.999
					H9.089v-1.001H8.088v-1.001H7.09v-1.001H6.089v-0.999H5.09v-1.001H4.089v-1.001H5.09v1.001h1v0.999h1v1.001h1v1.001h0.999v1.001
					H10.089z M14.062,202.115h-1.001v-1.001h-1v-0.999h-1v-1.001h-1v-1.001H9.062v-1.001h-1v-0.999h-1v-1.001h-1v-1.001h1v1.001
					h1.001v0.999h0.999v1.001h1.001v1.001h0.998v1.001h1.001v0.999h0.999v1.001h1.001V202.115z M13.095,196.128v1.001h1.001v0.999
					h0.999v1.001h1.001v1.001h-1.001v-1.001h-1v-0.999h-1v-1.001h-1v-1.001h-0.999v-1.001h-1v-0.999h-1v-1.001h-1v-1.001h1v1.001
					h1.001v0.999h0.999v1.001h1.001v1.001H13.095z M10.098,189.125v0.999h1v1.001h1v1.001h-1v-1.001h-1.001v-0.999H9.098v-1.001
					H8.097v-1.001H7.099v-1.001H6.098v-0.999H5.099v-1.001H4.098v-1.001h1.001v1.001h1v0.999h1v1.001h1v1.001h0.999v1.001H10.098z
					 M14.072,186.106h-1v-1.001h-1.001v-0.999h-0.999v-1.001h-1.001v-1.001H9.073v-1.001H8.072v-0.999H7.073v-1.001H6.072v-1.001
					h1.001v1.001h1v0.999h1v1.001h1v1.001h0.999v1.001h1v0.999h1v1.001h1V186.106z M13.074,180.12v1.001h1v0.999h1v1.001h1v1.001h-1
					v-1.001h-1.001v-0.999h-0.999v-1.001h-1.001v-1.001h-0.998v-1.001h-1.001v-0.999H9.075v-1.001H8.074v-1.001h1.001v1.001h1v0.999
					h1v1.001h1v1.001H13.074z M10.077,173.116v0.999h0.999v1.001h1.001v1.001h-1.001v-1.001h-1v-0.999h-1v-1.001h-1v-1.001H7.077
					v-1.001h-1v-0.999h-1v-1.001h-1v-1.001h1v1.001h1.001v0.999h0.999v1.001h1.001v1.001h0.998v1.001H10.077z M10.05,170.095H9.049
					v-1.001h-1v-0.999h-1v-1.001h-1v-1.001H5.05v-1.001h-1v-0.999h-1v-1.001h-1v-1.001h1v1.001h1.001v0.999H5.05v1.001h1.001v1.001
					h0.998v1.001H8.05v0.999h0.999v1.001h1.001V170.095z M14.053,170.095h-1.001v-1.001h-1v-0.999h-1v-1.001h-1v-1.001H9.053v-1.001
					h-1v-0.999h-1v-1.001h-1v-1.001h1v1.001h1.001v0.999h0.999v1.001h1.001v1.001h0.998v1.001h1.001v0.999h0.999v1.001h1.001
					V170.095z M13.085,164.109v1.001h1.001v0.999h0.999v1.001h1.001v1.001h-1.001v-1.001h-1v-0.999h-1v-1.001h-1v-1.001h-0.999
					v-1.001h-1v-0.999h-1v-1.001h-1v-1.001h1v1.001h1.001v0.999h0.999v1.001h1.001v1.001H13.085z M10.088,157.105v0.999h1v1.001h1
					v1.001h-1v-1.001h-1.001v-0.999H9.088v-1.001H8.087v-1.001H7.089v-1.001H6.088v-0.999H5.089v-1.001H4.088v-1.001h1.001v1.001h1
					v0.999h1v1.001h1v1.001h0.999v1.001H10.088z M14.062,154.086h-1v-1.001h-1.001v-0.999h-0.999v-1.001h-1.001v-1.001H9.062v-1.001
					h-1v-0.999h-1v-1.001h-1v-1.001h1v1.001h1.001v0.999h0.999v1.001h1.001v1.001h0.999v1.001h1v0.999h1v1.001h1V154.086z
					 M13.062,148.1v1.001h1v0.999h1v1.001h1v1.001h-1v-1.001h-1.001v-0.999h-0.999v-1.001h-1.001V148.1h-0.999v-1.001h-1V146.1h-1
					v-1.001h-1v-1.001h1v1.001h1.001v0.999h0.999v1.001h1.001v1.001H13.062z M10.064,141.096v0.999h0.999v1.001h1.001v1.001h-1.001
					v-1.001h-1.001v-0.999H9.063v-1.001H8.062v-1.001H7.064v-1.001h-1v-0.999h-1v-1.001h-1v-1.001h1v1.001h1v0.999h1v1.001h1v1.001
					h0.999v1.001H10.064z M14.037,138.079h-1.001v-1.001h-1v-0.999h-1v-1.001h-1v-1.001H9.038v-1.001H8.037v-0.999H7.038v-1.001
					H6.037v-1.001h1.001v1.001h1v0.999h1v1.001h1v1.001h0.998v1.001h1.001v0.999h0.999v1.001h1.001V138.079z M13.069,132.092v1.001
					h1.001v0.999h0.999v1.001h1.001v1.001h-1.001v-1.001h-1v-0.999h-1v-1.001h-1v-1.001h-0.998v-1.001H10.07v-0.999H9.071v-1.001
					H8.07v-1.001h1.001v1.001h1v0.999h1v1.001h1v1.001H13.069z M2.072,117.084v0.999h0.999v1.001h1.001v1.001h1.001v1.001h1.001
					v0.999h0.999v1.001h1.001v1.001h0.998v1.001h1v0.999h1v1.001h1v1.001h-1v-1.001h-1v-0.999h-1v-1.001h-1v-1.001H7.073v-1.001
					H6.072v-0.999H5.073v-1.001H4.072v-1.001H3.071v-1.001H2.07v-0.999H1.071v-1.001H0.07v-1.001h1.001v1.001H2.072z M6.047,114.065
					H5.046v-1.001h-1v-0.999h-1v-1.001h-1v-1.001H1.048v-1.001H0.047v-1.001h1.001v1.001h1v1.001h0.998v1.001h1.001v0.999h0.999
					v1.001h1.001V114.065z M8.05,112.081H7.049v-1.001h-1v-0.999h-1v-1.001h-1v-1.001H3.051v-1.001H2.05v-0.999H1.051v-1.001H0.05
					v-1.001h1.001v1.001h1v0.999h1v1.001h1v1.001h0.998v1.001H6.05v0.999h0.999v1.001H8.05V112.081z M2.054,101.076v0.999h0.999
					v1.001h1.001v1.001h1v1.001h1v0.999h1v1.001h1v1.001h0.998v1.001h1.001v0.999h0.999v1.001h1.001v1.001h-1.001v-1.001h-1v-0.999
					h-1v-1.001h-1v-1.001H7.054v-1.001H6.053v-0.999H5.054v-1.001H4.053v-1.001h-1v-1.001h-1v-0.999h-1v-1.001h-1v-1.001h1v1.001
					H2.054z M6.028,98.056h-1v-1.001H4.027v-0.999H3.028v-1.001H2.027v-1.001H1.029v-1.001H0.028v-1.001h1.001v1.001h1v1.001h0.999
					v1.001h1v0.999h1v1.001h1V98.056z M8.062,96.072h-1v-1.001H6.061v-0.999H5.062v-1.001H4.061V92.07H3.062v-1.001H2.062V90.07h-1
					v-1.001h-1v-1.001h1v1.001h1.001v0.999h1v1.001h1v1.001h0.999v1.001h1v0.999h1v1.001h1V96.072z M10.064,93.071v0.999h1v1.001h1
					v1.001h-1v-1.001h-1.001v-0.999H9.064v-1.001H8.063V92.07H7.065v-1.001H6.064V90.07h-1v-1.001h-1v-1.001h1v1.001h1.001v0.999h1
					v1.001h1v1.001h0.999v1.001H10.064z M14.039,90.052h-1.001v-1.001h-1v-0.999h-1v-1.001h-1V86.05H9.039v-1.001h-1V84.05h-1
					v-1.001h-1v-1.001h1v1.001H8.04v0.999h0.999v1.001h1.001v1.001h0.998v1.001h1.001v0.999h0.999v1.001h1.001V90.052z
					 M13.04,84.066v1.001h1.001v0.999h0.999v1.001h1.001v1.001H15.04v-1.001h-1v-0.999h-1v-1.001h-1v-1.001h-0.999v-1.001h-1v-0.999
					h-1v-1.001h-1v-1.001h1v1.001h1.001v0.999h0.999v1.001h1.001v1.001H13.04z M15.016,78.045v1.001h1v0.999h1v1.001h1v1.001h-1
					v-1.001h-1.001v-0.999h-0.999v-1.001h-1.001v-1.001h-0.998v-1.001h-1.001v-0.999h-0.999v-1.001h-1.001v-1.001h1.001v1.001h1
					v0.999h1v1.001h1v1.001H15.016z M13.049,68.058v1.001h1.001v0.999h0.999v1.001h1.001v1.001h-1.001v-1.001h-1V70.06h-1v-1.001h-1
					v-1.001H11.05v-1.001h-1v-0.999h-1v-1.001h-1v-1.001h1v1.001h1.001v0.999h0.999v1.001h1.001v1.001H13.049z M10.052,61.054v0.999
					h1v1.001h1v1.001h-1v-1.001h-1.001v-0.999H9.052v-1.001H8.051v-1.001H7.053v-1.001H6.052v-0.999H5.053v-1.001H4.052v-1.001
					h1.001v1.001h1v0.999h1v1.001h1v1.001h0.999v1.001H10.052z M14.026,58.036h-1v-1.001h-1.001v-0.999h-0.999v-1.001h-1.001v-1.001
					H9.027v-1.001H8.026v-0.999H7.027v-1.001H6.026v-1.001h1.001v1.001h1v0.999h1v1.001h1v1.001h0.999v1.001h1v0.999h1v1.001h1
					V58.036z M13.026,52.049v1.001h1v0.999h1v1.001h1v1.001h-1V55.05h-1.001v-0.999h-0.999V53.05h-1.001v-1.001h-0.998v-1.001
					h-1.001v-0.999H9.027v-1.001H8.026v-1.001h1.001v1.001h1v0.999h1v1.001h1v1.001H13.026z M12.029,48.046h-1.001v-1.001h-1v-0.999
					h-1v-1.001h-1v-1.001H7.029v-1.001h-1v-0.999h-1v-1.001h-1v-1.001h1v1.001H6.03v0.999h0.999v1.001H8.03v1.001h0.998v1.001h1.001
					v0.999h0.999v1.001h1.001V48.046z M15.001,46.029v1.001h1.001v0.999h0.999v1.001h1.001v1.001h-1.001V49.03h-1v-0.999h-1V47.03
					h-1v-1.001h-0.999v-1.001h-1v-0.999h-1v-1.001h-1v-1.001h1v1.001h1.001v0.999h0.999v1.001h1.001v1.001H15.001z M14.005,42.025
					h-1.001v-1.001h-1v-0.999h-1v-1.001h-1v-1.001H9.005v-1.001h-1v-0.999h-1v-1.001h-1v-1.001h1v1.001h1.001v0.999h0.999v1.001
					h1.001v1.001h0.998v1.001h1.001v0.999h0.999v1.001h1.001V42.025z M13.037,36.039v1.001h1.001v0.999h0.999v1.001h1.001v1.001
					h-1.001V39.04h-1v-0.999h-1V37.04h-1v-1.001h-0.999v-1.001h-1v-0.999h-1v-1.001h-1v-1.001h1v1.001h1.001v0.999h0.999v1.001
					h1.001v1.001H13.037z M15.013,30.019v1.001h1v0.999h1v1.001h1v1.001h-1V33.02h-1.001v-0.999h-0.999V31.02h-1.001v-1.001h-0.998
					v-1.001h-1.001v-0.999h-1v-1.001h-1v-1.001h1v1.001h1.001v0.999h1v1.001h1v1.001H15.013z M13.017,20.03v1.001h1.001v0.999h0.999
					v1.001h1.001v1.001h-1.001v-1.001h-1v-0.999h-1v-1.001h-1V20.03h-0.999v-1.001h-1V18.03h-1v-1.001h-1v-1.001h1v1.001h1.001
					v0.999h0.999v1.001h1.001v1.001H13.017z M14.991,14.01v1.001h1.001v0.999h0.999v1.001h1.001v1.001h-1.001v-1.001h-1v-0.999h-1
					v-1.001h-1V14.01h-0.999v-1.001h-1V12.01h-1v-1.001h-1v-1.001h1v1.001h1.001v0.999h0.999v1.001h1.001v1.001H14.991z
					 M16.029,3.36v0.663h0.487C16.364,3.794,16.201,3.574,16.029,3.36z M14.029,1.522v0.498h0.67
					C14.484,1.845,14.261,1.678,14.029,1.522z"/>
			</g>
		</g>
	</g>
</switch>
</svg>
