<?xml version="1.0" encoding="utf-8"?>
<!-- Generator: Adobe Illustrator 13.0.2, SVG Export Plug-In . SVG Version: 6.00 Build 14948)  -->
<!DOCTYPE svg PUBLIC "-//W3C//DTD SVG 1.1//EN" "http://www.w3.org/Graphics/SVG/1.1/DTD/svg11.dtd" [
	<!ENTITY ns_extend "http://ns.adobe.com/Extensibility/1.0/">
	<!ENTITY ns_ai "http://ns.adobe.com/AdobeIllustrator/10.0/">
	<!ENTITY ns_graphs "http://ns.adobe.com/Graphs/1.0/">
	<!ENTITY ns_vars "http://ns.adobe.com/Variables/1.0/">
	<!ENTITY ns_imrep "http://ns.adobe.com/ImageReplacement/1.0/">
	<!ENTITY ns_sfw "http://ns.adobe.com/SaveForWeb/1.0/">
	<!ENTITY ns_custom "http://ns.adobe.com/GenericCustomNamespace/1.0/">
	<!ENTITY ns_adobe_xpath "http://ns.adobe.com/XPath/1.0/">
]>
<svg version="1.1" id="Layer_1" xmlns:x="&ns_extend;" xmlns:i="&ns_ai;" xmlns:graph="&ns_graphs;"
	 xmlns="http://www.w3.org/2000/svg" xmlns:xlink="http://www.w3.org/1999/xlink" x="0px" y="0px" width="222.143px"
	 height="19.027px" viewBox="0 0 222.143 19.027" enable-background="new 0 0 222.143 19.027" xml:space="preserve">
<switch>
	<g i:extraneous="self">
		<g id="active_copy_5_1_">
			<g>
				<path fill-rule="evenodd" clip-rule="evenodd" d="M213.144,0.022l-203.975,0c-4.971,0-8.999,4.029-8.999,8.999
					s4.028,8.999,8.999,8.999h203.975c4.97,0,8.999-4.029,8.999-8.999S218.113,0.022,213.144,0.022z"/>
			</g>
		</g>
		<g>
			<g>
				<path fill-rule="evenodd" clip-rule="evenodd" fill="#D93D3D" d="M2.397,3.107h0.605V2.479C2.791,2.678,2.589,2.888,2.397,3.107
					z M218.12,16.516c0.229-0.152,0.449-0.315,0.662-0.487h-0.662V16.516z M217.237,17.028h-0.118v0.057
					C217.158,17.065,217.198,17.048,217.237,17.028z M4.884,1.106h0.119V1.048C4.964,1.069,4.922,1.085,4.884,1.106z
					 M221.192,13.029h-0.071v0.147C221.146,13.128,221.168,13.078,221.192,13.029z M220.122,14.699
					c0.176-0.215,0.343-0.438,0.498-0.67h-0.498V14.699z M221.617,12.028c0.334-0.941,0.525-1.951,0.525-3.007
					c0-0.137-0.015-0.271-0.021-0.406v0.412h-1.001v1h-0.999v0.999h-1.001v1h-1.001v0.999h-1.001v1h-0.999v1h-1.001v1h-1.001v-1
					h1.001v-1.001h0.999v-0.999h1.001v-1.001h1.001v-0.998h1.001v-1.001h0.999V9.027h1.001V8.025h0.964
					c-0.12-1.082-0.436-2.102-0.903-3.033h-0.042v1h-1.001v-1h1.001V4.905c-0.359-0.698-0.81-1.339-1.331-1.915h-0.672v1h-0.999v1
					h-1.001v1h-1.001v1h-1.001v1h-0.999v1h-1.001v1h-1.001v-1h1.001V7.988h0.999V6.99h1.001V5.988h1.001V4.99h1.001v-1h0.999v-1
					h1.001V2.322c-0.571-0.511-1.205-0.951-1.894-1.305h-0.124v1h-0.999v1h-1.001v1h-1.001v-1h1.001v-1h0.999v-1h1.001v-0.06
					c-0.923-0.456-1.932-0.765-3-0.88v0.939h-1.001v1h-0.999v1h-1.001v1h-1.001v1h-1.001v1h-0.999v1h-1.001v1h-1.001v-1h1.001V6.015
					h0.999V5.017h1.001V4.015h1.001V3.017h1.001v-1h0.999v-1h1.001V0.022h-2.983v0.991h-1.001v1.002h-1.001v0.998h-1.001v1h-0.999v1
					h-1.001v1h-1.001v-1h1.001v-1h0.999v-1h1.001v-1h1.001v-1h1.001V0.022h-3.001v0.987h-1.001v1.002h-1.001V1.009h1.001V0.022
					h-11.006v0.983h-1.001v1h-1.001v0.998h-1.001v1h-0.999v1h-1.001v1h-1.001v-1h1.001v-1h0.999v-1h1.001v-1h1.001V1.005h1.001
					V0.022h-3.001v0.979h-1.001v1h-1.001v-1h1.001V0.022h-15.01v1h-1.001v1.001h-1.001V1.022h1.001v-1h-11.006v0.994h-1.001v1.001
					l-1.001-0.001v0.999h-1.001v1h-0.999v1h-1.001v1h-1.001v-1h1.001V4.014h0.999V3.015h1.001V2.014h1.001V1.016h1.001V0.022h-3.001
					v0.99h-1.001v1h-1.001v-1h1.001v-0.99l-147.935,0c-1.116,0-2.179,0.212-3.165,0.583v0.5H5.003v1.001H4.004v1H3.003v1H2.002
					v0.999H1.076C1.051,5.158,1.025,5.209,1.001,5.261v0.845H0.662C0.348,7.021,0.17,8,0.17,9.021c0,0.03,0.004,0.058,0.004,0.088
					h0.827V8.108h1.001V7.11h1.001V6.109h0.999v-1h1.001v-1h1.001v1H5.003V6.11H4.004v1H3.003v1H2.002v0.999H1.001v1H0.242
					c0.116,0.958,0.384,1.868,0.776,2.708v-0.736h0.999v-1h1.001v-1H4.02v1H3.019v1.001H2.02v1H1.146
					c0.371,0.731,0.839,1.402,1.387,2.002h0.485v-1H4.02v1H3.019v0.493c0.593,0.557,1.258,1.035,1.984,1.416v-0.906h1.001v1H5.198
					c0.867,0.427,1.81,0.72,2.806,0.849v-0.848h1.001v-1h1.001v-0.999h1.001v-1h0.999v-1h1.001v-1h1.001v1h-1.001v1.001h-0.999
					v0.999h-1.001v1.001h-1.001v0.998H9.005v0.923c0.055,0.001,0.109,0.008,0.164,0.008h2.855v-0.959h1.001V16.06h0.999v-0.999
					h1.001V14.06h1.001v-0.998h1.001v-1.001h0.999v-0.999h1.001v-1.001h1.001v1.001h-1.001v1h-0.999v1h-1.001v1h-1.001v0.999h-1.001
					v1h-0.999v1h-1.001v0.959h3.001v-0.955h1.001v-1.001h0.999v-0.999h1.001v-1.001h1.001v1.001h-1.001v1h-0.999v1h-1.001v0.955
					h2.983v-0.922h1.001v-1.001h1.001v1.001h-1.001v0.922h3v-0.923h1.001v-1h1.001v-0.999h1.001v-1h0.999v-1h1.001v-1h1.001v1
					h-1.001v1.001h-0.999v0.999h-1.001v1.001h-1.001v0.998h-1.001v0.923h3.02v-0.95h1.001v-1.001h0.999V15.07h1.001v-1.001h1.001
					v-0.998h1.001V12.07h0.999v-0.999h1.001V10.07h1.001v1.001h-1.001v1h-0.999v1h-1.001v1h-1.001v0.999h-1.001v1h-0.999v1h-1.001
					v0.95h3.001v-0.946h1.001v-1.001h0.999v-0.999h1.001v-1.001h1.001v1.001h-1.001v1h-0.999v1h-1.001v0.946h2.983v-0.944h1.001
					v-1.001h1.001v1.001H37.02v0.944h3.001v-0.943h1.001v-1.001h1.001v-0.998h1.001v-1.001h0.999v-0.999h1.001v-1.001h1.001v1.001
					h-1.001v1h-0.999v1h-1.001v1h-1.001v0.999h-1.001v0.943h3.02v-0.972h1.001v-1h0.999v-1h1.001v-1h1.001v-0.999h1.001v-1h0.999v-1
					h1.001v-1h1.001v1h-1.001v1.001h-0.999v0.999h-1.001v1.001h-1.001v0.998h-1.001v1.001h-0.999v0.999h-1.001v0.972h3.001v-0.968
					h1.001v-1h0.999v-1h1.001v-1h1.001v1h-1.001v1.001h-0.999v0.999h-1.001v0.968h2.983v-0.935h1.001v-1h1.001v1h-1.001v0.935h3.003
					v-0.933h1.001v-1h1.001v-0.999h1.001v-1h0.999v-1h1.001v-1h1.001v1h-1.001v1.001h-0.999v0.999h-1.001v1.001h-1.001v0.998h-1.001
					v0.933h3.02v-0.96h1.001v-1.001h0.999V15.06h1.001v-1.001h1.001v-0.998h1.001V12.06h0.999v-0.999h1.001V10.06h1.001v1.001
					h-1.001v1h-0.999v1h-1.001v1h-1.001v0.999h-1.001v1h-0.999v1h-1.001v0.96h3.001v-0.956h1.001v-1.001h0.999v-0.999h1.001v-1.001
					h1.001v1.001h-1.001v1h-0.999v1h-1.001v0.956h2.983v-0.957h1.001v-1.001h1.001v1.001h-1.001v0.957h3.001v-0.956h1.001v-1.001
					h1.001v-0.999h1.001v-1h0.999v-1h1.001v-1h1.001v1h-1.001v1.001h-0.999v0.999h-1.001v1.001h-1.001v0.999h-1.001v0.956h3.02
					v-0.984h1.001v-1.001h0.999v-0.999h1.001v-1.001h1.001v-0.998h1.001v-1h0.999v-1h1.001v-1h1.001v1h-1.001v1h-0.999v1h-1.001v1
					h-1.001v0.999h-1.001v1.001h-0.999v0.999h-1.001v0.984h3.001v-0.98h1.001v-1h0.999v-1h1.001v-1h1.001v1h-1.001v1h-0.999v1
					h-1.001v0.98h2.983v-0.947h1.001v-1h1.001v1h-1.001v0.947h3v-0.948h1.001v-1h1.001v-0.998h1.001v-1.001h0.999v-0.999h1.001
					v-1.001h1.001v1.001h-1.001v1h-0.999v1h-1.001v1H90.05v0.998h-1.001v0.948h3.02v-0.976h1.001v-1h0.999v-1h1.001v-1h1.001v-0.999
					h1.001v-1.001h0.999v-0.999h1.001v-1.001h1.001V9.043h1.001V8.042h0.999V7.043h1.001V6.042h1.001V5.044h1.001v-1h0.999v-1h1.001
					v-1h1.001v1h-1.001v1h-0.999v1h-1.001v1h-1.001v0.999h-1.001v1.001h-0.999v0.999h-1.001v1.001h-1.001v1.001h-1.001v1.001h-0.999
					v0.999h-1.001v1.001H96.07v0.998h-1.001v1H94.07v1h-1.001v0.976h3.001v-0.972h1.001v-1.001h0.999v-0.999h1.001v-1.001h1.001
					v-1.001h1.001v-1.001h0.999v-0.999h1.001v-1.001h1.001V9.047h1.001v-1h0.999v-1h1.001v-1h1.001v1h-1.001v1h-0.999v1h-1.001v1
					h-1.001v0.999h-1.001v1.001h-0.999v0.999h-1.001v1.001h-1.001v1.001h-1.001v1.001h-0.999v0.999h-1.001v0.972h2.983v-0.969h1.001
					V16.05h1.001v-1.001h1.001v-1.001h0.999v-0.999h1.001v-1.001h1.001V11.05h1.001v-1h0.999v-1h1.001v-1h1.001v1h-1.001v1h-0.999v1
					h-1.001v1h-1.001v0.999h-1.001v1.001h-0.999v0.999h-1.001v1.001h-1.001v1.001h-1.001v0.969h3.001v-0.968h1.001v-1.001h1.001
					v-0.998h1.001v-1h0.999v-1h1.001v-1h1.001v1h-1.001v1h-0.999v1h-1.001v1h-1.001v0.999h-1.001v0.968h3.02v-0.996h1.001v-1h0.999
					v-1h1.001v-1h1.001v-0.998h1.001v-1.001h0.999v-0.999h1.001v-1.001h1.001v-1h1.001v-1h0.999v-1h1.001v-1h1.001V5.026h1.001v-1
					h0.999v-1h1.001v-1h1.001v1h-1.001v1.001h-0.999v0.999h-1.001v1.001h-1.001v0.998h-1.001v1.001h-0.999v0.999h-1.001v1.001
					h-1.001v1h-1.001v1h-0.999v1h-1.001v1h-1.001v0.998h-1.001v1.001h-0.999v0.999h-1.001v0.996h3.001v-0.991h1.001v-1.001h0.999
					v-0.999h1.001v-1.001h1.001v-1h1.001v-1h0.999v-1h1.001v-1h1.001V9.029h1.001v-1h0.999v-1h1.001v-1h1.001v1h-1.001V8.03h-0.999
					v0.999h-1.001v1.001h-1.001v0.998h-1.001v1.001h-0.999v0.999h-1.001v1.001h-1.001v1h-1.001v1h-0.999v1h-1.001v0.991h2.983
					v-0.958h1.001v-1.001h1.001v-1h1.001v-1h0.999v-1h1.001v-1h1.001v-0.999h1.001v-1h0.999v-1h1.001v-1h1.001v1h-1.001v1.001
					h-0.999v0.999h-1.001v1.001h-1.001v0.998h-1.001v1.001h-0.999v0.999h-1.001v1.001h-1.001v1h-1.001v0.958h3.001v-0.956h1.001v-1
					h1.001v-0.999h1.001v-1h0.999v-1h1.001v-1h1.001v1h-1.001v1.001h-0.999v0.999h-1.001v1.001h-1.001v0.998h-1.001v0.956h3.02
					v-0.983h1.001v-1.001h0.999v-0.999h1.001v-1.001h1.001v-0.998h1.001v-1.001h0.999v-1h1.001v-1h1.001v1h-1.001v1.001h-0.999v1
					h-1.001v1h-1.001v0.999h-1.001v1h-0.999v1h-1.001v0.983h3.001v-0.979h1.001V16.04h0.999v-1h1.001v-1h1.001v1h-1.001v1.001
					h-0.999v1h-1.001v0.979h2.983v-0.979h1.001v-1h1.001v1h-1.001v0.979h3.001v-0.978h1.001v-1h1.001v-0.999h1.001v-1h0.999v-1
					h1.001v-1h1.001v1h-1.001v1.001h-0.999v0.999h-1.001v1.001h-1.001v0.998h-1.001v0.978h2.018v-0.004h1.001v0.004h3.002v-0.003
					h1.001v-0.998h1.001v-1.001h0.999v-0.999h1.001v-1.001h1.001v1.001h-1.001v1h-0.999v1h-1.001v1h-1.001v0.001h3.984v-0.968h1.001
					v-1.001h1.001v1.001h-1.001v0.968h3v-0.969h1.001v-1h1.001v-0.999h1.001v-1h0.999v-1h1.001v-1h1.001v1h-1.001v1.001h-0.999
					v0.999h-1.001v1.001h-1.001v0.998h-1.001v0.969h3.02v-0.996h1.001v-1.001h0.999v-0.999h1.001v-1.001h1.001v-0.998h1.001v-1.001
					h0.999v-0.999h1.001v-1h1.001v1h-1.001v1h-0.999v1h-1.001v1h-1.001v0.999h-1.001v1h-0.999v1h-1.001v0.996h3.001v-0.992h1.001
					v-1.001h0.999v-0.999h1.001v-1.001h1.001v1.001h-1.001v1h-0.999v1h-1.001v0.992h2.983v-0.992h1.001v-1.001h1.001v1.001h-1.001
					v0.992h3.001v-0.991h1.001v-1.001h1.001V15.03h1.001v-1.001h0.999V13.03h1.001v-1.001h1.001v1.001h-1.001v1h-0.999v1h-1.001v1
					h-1.001v0.999h-1.001v0.991h2.018v-0.019h1.001v0.019h3.002v-0.017h1.001v-0.999h1.001v-1h0.999v-1h1.001v-1h1.001v1h-1.001
					v1.001h-0.999v0.999h-1.001v1.001h-1.001v0.015h3.984v-0.982h1.001v-1h1.001v1h-1.001v0.982h3.003v-0.98h1.001v-1h1.001v-0.999
					h1.001v-1h0.999v-1h1.001v-1h1.001v1h-1.001v1.001h-0.999v0.999h-1.001v1.001h-1.001v0.998h-1.001v0.98h2.018v-0.007h1.001
					v0.007h3.002v-0.006h1.001v-0.998h1.001v-1.001h0.999v-1h1.001v-1h1.001v1h-1.001v1.001h-0.999v1h-1.001v1h-1.001v0.004h2.985
					v-0.002h0.999v-1h1.001v-1h1.001v1h-1.001v1.001h-0.999v0.001h3.001v-0.001h0.999v-1h1.001v-1h1.001V15.02h1.001v-1h0.999v-1
					h1.001v-1h1.001v1h-1.001v1.001h-0.999v0.999h-1.001v1.001h-1.001v0.998h-1.001v1.001h2.018v-0.028h1.001v0.028h3.002v-0.026
					h1.001v-0.999h1.001v-1h0.999v-1h1.001v-1h1.001v1h-1.001v1.001h-0.999v0.999h-1.001v1.001h-1.001v0.024h3.984v-0.992h1.001v-1
					h1.001v1h-1.001v0.992h0.025c1.044,0,2.042-0.187,2.975-0.514v-0.479h1.001v-1.001h1.001v-0.998h1.001v-1.001h0.999v-0.999
					h1.001v-1.001H221.617z M99.056,2.069h0.999V1.07h1.001V0.069h1.001V1.07h-1.001v1.001h-0.999V3.07h-1.001v1.001h-1.001v0.998
					h-1.001v1h-0.999v1h-1.001v1h-1.001v-1h1.001v-1h0.999v-1h1.001v-1h1.001V3.07h1.001V2.069z M92.068,1.033h1.001v-1h1.001v1
					h-1.001v1h-1.001V1.033z M92.068,5.036h1.001v-1h0.999v-1h1.001v-1h1.001V1.037h1.001V0.036h1.001v1.001h-1.001v1.001H96.07
					v0.998h-1.001v1H94.07v1h-1.001v1h-1.001V5.036z M87.049,2.06h0.999v-1h1.001v-1h1.001v1h-1.001v1.001H88.05V3.06h-1.001v1.001
					h-1.001V3.06h1.001V2.06z M83.048,2.061h0.999v-1h1.001v-1h1.001v1h-1.001v1h-0.999v1h-1.001v1h-1.001V5.06h-1.001v1.001h-0.999
					V7.06h-1.001v1.001h-1.001V7.06h1.001V6.059h0.999V5.06h1.001V4.059h1.001V3.061h1.001V2.061z M76.061,1.058h1.001V0.057h1.001
					v1.001h-1.001v1.001h-1.001V1.058z M76.061,5.061h1.001V4.06h0.999V3.061h1.001V2.06h1.001V1.062h1.001v-1h1.001v1h-1.001v1
					h-1.001v0.999h-1.001v1.001h-0.999v0.999h-1.001v1.001h-1.001V5.061z M74.058,3.059h1.001v-1h1.001v1h-1.001V4.06H74.06v0.999
					h-1.001V6.06h-1.001v0.999h-1.001v1h-0.999v1h-1.001v1h-1.001v-1h1.001V8.058h0.999V7.059h1.001V6.058h1.001V5.059h1.001v-1
					h0.999V3.059z M71.041,2.085h0.999V1.086h1.001V0.085h1.001v1.001h-1.001v1h-0.999v1h-1.001v1H70.04v-1h1.001V2.085z
					 M67.039,2.084h0.999V1.085h1.001V0.084h1.001v1.001h-1.001v1H68.04v1h-1.001v1h-1.001v0.999h-1.001v1h-0.999v1h-1.001v1h-1.001
					v-1h1.001V6.083h0.999V5.084h1.001V4.083h1.001V3.085h1.001V2.084z M60.052,1.048h1.001V0.047h1.001v1.001h-1.001v1h-1.001
					V1.048z M60.052,5.051h1.001V4.05h0.999V3.051h1.001V2.05h1.001V1.052h1.001V0.051h1.001v1.001h-1.001v1h-1.001v0.999h-1.001v1
					h-0.999v1h-1.001v1h-1.001V5.051z M58.049,3.049h1.001v-1h1.001v1H59.05V4.05h-0.999v0.999H57.05V6.05h-1.001v0.998h-1.001
					v1.001h-0.999v0.999h-1.001v1.001h-1.001V9.048h1.001v-1h0.999v-1h1.001v-1h1.001V5.049h1.001v-1h0.999V3.049z M54.031,3.076
					h1.001v-1h0.999v-1h1.001v-1h1.001v1h-1.001v1.001h-0.999v0.999h-1.001v1.001h-1.001V3.076z M51.028,2.074h0.999v-1h1.001v-1
					h1.001v1h-1.001v1.001h-0.999v0.999h-1.001v1.001h-1.001v0.998h-1.001v1.001h-0.999v0.999h-1.001v1.001h-1.001V7.073h1.001v-1
					h0.999v-1h1.001v-1h1.001V3.074h1.001V2.074z M44.041,1.068h1.001v-1h1.001v1h-1.001v1.001h-1.001V1.068z M44.041,5.071h1.001
					v-1h0.999v-1h1.001v-1h1.001V1.072h1.001v-1h1.001v1h-1.001v1.001h-1.001v0.998h-1.001v1.001h-0.999v0.999h-1.001v1.001h-1.001
					V5.071z M42.038,3.07h1.001V2.069h1.001V3.07h-1.001v1H42.04v1h-1.001v1h-1.001v0.999h-1.001v1h-0.999v1h-1.001v1h-1.001v-1
					h1.001V8.068h0.999V7.069h1.001V6.068h1.001V5.07h1.001V4.069h0.999V3.07z M39.021,2.095h0.999V1.096h1.001V0.095h1.001v1.001
					h-1.001v1h-0.999v1h-1.001v1h-1.001v-1h1.001V2.095z M35.02,2.094h0.999V1.095h1.001V0.094h1.001v1.001H37.02v1h-0.999v1H35.02
					v1h-1.001v0.999h-1.001v1h-0.999v1h-1.001v1h-1.001v-1h1.001V6.093h0.999V5.094h1.001V4.093h1.001V3.095h1.001V2.094z
					 M28.032,1.058h1.001V0.057h1.001v1.001h-1.001v1h-1.001V1.058z M28.032,5.061h1.001V4.06h0.999V3.061h1.001V2.06h1.001V1.062
					h1.001V0.061h1.001v1.001h-1.001v1h-1.001v0.999h-1.001v1h-0.999v1h-1.001v1h-1.001V5.061z M23.013,2.085h0.999v-1h1.001v-1
					h1.001v1h-1.001v1.001h-0.999v0.999h-1.001v1.001h-1.001V3.085h1.001V2.085z M19.012,2.085h0.999V1.086h1.001V0.085h1.001v1.001
					h-1.001v1h-0.999v1h-1.001v1h-1.001v0.999H17.01v1h-0.999v1H15.01v1h-1.001v-1h1.001V6.084h0.999V5.085h1.001V4.084h1.001V3.086
					h1.001V2.085z M12.024,1.08h1.001V0.079h1.001V1.08h-1.001v1h-1.001V1.08z M12.024,5.083h1.001V4.082h0.999V3.083h1.001V2.082
					h1.001V1.083h1.001V0.083h1.001v1.001h-1.001v1h-1.001v0.999h-1.001v1h-0.999v1h-1.001v1h-1.001V5.083z M6.004,3.107h1.001v-1
					h0.999v-1h1.001v-1h1.001v1H9.005v1.001H8.006v0.999H7.005v1.001H6.004V3.107z M4.02,9.08h1.001v-1H6.02v-1h1.001v-1h1.001
					V5.081h1.001v-1h0.999v-1h1.001v-1h1.001v1h-1.001v1.001h-0.999v0.999H9.022v1.001H8.021V7.08H7.021v1.001H6.021V9.08H5.021
					v1.001H4.02V9.08z M5.021,13.083v1.001H4.02v-1.001H5.021v-1H6.02v-1h1.001v-1h1.001V9.083h1.001v-1h0.999v-1h1.001v-1h1.001v1
					h-1.001v1.001h-0.999v0.999H9.022v1.001H8.021v0.998H7.021v1.001H6.021v0.999H5.021z M14.008,9.086h-1.001v1.001h-0.999v0.999
					h-1.001v1.001h-1.001v0.998H9.005v1.001H8.006v0.999H7.005v1.001H6.004v-1.001h1.001v-1h0.999v-1h1.001v-1h1.001v-0.999h1.001
					v-1h0.999v-1h1.001v-1h1.001V9.086z M20.013,7.089h-1.001v1h-1.001v0.999H17.01v1h-0.999v1H15.01v1h-1.001v-1h1.001v-1.001
					h0.999V9.088h1.001V8.087h1.001V7.089h1.001V6.088h0.999V5.089h1.001V4.088h1.001v1.001h-1.001v1h-0.999V7.089z M20.027,10.059
					V9.058h1.001v-1h0.999v-1h1.001v-1h1.001V5.059h1.001v-1h0.999v-1h1.001v-1h1.001v1H27.03V4.06h-0.999v0.999H25.03V6.06h-1.001
					v0.998h-1.001v1.001h-0.999v0.999h-1.001v1.001H20.027z M21.028,14.062h-1.001v-1.001h1.001v-1h0.999v-1h1.001v-1h1.001V9.062
					h1.001v-1h0.999v-1h1.001v-1h1.001v1H27.03v1.001h-0.999v0.999H25.03v1.001h-1.001v0.998h-1.001v1.001h-0.999v0.999h-1.001
					V14.062z M30.016,9.095h-1.001v1.001h-0.999v0.999h-1.001v1.001h-1.001v0.998h-1.001v1.001h-0.999v0.999h-1.001v1.001h-1.001
					v-1.001h1.001v-1h0.999v-1h1.001v-1h1.001v-0.999h1.001v-1h0.999v-1h1.001v-1h1.001V9.095z M36.021,6.098v1H35.02v1h-1.001
					v0.999h-1.001v1h-0.999v1h-1.001v1h-1.001v-1h1.001v-1.001h0.999V9.097h1.001V8.096h1.001V7.098h1.001V6.097h0.999V5.098h1.001
					V4.097h1.001v1.001H37.02v1H36.021z M37.037,13.072v1h-1.001v-1H37.037v-1.001h0.999v-0.999h1.001v-1.001h1.001V9.073h1.001
					V8.072h0.999V7.073h1.001V6.072h1.001v1.001h-1.001v1H42.04v1h-1.001v1h-1.001v0.999h-1.001v1h-0.999v1H37.037z M46.024,9.075
					h-1.001v1h-0.999v1h-1.001v1h-1.001v0.999h-1.001v1h-0.999v1h-1.001v1h-1.001v-1h1.001v-1.001h0.999v-0.999h1.001v-1.001h1.001
					v-0.998h1.001v-1.001h0.999V9.075h1.001V8.074h1.001V9.075z M52.029,6.078v0.999h-1.001v1.001h-1.001v0.998h-1.001v1.001h-0.999
					v0.999h-1.001v1.001h-1.001v-1.001h1.001v-1h0.999v-1h1.001v-1h1.001V7.077h1.001v-1h0.999v-1h1.001v-1h1.001v1h-1.001v1.001
					H52.029z M53.048,13.051v1.001h-1.001v-1.001H53.048v-1h0.999v-1h1.001v-1h1.001V9.052h1.001v-1h0.999v-1h1.001v-1h1.001v1
					H59.05v1.001h-0.999v0.999H57.05v1.001h-1.001v0.998h-1.001v1.001h-0.999v0.999H53.048z M62.035,9.085h-1.001v1.001h-0.999
					v0.999h-1.001v1.001h-1.001v0.998h-1.001v1.001h-0.999v0.999h-1.001v1.001h-1.001v-1.001h1.001v-1h0.999v-1h1.001v-1h1.001
					v-0.999h1.001v-1h0.999v-1h1.001v-1h1.001V9.085z M68.04,6.088v1h-1.001v1h-1.001v0.999h-1.001v1h-0.999v1h-1.001v1h-1.001v-1
					h1.001v-1.001h0.999V9.087h1.001V8.086h1.001V7.088h1.001V6.087h0.999V5.088h1.001V4.087h1.001v1.001h-1.001v1H68.04z
					 M69.057,13.062v1h-1.001v-1H69.057v-1.001h0.999v-0.999h1.001v-1.001h1.001V9.062h1.001v-1h0.999v-1h1.001v-1h1.001v1h-1.001
					v1.001H74.06v0.999h-1.001v1.001h-1.001v0.999h-1.001v1h-0.999v1H69.057z M78.044,9.061h-1.001v1.001h-0.999v0.999h-1.001v1.001
					h-1.001v0.999h-1.001v1h-0.999v1h-1.001v1H70.04v-1h1.001V14.06h0.999v-0.999h1.001V12.06h1.001v-0.999h1.001v-1h0.999v-1h1.001
					v-1h1.001V9.061z M84.049,7.064h-1.001v1h-1.001v0.999h-1.001v1.001h-0.999v0.999h-1.001v1.001h-1.001v-1.001h1.001v-1.001
					h0.999V9.063h1.001V8.062h1.001V7.064h1.001v-1h0.999v-1h1.001v-1h1.001v1h-1.001v1h-0.999V7.064z M84.063,10.034V9.033h1.001
					v-1h0.999v-1h1.001v-1h1.001V5.035h1.001V4.034h0.999V3.035h1.001V2.034h1.001v1.001h-1.001v1h-0.999v1h-1.001v1h-1.001v0.998
					h-1.001v1.001h-0.999v0.999h-1.001v1.001H84.063z M85.064,14.037h-1.001v-1.001h1.001v-1h0.999v-1h1.001v-1h1.001V9.038h1.001
					V8.037h0.999V7.038h1.001V6.037h1.001v1.001h-1.001v1h-0.999v1h-1.001v1h-1.001v0.998h-1.001v1.001h-0.999v0.999h-1.001V14.037z
					 M94.052,9.071h-1.001v1h-0.999v1h-1.001v1H90.05v0.998h-1.001v1.001H88.05v0.999h-1.001v1.001h-1.001v-1.001h1.001v-1h0.999v-1
					h1.001v-1h1.001v-0.998h1.001V10.07h0.999V9.071h1.001V8.07h1.001V9.071z M106.059,1.071h-1.001v1.001h-0.999v0.999h-1.001
					v1.001h-1.001v1.001h-1.001v1.001h-0.999v0.999h-1.001v1.001h-1.001v0.998h-1.001v1h-0.999v1h-1.001v1h-1.001v-1h1.001v-1h0.999
					v-1h1.001v-1h1.001V7.073h1.001V6.072h0.999V5.073h1.001V4.072h1.001V3.071h1.001V2.07h0.999V1.071h1.001V0.07h1.001V1.071z
					 M115.064,2.049h0.999V1.05h1.001V0.049h1.001V1.05h-1.001v1h-0.999v1h-1.001v1h-1.001v0.998h-1.001v1.001h-0.999v0.999h-1.001
					v1.001h-1.001V7.048h1.001v-1h0.999v-1h1.001v-1h1.001V3.05h1.001V2.049z M108.077,1.042h1.001v-1h1.001v1h-1.001v1.001h-1.001
					V1.042z M109.078,5.045v1.001h-1.001V5.045H109.078v-1h0.999v-1h1.001v-1h1.001V1.047h1.001V0.046h1.001v1.001h-1.001v1h-1.001
					v0.998h-1.001v1.001h-0.999v0.999H109.078z M122.067,1.052h-1.001v1.001h-0.999v0.999h-1.001v1.001h-1.001v1h-1.001v1h-0.999v1
					h-1.001v1h-1.001v0.998h-1.001v1.001h-0.999v0.999h-1.001v1.001h-1.001v-1.001h1.001v-1h0.999v-1h1.001v-1h1.001V7.053h1.001
					V6.052h0.999V5.053h1.001V4.052h1.001v-1h1.001v-1h0.999v-1h1.001v-1h1.001V1.052z M206.115,11.019h1.001v-1h0.999v-1h1.001v-1
					h1.001V7.021h1.001V6.019h0.999V5.021h1.001V4.019h1.001v1.002h-1.001v1h-0.999v1h-1.001v1h-1.001v0.998h-1.001v1h-0.999v1
					h-1.001v1h-1.001V11.019z M202.128,3.011h1.001v-1h1.001v1h-1.001v1h-0.999v1h-1.001v1h-1.001v1h-1.001v1h-0.999v1h-1.001v1
					h-1.001v-1h1.001v-1h0.999v-1h1.001V6.009h1.001V5.011h1.001v-1h0.999V3.011z M199.111,2.039h0.999v-1h1.001v-1h1.001v1h-1.001
					v1h-0.999v1h-1.001v1h-1.001v-1h1.001V2.039z M190.106,7.037h1.001v-1h0.999v-1h1.001v-1h1.001V3.039h1.001V2.037h0.999v-1
					h1.001v-1h1.001v1h-1.001v1.002h-0.999v1h-1.001v1h-1.001v0.998h-1.001v1h-0.999v1h-1.001v1h-1.001V7.037z M190.106,11.04h1.001
					v-1.001h0.999V9.041h1.001V8.039h1.001V7.041h1.001v-1h0.999v-1h1.001v-1h1.001v1h-1.001v1h-0.999v1h-1.001v1h-1.001v1h-1.001v1
					h-0.999v0.999h-1.001v1h-1.001V11.04z M186.119,3.001h1.001v-1h1.001v1h-1.001v1.002h-0.999v0.998h-1.001v1.002h-1.001v0.998
					h-1.001v1h-0.999v1h-1.001v1h-1.001v-1h1.001v-1h0.999v-1h1.001v-1h1.001v-1h1.001v-1h0.999V3.001z M180.1,6.031v0.998h-1.001
					v1.002h-1.001v0.998h-1.001v1h-0.999v0.999h-1.001v1.001h-1.001v-1.001h1.001v-0.999h0.999v-1h1.001v-1h1.001v-1h1.001v-1h0.999
					v-1h1.001v-1h1.001v1h-1.001v1.002H180.1z M182.102,3.029h1.001v-1h0.999v-1h1.001v-1h1.001v1h-1.001v1h-0.999v1h-1.001v1
					h-1.001V3.029z M179.099,2.027h0.999v-1h1.001v-1h1.001v1h-1.001v1H180.1v1h-1.001v1h-1.001v0.998h-1.001v1.002h-0.999v0.998
					h-1.001v1.002h-1.001V7.025h1.001v-1h0.999v-1h1.001v-1h1.001V3.027h1.001V2.027z M172.111,5.025h1.001v-1h0.999v-1h1.001v-1
					h1.001V1.026h1.001v-1h1.001v1h-1.001v1.001h-1.001v0.998h-1.001v1.002h-0.999v0.998h-1.001v1.002h-1.001V5.025z M170.108,3.025
					h1.001V2.023h1.001v1.002h-1.001v1h-0.999v1h-1.001v1h-1.001v0.998h-1.001v1h-0.999v1h-1.001v1h-1.001v-1h1.001v-1h0.999v-1
					h1.001v-1h1.001V5.025h1.001V4.023h0.999V3.025z M167.092,2.05h0.999v-1h1.001V0.049h1.001V1.05h-1.001v1h-0.999v1h-1.001v1
					h-1.001v-1h1.001V2.05z M158.087,7.048h1.001V6.047h0.999V5.048h1.001v-1h1.001V3.05h1.001V2.048h0.999V1.049h1.001V0.048h1.001
					v1.001h-1.001V2.05h-0.999v1h-1.001v1h-1.001v0.998h-1.001v1h-0.999v1h-1.001v1h-1.001V7.048z M154.1,3.013h1.001v-1h1.001v1
					h-1.001v1.001h-0.999v0.999h-1.001v1.001H152.1v0.998h-1.001v1.001H150.1v0.999h-1.001v1.001h-1.001V9.012h1.001v-1h0.999v-1
					h1.001v-1h1.001V5.013h1.001v-1h0.999V3.013z M148.083,6.043v1h-1.001v1h-1.001v0.999h-1.001v1h-0.999v1h-1.001v1h-1.001v-1
					h1.001v-1.001h0.999V9.042h1.001V8.042h1.001V7.043h1.001V6.042h0.999V5.043h1.001V4.042h1.001v1.001h-1.001v1H148.083z
					 M151.083,2.04h0.999v-1h1.001v-1h1.001v1h-1.001v1.001h-0.999V3.04h-1.001v1.001h-1.001V3.04h1.001V2.04z M147.082,2.04h0.999
					V1.041h1.001V0.04h1.001v1.001h-1.001v1h-0.999v1h-1.001v1h-1.001V5.04h-1.001v1h-0.999v1h-1.001v1h-1.001v-1h1.001V6.039h0.999
					V5.04h1.001V4.039h1.001V3.041h1.001V2.04z M140.095,1.035h1.001V0.034h1.001v1.001h-1.001v1h-1.001V1.035z M140.095,5.038
					h1.001V4.037h0.999V3.038h1.001V2.037h1.001V1.039h1.001V0.038h1.001v1.001h-1.001v1h-1.001v0.999h-1.001v1h-0.999v1h-1.001v1
					h-1.001V5.038z M138.092,3.036h1.001v-1h1.001v1h-1.001v1.001h-0.999v0.999h-1.001v1.001h-1.001v0.998h-1.001v1.001h-0.999
					v0.999h-1.001v1.001h-1.001V9.035h1.001v-1h0.999v-1h1.001v-1h1.001V5.036h1.001v-1h0.999V3.036z M135.075,2.062h0.999v-1h1.001
					v-1h1.001v1h-1.001v1.001h-0.999v0.999h-1.001v1.001h-1.001V3.062h1.001V2.062z M131.073,2.061h0.999v-1h1.001v-1h1.001v1
					h-1.001v1.001h-0.999v1h-1.001v1h-1.001v0.999h-1.001v1h-0.999v1h-1.001v1h-1.001v-1h1.001V6.06h0.999V5.061h1.001V4.06h1.001
					V3.062h1.001V2.061z M124.086,1.025h1.001V0.024h1.001v1.001h-1.001v1h-1.001V1.025z M125.087,5.028v1h-1.001v-1H125.087V4.027
					h0.999V3.028h1.001V2.027h1.001V1.029h1.001V0.028h1.001v1.001h-1.001v1h-1.001v0.999h-1.001v1h-0.999v1H125.087z
					 M132.074,6.065v1h-1.001v1h-1.001v0.999h-1.001v1h-0.999v1h-1.001v1h-1.001v-1h1.001v-1.001h0.999V9.064h1.001V8.063h1.001
					V7.065h1.001V6.064h0.999v-1h1.001v-1h1.001v1h-1.001v1.001H132.074z M133.091,13.038v1.001h-1.001v-1.001H133.091v-1h0.999v-1
					h1.001v-1h1.001V9.039h1.001v-1h0.999v-1h1.001v-1h1.001v1h-1.001V8.04h-0.999v0.999h-1.001v1.001h-1.001v0.998h-1.001v1.001
					h-0.999v0.999H133.091z M141.077,9.041v1.001h-0.999v0.999h-1.001v1.001h-1.001v0.998h-1.001v1.001h-0.999v0.999h-1.001v1.001
					h-1.001V15.04h1.001v-1h0.999v-1h1.001v-1h1.001v-0.999h1.001v-1h0.999v-1H141.077v-1h1.001v1H141.077z M147.098,12.016h-0.999
					v1h-1.001v1h-1.001v0.999h-1.001v1h-0.999v1h-1.001v1h-1.001v-1h1.001v-1.001h0.999v-0.999h1.001v-1.001h1.001v-0.998h1.001
					v-1.001h0.999v-0.999h1.001v-1.001h1.001v1.001h-1.001V12.016z M149.099,14.016h-1.001v-1.001h1.001v-1h0.999v-1h1.001v-1h1.001
					V9.016h1.001v-1h0.999v-1h1.001v-1h1.001v1h-1.001v1.001h-0.999v0.999h-1.001v1.001H152.1v0.998h-1.001v1.001H150.1v0.999
					h-1.001V14.016z M158.086,9.049h-1.001v1.001h-0.999v0.999h-1.001v1.001h-1.001v0.998h-1.001v1.001h-0.999v0.999h-1.001v1.001
					h-1.001v-1.001h1.001v-1h0.999v-1h1.001v-1h1.001v-0.999h1.001v-1h0.999v-1h1.001v-1h1.001V9.049z M164.091,6.052v1h-1.001v1
					h-1.001v1h-1.001v1l-0.999-0.001v1h-1.001v1h-1.001v-1h1.001V10.05h0.999V9.051l1.001,0.001V8.05h1.001V7.052h1.001v-1h0.999v-1
					h1.001v-1h1.001v1h-1.001v1H164.091z M165.107,13.026v1h-1.001v-1H165.107v-1.001h0.999v-0.999h1.001v-1.001h1.001V9.027h1.001
					v-1h0.999v-1h1.001v-1h1.001v1h-1.001v1h-0.999v1h-1.001v1h-1.001v0.999h-1.001v1h-0.999v1H165.107z M173.094,9.027v1h-0.999v1
					h-1.001v1h-1.001v0.999h-1.001v1h-0.999v1h-1.001v1h-1.001v-1h1.001v-1.001h0.999v-0.999h1.001v-1.001h1.001v-0.998h1.001v-1
					h0.999v-1H173.094v-1h1.001v1H173.094z M180.115,11.001h-1.001v1.001h-0.999v0.999h-1.001v1.001h-1.001V15h-1.001v1.001h-0.999
					V17h-1.001v1.001h-1.001V17h1.001v-1h0.999v-1h1.001v-1h1.001v-0.999h1.001v-1h0.999v-1h1.001v-1h1.001V11.001z M181.118,13.003
					v1.001h-1.001v-1.001H181.118v-1h0.999v-1h1.001v-1h1.001V9.005h1.001v-1h0.999v-1h1.001v-1h1.001v1h-1.001v1h-0.999v1h-1.001v1
					h-1.001v0.998h-1.001v1.001h-0.999v0.999H181.118z M189.104,9.039v1h-0.999v0.999h-1.001v1.001h-1.001v0.998h-1.001v1.001
					h-0.999v0.999h-1.001v1.001h-1.001v-1.001h1.001v-1h0.999v-1h1.001v-1h1.001v-0.999h1.001v-0.999h0.999v-1H189.104v-1h1.001v1
					H189.104z M195.125,11.012v1.001h-0.999v1h-1.001v1h-1.001v0.999h-1.001v1h-0.999v1h-1.001v1h-1.001v-1h1.001v-1.001h0.999
					v-0.999h1.001v-1.001h1.001v-0.998h1.001v-1.001h0.999v-1H195.125v-0.999h1.001v0.999H195.125z M197.127,13.013v1.001h-1.001
					v-1.001H197.127v-1h0.999v-1h1.001v-1h1.001V9.015h1.001v-1h0.999v-1h1.001V6.013h1.001v1.002h-1.001v1h-0.999v1h-1.001v1
					h-1.001v0.998h-1.001v1.001h-0.999v0.999H197.127z M205.113,9.017v1.002h-0.999v0.998h-1.001v1.001h-1.001v0.998h-1.001v1.001
					h-0.999v0.999h-1.001v1.001h-1.001v-1.001h1.001v-1h0.999v-1h1.001v-1h1.001v-0.999h1.001v-1h0.999v-1H205.113v-1h1.001v1
					H205.113z M211.134,11.993h-0.999v0.999h-1.001v1.001h-1.001v0.998h-1.001v1.001h-0.999v0.999h-1.001v1.001h-1.001v-1.001h1.001
					v-1h0.999v-1h1.001v-1h1.001v-0.999h1.001v-1h0.999v-1h1.001v-1h1.001v1h-1.001V11.993z M213.135,13.992h-1.001v-1h1.001v-1.001
					h0.999v-0.999h1.001v-1h1.001V8.994h1.001V7.992h0.999V6.994h1.001V5.992h1.001v1.002h-1.001v1h-0.999v1h-1.001v1h-1.001v0.998
					h-1.001v1h-0.999v1h-1.001V13.992z M219.83,15.029h-0.709v0.706C219.37,15.512,219.606,15.277,219.83,15.029z M2.002,3.595
					c-0.126,0.167-0.25,0.335-0.365,0.51h0.365V3.595z M4.002,1.66C3.8,1.802,3.602,1.948,3.413,2.106h0.589V1.66z"/>
			</g>
		</g>
	</g>
</switch>
</svg>
