<?xml version="1.0" encoding="utf-8"?>
<!-- Generator: Adobe Illustrator 13.0.2, SVG Export Plug-In . SVG Version: 6.00 Build 14948)  -->
<!DOCTYPE svg PUBLIC "-//W3C//DTD SVG 1.1//EN" "http://www.w3.org/Graphics/SVG/1.1/DTD/svg11.dtd" [
	<!ENTITY ns_extend "http://ns.adobe.com/Extensibility/1.0/">
	<!ENTITY ns_ai "http://ns.adobe.com/AdobeIllustrator/10.0/">
	<!ENTITY ns_graphs "http://ns.adobe.com/Graphs/1.0/">
	<!ENTITY ns_vars "http://ns.adobe.com/Variables/1.0/">
	<!ENTITY ns_imrep "http://ns.adobe.com/ImageReplacement/1.0/">
	<!ENTITY ns_sfw "http://ns.adobe.com/SaveForWeb/1.0/">
	<!ENTITY ns_custom "http://ns.adobe.com/GenericCustomNamespace/1.0/">
	<!ENTITY ns_adobe_xpath "http://ns.adobe.com/XPath/1.0/">
]>
<svg version="1.1" id="Layer_1" xmlns:x="&ns_extend;" xmlns:i="&ns_ai;" xmlns:graph="&ns_graphs;"
	 xmlns="http://www.w3.org/2000/svg" xmlns:xlink="http://www.w3.org/1999/xlink" x="0px" y="0px" width="236.97px"
	 height="67.096px" viewBox="0 0 236.97 67.096" enable-background="new 0 0 236.97 67.096" xml:space="preserve">
<switch>
	<g i:extraneous="self">
		<g id="frame__x2B__label_copy_3">
			<g>
				<path fill-rule="evenodd" clip-rule="evenodd" fill="#E6E6E6" d="M221.972,0H14.998C6.715,0,0,6.715,0,14.999
					s6.715,14.998,14.998,14.998h68.986v24.102c0,7.179,5.819,12.998,12.998,12.998h41.995c7.179,0,12.999-5.819,12.999-12.998
					V29.997h69.996c8.283,0,14.998-6.715,14.998-14.998S230.255,0,221.972,0z"/>
			</g>
		</g>
		<g>
			<linearGradient id="SVGID_1_" gradientUnits="userSpaceOnUse" x1="118.0576" y1="7.0942" x2="118.0576" y2="23.0918">
				<stop  offset="0" style="stop-color:#FFFFFF"/>
				<stop  offset="1" style="stop-color:#B3B3B3"/>
			</linearGradient>
			<path fill-rule="evenodd" clip-rule="evenodd" fill="url(#SVGID_1_)" d="M220.546,23.092H15.572
				c-4.411,0-7.999-3.587-7.999-7.999c0-4.411,3.588-7.999,7.999-7.999h204.974c4.409,0,7.996,3.587,7.996,7.999
				C228.542,19.504,224.956,23.092,220.546,23.092L220.546,23.092z"/>
			<path d="M220.546,6.094c4.97,0,8.998,4.029,8.998,8.999s-4.028,8.999-8.998,8.999H15.572c-4.97,0-8.999-4.028-8.999-8.999
				s4.029-8.999,8.999-8.999H220.546 M220.546,8.094H15.572c-3.859,0-6.999,3.14-6.999,6.999c0,3.859,3.14,6.999,6.999,6.999
				h204.975c3.858,0,6.998-3.14,6.998-6.999C227.544,11.234,224.405,8.094,220.546,8.094L220.546,8.094z"/>
		</g>
	</g>
</switch>
</svg>
