<?xml version="1.0" encoding="utf-8"?>
<!-- Generator: Adobe Illustrator 13.0.2, SVG Export Plug-In . SVG Version: 6.00 Build 14948)  -->
<!DOCTYPE svg PUBLIC "-//W3C//DTD SVG 1.1//EN" "http://www.w3.org/Graphics/SVG/1.1/DTD/svg11.dtd" [
	<!ENTITY ns_extend "http://ns.adobe.com/Extensibility/1.0/">
	<!ENTITY ns_ai "http://ns.adobe.com/AdobeIllustrator/10.0/">
	<!ENTITY ns_graphs "http://ns.adobe.com/Graphs/1.0/">
	<!ENTITY ns_vars "http://ns.adobe.com/Variables/1.0/">
	<!ENTITY ns_imrep "http://ns.adobe.com/ImageReplacement/1.0/">
	<!ENTITY ns_sfw "http://ns.adobe.com/SaveForWeb/1.0/">
	<!ENTITY ns_custom "http://ns.adobe.com/GenericCustomNamespace/1.0/">
	<!ENTITY ns_adobe_xpath "http://ns.adobe.com/XPath/1.0/">
]>
<svg version="1.1" id="Layer_1" xmlns:x="&ns_extend;" xmlns:i="&ns_ai;" xmlns:graph="&ns_graphs;"
	 xmlns="http://www.w3.org/2000/svg" xmlns:xlink="http://www.w3.org/1999/xlink" x="0px" y="0px" width="10.999px"
	 height="43.994px" viewBox="0 0 10.999 43.994" enable-background="new 0 0 10.999 43.994" xml:space="preserve">
<switch>
	<g i:extraneous="self">
		<g>
			<path fill-rule="evenodd" clip-rule="evenodd" d="M5.499,43.996C2.466,43.996,0,41.527,0,38.494V5.499C0,2.466,2.466,0,5.499,0
				s5.5,2.466,5.5,5.499v32.996C10.999,41.527,8.532,43.996,5.499,43.996L5.499,43.996z"/>
			<path fill="#FFFFFF" d="M5.5,1c2.484,0,4.499,2.014,4.499,4.499v32.995c0,2.486-2.015,4.5-4.499,4.5c-2.485,0-4.5-2.014-4.5-4.5
				V5.499C1,3.014,3.015,1,5.5,1 M5.5-1C1.916-1-1,1.916-1,5.499v32.995c0,3.584,2.916,6.5,6.5,6.5s6.499-2.916,6.499-6.5V5.499
				C11.999,1.916,9.083-1,5.5-1L5.5-1z"/>
		</g>
	</g>
</switch>
</svg>
