<?xml version="1.0" encoding="utf-8"?>
<!-- Generator: Adobe Illustrator 13.0.2, SVG Export Plug-In . SVG Version: 6.00 Build 14948)  -->
<!DOCTYPE svg PUBLIC "-//W3C//DTD SVG 1.1//EN" "http://www.w3.org/Graphics/SVG/1.1/DTD/svg11.dtd" [
	<!ENTITY ns_extend "http://ns.adobe.com/Extensibility/1.0/">
	<!ENTITY ns_ai "http://ns.adobe.com/AdobeIllustrator/10.0/">
	<!ENTITY ns_graphs "http://ns.adobe.com/Graphs/1.0/">
	<!ENTITY ns_vars "http://ns.adobe.com/Variables/1.0/">
	<!ENTITY ns_imrep "http://ns.adobe.com/ImageReplacement/1.0/">
	<!ENTITY ns_sfw "http://ns.adobe.com/SaveForWeb/1.0/">
	<!ENTITY ns_custom "http://ns.adobe.com/GenericCustomNamespace/1.0/">
	<!ENTITY ns_adobe_xpath "http://ns.adobe.com/XPath/1.0/">
]>
<svg version="1.1" id="Layer_1" xmlns:x="&ns_extend;" xmlns:i="&ns_ai;" xmlns:graph="&ns_graphs;"
	 xmlns="http://www.w3.org/2000/svg" xmlns:xlink="http://www.w3.org/1999/xlink" x="0px" y="0px" width="43.994px"
	 height="10.999px" viewBox="0 0 43.994 10.999" enable-background="new 0 0 43.994 10.999" xml:space="preserve">
<switch>
	<g i:extraneous="self">
		<g>
			<path fill-rule="evenodd" clip-rule="evenodd" d="M38.495,10.999H5.5c-3.034,0-5.5-2.467-5.5-5.5c0-3.034,2.466-5.5,5.5-5.5
				h32.995c3.033,0,5.5,2.466,5.5,5.5C43.995,8.532,41.528,10.999,38.495,10.999L38.495,10.999z"/>
			<path fill="#FFFFFF" d="M38.495,1c2.485,0,4.499,2.015,4.499,4.5s-2.014,4.5-4.499,4.5H5.5C3.014,9.999,1,7.984,1,5.5
				S3.014,1,5.5,1H38.495 M38.495-1H5.5C1.916-1-1,1.916-1,5.5c0,3.583,2.916,6.5,6.5,6.5h32.996c3.584,0,6.499-2.916,6.499-6.5
				C44.994,1.916,42.079-1,38.495-1L38.495-1z"/>
		</g>
	</g>
</switch>
</svg>
