<?xml version="1.0" encoding="utf-8"?>
<!-- Generator: Adobe Illustrator 13.0.2, SVG Export Plug-In . SVG Version: 6.00 Build 14948)  -->
<!DOCTYPE svg PUBLIC "-//W3C//DTD SVG 1.1//EN" "http://www.w3.org/Graphics/SVG/1.1/DTD/svg11.dtd" [
	<!ENTITY ns_extend "http://ns.adobe.com/Extensibility/1.0/">
	<!ENTITY ns_ai "http://ns.adobe.com/AdobeIllustrator/10.0/">
	<!ENTITY ns_graphs "http://ns.adobe.com/Graphs/1.0/">
	<!ENTITY ns_vars "http://ns.adobe.com/Variables/1.0/">
	<!ENTITY ns_imrep "http://ns.adobe.com/ImageReplacement/1.0/">
	<!ENTITY ns_sfw "http://ns.adobe.com/SaveForWeb/1.0/">
	<!ENTITY ns_custom "http://ns.adobe.com/GenericCustomNamespace/1.0/">
	<!ENTITY ns_adobe_xpath "http://ns.adobe.com/XPath/1.0/">
]>
<svg version="1.1" id="Layer_1" xmlns:x="&ns_extend;" xmlns:i="&ns_ai;" xmlns:graph="&ns_graphs;"
	 xmlns="http://www.w3.org/2000/svg" xmlns:xlink="http://www.w3.org/1999/xlink" x="0px" y="0px" width="27.101px"
	 height="25.754px" viewBox="0 0 27.101 25.754" enable-background="new 0 0 27.101 25.754" xml:space="preserve">
<switch>
	<g i:extraneous="self">
		<g>
			<g>
				<path fill-rule="evenodd" clip-rule="evenodd" fill="#CCCCCC" d="M26.108,12.616c0-0.019,0.003-0.037,0.003-0.056
					C26.111,5.624,20.487,0,13.55,0C6.613,0,0.989,5.624,0.989,12.561c0,0.019,0.003,0.037,0.003,0.056H26.108z"/>
			</g>
		</g>
		<g>
			<linearGradient id="SVGID_1_" gradientUnits="userSpaceOnUse" x1="13.5503" y1="7.0508" x2="13.5503" y2="18.0698">
				<stop  offset="0" style="stop-color:#FFFFFF"/>
				<stop  offset="1" style="stop-color:#B3B3B3"/>
			</linearGradient>
			<path fill-rule="evenodd" clip-rule="evenodd" fill="url(#SVGID_1_)" d="M13.551,18.069c-3.039,0-5.509-2.47-5.509-5.508
				c0-3.038,2.47-5.51,5.509-5.51c3.038,0,5.509,2.472,5.509,5.51C19.06,15.6,16.589,18.069,13.551,18.069L13.551,18.069z"/>
			<path d="M13.551,6.051c3.596,0,6.51,2.914,6.51,6.51c0,3.595-2.914,6.51-6.51,6.51c-3.595,0-6.51-2.915-6.51-6.51
				C7.041,8.965,9.956,6.051,13.551,6.051 M13.551,8.051c-2.487,0-4.51,2.023-4.51,4.51c0,2.486,2.023,4.51,4.51,4.51
				c2.486,0,4.51-2.023,4.51-4.51C18.061,10.074,16.037,8.051,13.551,8.051L13.551,8.051z"/>
		</g>
	</g>
</switch>
</svg>
