<?xml version="1.0" encoding="utf-8"?>
<!-- Generator: Adobe Illustrator 13.0.2, SVG Export Plug-In . SVG Version: 6.00 Build 14948)  -->
<!DOCTYPE svg PUBLIC "-//W3C//DTD SVG 1.1//EN" "http://www.w3.org/Graphics/SVG/1.1/DTD/svg11.dtd" [
	<!ENTITY ns_extend "http://ns.adobe.com/Extensibility/1.0/">
	<!ENTITY ns_ai "http://ns.adobe.com/AdobeIllustrator/10.0/">
	<!ENTITY ns_graphs "http://ns.adobe.com/Graphs/1.0/">
	<!ENTITY ns_vars "http://ns.adobe.com/Variables/1.0/">
	<!ENTITY ns_imrep "http://ns.adobe.com/ImageReplacement/1.0/">
	<!ENTITY ns_sfw "http://ns.adobe.com/SaveForWeb/1.0/">
	<!ENTITY ns_custom "http://ns.adobe.com/GenericCustomNamespace/1.0/">
	<!ENTITY ns_adobe_xpath "http://ns.adobe.com/XPath/1.0/">
]>
<svg version="1.1" id="Layer_1" xmlns:x="&ns_extend;" xmlns:i="&ns_ai;" xmlns:graph="&ns_graphs;"
	 xmlns="http://www.w3.org/2000/svg" xmlns:xlink="http://www.w3.org/1999/xlink" x="0px" y="0px" width="92.244px"
	 height="54.993px" viewBox="0 0 92.244 54.993" enable-background="new 0 0 92.244 54.993" xml:space="preserve">
<switch>
	<g i:extraneous="self">
		<g id="frame_copy_9_1_">
			<g>
				<path fill-rule="evenodd" clip-rule="evenodd" fill="#E6E6E6" d="M83.99,0H4C1.791,0,0,1.791,0,4v46.994
					c0,2.209,1.791,3.999,4,3.999h79.99c2.208,0,3.999-1.79,3.999-3.999V4C87.989,1.791,86.198,0,83.99,0z"/>
			</g>
		</g>
		<g>
			<path fill-rule="evenodd" clip-rule="evenodd" fill="#666666" d="M11.862,33.041c-3.348,0-6.071-2.723-6.071-6.071
				s2.723-6.073,6.071-6.073c3.349,0,6.071,2.725,6.071,6.073S15.21,33.041,11.862,33.041L11.862,33.041z"/>
			<path d="M11.862,21.897c2.801,0,5.071,2.271,5.071,5.071s-2.271,5.071-5.071,5.071s-5.071-2.271-5.071-5.071
				S9.061,21.897,11.862,21.897 M11.862,19.897c-3.899,0-7.071,3.172-7.071,7.071c0,3.899,3.172,7.071,7.071,7.071
				s7.071-3.172,7.071-7.071C18.933,23.069,15.761,19.897,11.862,19.897L11.862,19.897z"/>
		</g>
		<g>
			<g>
				<linearGradient id="SVGID_1_" gradientUnits="userSpaceOnUse" x1="47.3315" y1="6.0874" x2="47.3315" y2="49.083">
					<stop  offset="0" style="stop-color:#7F7F7F"/>
					<stop  offset="1" style="stop-color:#000000"/>
				</linearGradient>
				<path fill-rule="evenodd" clip-rule="evenodd" fill="url(#SVGID_1_)" d="M78.837,48.083H15.846
					c-0.721,0-1.368-0.388-1.719-0.981c9.986-5.753,27.383-15.815,28.851-16.682c1.145-0.676,1.825-1.854,1.82-3.156
					c-0.004-1.286-0.688-2.447-1.827-3.108l-0.845-0.488L14.437,7.68c0.368-0.37,0.872-0.591,1.409-0.591h62.992
					c0.513,0,0.99,0.194,1.352,0.527c-10.05,5.799-26.709,15.421-28.644,16.54c-1.141,0.661-1.825,1.823-1.829,3.108
					c-0.004,1.302,0.676,2.48,1.821,3.156c1.438,0.85,18.631,10.794,28.97,16.752C80.146,47.725,79.522,48.083,78.837,48.083
					L78.837,48.083z"/>
			</g>
			<g>
				<path fill="#4D4D4D" d="M78.837,6.087c1.253,0,2.324,0.77,2.773,1.862c-9.915,5.722-27.571,15.918-29.565,17.073
					c-1.787,1.034-1.757,3.501,0,4.536c1.46,0.86,19.607,11.358,29.715,17.181c-0.3,1.341-1.492,2.344-2.923,2.344H15.845
					c-1.461,0-2.676-1.045-2.942-2.43c10.135-5.839,28.113-16.238,29.565-17.095c1.757-1.035,1.787-3.502,0-4.536
					c-1.985-1.148-19.48-11.252-29.422-16.99c0.428-1.134,1.515-1.944,2.799-1.944H78.837 M77.371,8.087H17.144
					C27.248,13.92,41.678,22.254,43.47,23.291c1.45,0.84,2.32,2.324,2.327,3.97c0.006,1.66-0.858,3.163-2.313,4.021
					c-1.318,0.777-16.763,9.714-27.321,15.802h62.188C67.958,41.089,52.349,32.059,51.03,31.281c-1.455-0.856-2.32-2.36-2.313-4.02
					c0.007-1.646,0.877-3.13,2.327-3.97C52.835,22.254,67.266,13.92,77.371,8.087L77.371,8.087z"/>
			</g>
		</g>
		<g>
			<g>
				<linearGradient id="SVGID_2_" gradientUnits="userSpaceOnUse" x1="1.1963" y1="6.5176" x2="1.1963" y2="48.4756">
					<stop  offset="0" style="stop-color:#7F7F7F"/>
					<stop  offset="1" style="stop-color:#000000"/>
				</linearGradient>
				<path fill-rule="evenodd" clip-rule="evenodd" fill="url(#SVGID_2_)" d="M80.24,47.467L46.098,28.099l34.147-20.57
					c0.31,0.196,0.705,0.889,0.705,1.916v36.102C80.951,46.583,80.549,47.278,80.24,47.467L80.24,47.467z"/>
			</g>
			<g>
				<path fill="#4D4D4D" d="M80.081,6.517c1.008,0,1.824,1.31,1.824,2.928v36.104c0,1.617-0.816,2.928-1.824,2.928L44.208,28.125
					L80.081,6.517 M79.928,8.836l-31.94,19.238l31.932,18.116c0.045-0.176,0.077-0.392,0.077-0.643V9.445
					C79.997,9.21,79.968,9.005,79.928,8.836L79.928,8.836z"/>
			</g>
		</g>
		<g>
			<g>
				<linearGradient id="SVGID_3_" gradientUnits="userSpaceOnUse" x1="32.1265" y1="6.5171" x2="32.1265" y2="48.4766">
					<stop  offset="0" style="stop-color:#7F7F7F"/>
					<stop  offset="1" style="stop-color:#000000"/>
				</linearGradient>
				<path fill-rule="evenodd" clip-rule="evenodd" fill="url(#SVGID_3_)" d="M14.442,47.468c-0.31-0.193-0.709-0.887-0.709-1.92
					v-6.833c5.466-1.18,9.494-6.087,9.494-11.748c0-5.658-4.025-10.566-9.494-11.744v-5.78c0-1.037,0.404-1.734,0.713-1.922
					l35.098,19.616L14.442,47.468L14.442,47.468z"/>
			</g>
			<g>
				<path fill="#4D4D4D" d="M14.603,6.517l36.873,20.607L14.603,48.476c-1.008,0-1.824-1.311-1.824-2.928v-7.632
					c5.365-0.769,9.493-5.37,9.493-10.948c0-5.578-4.128-10.179-9.493-10.947V9.445C12.778,7.827,13.595,6.517,14.603,6.517
					 M14.766,8.794c-0.046,0.177-0.08,0.396-0.08,0.65v5.032c5.513,1.543,9.493,6.646,9.493,12.491
					c0,5.846-3.979,10.949-9.493,12.492v6.088c0,0.245,0.031,0.458,0.075,0.631l32.855-19.025L14.766,8.794L14.766,8.794z"/>
			</g>
		</g>
		<g>
			<linearGradient id="SVGID_4_" gradientUnits="userSpaceOnUse" x1="47.2896" y1="38.9946" x2="47.2896" y2="15.998">
				<stop  offset="0" style="stop-color:#7F7F7F"/>
				<stop  offset="0.7143" style="stop-color:#1A1A1A"/>
				<stop  offset="1" style="stop-color:#000000"/>
			</linearGradient>
			<path fill-rule="evenodd" clip-rule="evenodd" fill="url(#SVGID_4_)" d="M48.457,38.995c-8.567,0-16.342-1.949-16.42-1.97
				l-0.12-0.031h-0.126c-0.551,0-0.999-0.447-0.999-0.996v-0.225l-0.097-0.204c-0.021-0.042-1.902-4.05-1.902-7.984
				c0-3.998,1.888-8.125,1.906-8.167l0.093-0.2v-0.221c0-0.551,0.448-0.999,0.999-0.999h0.126l0.12-0.031
				c0.078-0.021,7.854-1.97,16.42-1.97c8.395,0,13.943,1.925,13.997,1.943l0.163,0.058h0.171c0.551,0,0.999,0.448,0.999,0.999v0.223
				l0.095,0.202c0.021,0.042,1.904,4.099,1.904,8.058c0,3.973-1.886,8.054-1.904,8.093l-0.095,0.202v0.223
				c0,0.549-0.448,0.996-0.999,0.996h-0.171l-0.163,0.058C62.4,37.07,56.851,38.995,48.457,38.995L48.457,38.995z"/>
			<path fill="#4D4D4D" d="M48.458,14.998c8.692,0,14.33,2,14.33,2c1.104,0,2,0.896,2,2c0,0,1.999,4.238,1.999,8.482
				c0,4.254-1.999,8.516-1.999,8.516c0,1.104-0.896,1.998-2,1.998c0,0-5.638,2-14.33,2c-8.805,0-16.666-2-16.666-2
				c-1.104,0-2-0.895-2-1.998c0,0-1.999-4.191-1.999-8.412c0-4.278,1.999-8.587,1.999-8.587c0-1.104,0.896-2,2-2
				C31.792,16.998,39.653,14.998,48.458,14.998 M48.458,16.998c-8.433,0-16.097,1.919-16.173,1.938l-0.242,0.062h-0.25v0.438
				l-0.185,0.401c-0.018,0.04-1.814,3.981-1.814,7.748c0,3.724,1.786,7.513,1.804,7.55l0.195,0.409v0.452h0.25l0.243,0.06
				c0.076,0.02,7.74,1.938,16.173,1.938c8.196,0,13.61-1.867,13.664-1.886l0.322-0.113l0.344-0.001v-0.443l0.188-0.401
				c0.018-0.039,1.811-3.932,1.811-7.669c0-3.753-1.79-7.591-1.808-7.629l-0.191-0.405v-0.448h-0.341l-0.325-0.114
				C62.068,18.865,56.654,16.998,48.458,16.998L48.458,16.998z"/>
		</g>
	</g>
</switch>
</svg>
