<?xml version="1.0" encoding="utf-8"?>
<!-- Generator: Adobe Illustrator 13.0.2, SVG Export Plug-In . SVG Version: 6.00 Build 14948)  -->
<!DOCTYPE svg PUBLIC "-//W3C//DTD SVG 1.1//EN" "http://www.w3.org/Graphics/SVG/1.1/DTD/svg11.dtd" [
	<!ENTITY ns_extend "http://ns.adobe.com/Extensibility/1.0/">
	<!ENTITY ns_ai "http://ns.adobe.com/AdobeIllustrator/10.0/">
	<!ENTITY ns_graphs "http://ns.adobe.com/Graphs/1.0/">
	<!ENTITY ns_vars "http://ns.adobe.com/Variables/1.0/">
	<!ENTITY ns_imrep "http://ns.adobe.com/ImageReplacement/1.0/">
	<!ENTITY ns_sfw "http://ns.adobe.com/SaveForWeb/1.0/">
	<!ENTITY ns_custom "http://ns.adobe.com/GenericCustomNamespace/1.0/">
	<!ENTITY ns_adobe_xpath "http://ns.adobe.com/XPath/1.0/">
]>
<svg version="1.1" id="Layer_1" xmlns:x="&ns_extend;" xmlns:i="&ns_ai;" xmlns:graph="&ns_graphs;"
	 xmlns="http://www.w3.org/2000/svg" xmlns:xlink="http://www.w3.org/1999/xlink" x="0px" y="0px" width="25.997px"
	 height="221.972px" viewBox="0 0 25.997 221.972" enable-background="new 0 0 25.997 221.972" xml:space="preserve">
<switch>
	<g i:extraneous="self">
		<g>
			<path fill-rule="evenodd" clip-rule="evenodd" fill="#CCCCCC" d="M22.998,219.972H3.001c-0.552,0-1-0.447-1-1V3
				c0-0.552,0.448-1,1-1h19.997c0.55,0,0.998,0.448,0.998,1v215.972C23.996,219.525,23.548,219.972,22.998,219.972L22.998,219.972z"
				/>
			<path d="M22.998,1c1.104,0,1.999,0.896,1.999,2v215.972c0,1.105-0.896,2-1.999,2H3c-1.104,0-2-0.895-2-2V3c0-1.104,0.896-2,2-2
				H22.998 M22.997,3H3v215.972h19.998L22.997,3L22.997,3z"/>
		</g>
	</g>
</switch>
</svg>
