<?xml version="1.0" encoding="utf-8"?>
<!-- Generator: Adobe Illustrator 13.0.2, SVG Export Plug-In . SVG Version: 6.00 Build 14948)  -->
<!DOCTYPE svg PUBLIC "-//W3C//DTD SVG 1.1//EN" "http://www.w3.org/Graphics/SVG/1.1/DTD/svg11.dtd" [
	<!ENTITY ns_extend "http://ns.adobe.com/Extensibility/1.0/">
	<!ENTITY ns_ai "http://ns.adobe.com/AdobeIllustrator/10.0/">
	<!ENTITY ns_graphs "http://ns.adobe.com/Graphs/1.0/">
	<!ENTITY ns_vars "http://ns.adobe.com/Variables/1.0/">
	<!ENTITY ns_imrep "http://ns.adobe.com/ImageReplacement/1.0/">
	<!ENTITY ns_sfw "http://ns.adobe.com/SaveForWeb/1.0/">
	<!ENTITY ns_custom "http://ns.adobe.com/GenericCustomNamespace/1.0/">
	<!ENTITY ns_adobe_xpath "http://ns.adobe.com/XPath/1.0/">
]>
<svg version="1.1" id="Layer_1" xmlns:x="&ns_extend;" xmlns:i="&ns_ai;" xmlns:graph="&ns_graphs;"
	 xmlns="http://www.w3.org/2000/svg" xmlns:xlink="http://www.w3.org/1999/xlink" x="0px" y="0px" width="37.995px"
	 height="249.969px" viewBox="0 0 37.995 249.969" enable-background="new 0 0 37.995 249.969" xml:space="preserve">
<switch>
	<g i:extraneous="self">
		<g id="Shape_17">
			<g>
				<path fill-rule="evenodd" clip-rule="evenodd" fill="#E6E6E6" d="M25.997,227.972H11.999c-2.208,0-4,1.79-4,3.999v13.998
					c0,2.209,1.791,4,4,4h13.999c2.209,0,3.999-1.791,3.999-4v-13.998C29.996,229.762,28.206,227.972,25.997,227.972z"/>
			</g>
		</g>
		<g id="Shape_18">
			<g>
				<path fill-rule="evenodd" clip-rule="evenodd" d="M19.061,238.188c1.199,0,2.17-0.972,2.17-2.17c0-1.197-0.971-2.169-2.17-2.169
					c-1.198,0-2.169,0.972-2.169,2.169C16.891,237.216,17.863,238.188,19.061,238.188z M21.997,240.97v-2h-5.999v2h1v3.999h-1v2
					h5.999v-2h-0.999v-3.999H21.997z"/>
			</g>
		</g>
		<g id="Shape_16">
			<g>
				<path fill-rule="evenodd" clip-rule="evenodd" fill="#E6E6E6" d="M33.996,0H4C1.791,0,0,1.791,0,4v224.972c0,2.209,1.791,4,4,4
					h29.997c2.209,0,3.999-1.791,3.999-4V4C37.995,1.791,36.205,0,33.996,0z"/>
			</g>
		</g>
	</g>
</switch>
</svg>
