<?xml version="1.0" encoding="utf-8"?>
<!-- Generator: Adobe Illustrator 13.0.2, SVG Export Plug-In . SVG Version: 6.00 Build 14948)  -->
<!DOCTYPE svg PUBLIC "-//W3C//DTD SVG 1.1//EN" "http://www.w3.org/Graphics/SVG/1.1/DTD/svg11.dtd" [
	<!ENTITY ns_extend "http://ns.adobe.com/Extensibility/1.0/">
	<!ENTITY ns_ai "http://ns.adobe.com/AdobeIllustrator/10.0/">
	<!ENTITY ns_graphs "http://ns.adobe.com/Graphs/1.0/">
	<!ENTITY ns_vars "http://ns.adobe.com/Variables/1.0/">
	<!ENTITY ns_imrep "http://ns.adobe.com/ImageReplacement/1.0/">
	<!ENTITY ns_sfw "http://ns.adobe.com/SaveForWeb/1.0/">
	<!ENTITY ns_custom "http://ns.adobe.com/GenericCustomNamespace/1.0/">
	<!ENTITY ns_adobe_xpath "http://ns.adobe.com/XPath/1.0/">
]>
<svg version="1.1" id="Layer_1" xmlns:x="&ns_extend;" xmlns:i="&ns_ai;" xmlns:graph="&ns_graphs;"
	 xmlns="http://www.w3.org/2000/svg" xmlns:xlink="http://www.w3.org/1999/xlink" x="0px" y="0px" width="68.061px"
	 height="40.05px" viewBox="0 0 68.061 40.05" enable-background="new 0 0 68.061 40.05" xml:space="preserve">
<switch>
	<g i:extraneous="self">
		<g id="label_copy_3_1_">
					</g>
		<g>
			<path fill="#333333" d="M66.872,39.51h-0.996H20.023c-10.492,0-19.026-8.534-19.026-19.026c0-10.492,8.535-19.026,19.026-19.026
				h45.853h0.996v0.996v36.06V39.51L66.872,39.51z"/>
			<path fill="#333333" d="M65.875,2.455v36.06H20.023c-9.957,0-18.029-8.072-18.029-18.03c0-9.957,8.072-18.03,18.029-18.03H65.875
				 M67.869,0.46h-1.994H20.023C8.982,0.46,0,9.443,0,20.484s8.982,20.024,20.023,20.024h45.852h1.994v-1.994V2.455V0.46
				L67.869,0.46z"/>
		</g>
		<g>
			<path fill="#D93D3D" d="M1.994,20.484c0,9.958,8.206,18.03,18.328,18.03h46.61V2.455h-46.61
				C10.2,2.455,1.994,10.527,1.994,20.484L1.994,20.484z"/>
		</g>
		<g>
			<g>
				<path d="M36.346,28.687v-1.025h-1.023v1.025h1.021v1.023h1.025v-1.023H36.346z M32.251,24.592v1.023h1.023v-1.023H32.251z
					 M34.299,26.639v-1.023h-1.024v1.025h1.023v1.021h1.024v-1.023H34.299z M38.392,30.734V29.71h-1.023v1.025h1.022v1.021h1.024
					v-1.023H38.392z M40.438,32.781v-1.024h-1.023v1.024H40.438z M38.396,26.639v-1.023h-1.024v1.025h1.023v1.021h1.024v-1.023
					H38.396z M36.348,24.592v1.023h1.024v-1.023H36.348z M42.488,30.734V29.71h-1.023v1.025h1.022v1.021h1.025v-1.023H42.488z
					 M40.442,28.687v-1.025h-1.023v1.025h1.021v1.023h1.024v-1.023H40.442z M44.535,32.781v-1.024h-1.023v1.024H44.535z
					 M34.265,30.718v-1.026h-1.023v1.026h1.021v1.023h1.025v-1.023H34.265z M30.168,30.718v-1.026h-1.023v1.026h1.021v1.023h1.025
					v-1.023H30.168z M28.122,28.668v-1.023h-1.024v1.025h1.023v1.021h1.024v-1.023H28.122z M34.261,34.812v-1.024h-1.023v1.024
					H34.261z M26.075,26.622v1.024h1.022v-1.024H26.075z M30.17,26.622v1.024h1.024v-1.024H30.17z M32.213,32.767v1.021h1.024
					v-1.022h-1.023v-1.024h-1.023v1.026H32.213z M50.647,34.812v-1.024h-1.024v1.024H50.647z M32.219,28.668v-1.023h-1.024v1.025
					h1.023v1.021h1.024v-1.023H32.219z M37.334,34.812h1.024v-1.024h-1.024V34.812z M36.311,32.765v-1.024h-1.023v1.026h1.022v1.021
					h1.024v-1.022H36.311z M57.817,29.71v1.025h1.022v1.021h1.025v-1.023H58.84V29.71H57.817z M19.963,24.592v1.023h1.023v-1.023
					H19.963z M60.887,32.781v-1.024h-1.023v1.024H60.887z M48.599,32.767v1.021h1.024v-1.022H48.6v-1.024h-1.023v1.026H48.599z
					 M56.795,28.687v-1.025h-1.024v1.025h1.022v1.023h1.024v-1.023H56.795z M50.652,26.639v-1.023h-1.024v1.025h1.023v1.021h1.024
					v-1.023H50.652z M52.7,24.592v1.023h1.024v-1.023H52.7z M54.748,26.639v-1.023h-1.024v1.025h1.023v1.021h1.024v-1.023H54.748z
					 M64.953,32.765v-1.024H63.93v1.026h1.022v1.021h1.023v-1.022H64.953z M65.976,34.812h0.956v-1.024h-0.956V34.812z
					 M52.698,28.687v-1.025h-1.023v1.025h1.021v1.023h1.025v-1.023H52.698z M48.604,24.592v1.023h1.024v-1.023H48.604z
					 M42.459,26.622v1.024h1.023v-1.024H42.459z M53.72,34.812h1.023v-1.024H53.72V34.812z M55.767,31.757v-1.023h-1.023V29.71
					h-1.023v1.025h1.022v1.021H55.767z M52.696,32.765v-1.024h-1.023v1.026h1.022v1.021h1.025v-1.022H52.696z M46.554,30.718v-1.026
					h-1.023v1.026h1.021v1.023h1.025v-1.023H46.554z M44.508,28.668v-1.023h-1.025v1.025h1.024v1.021h1.024v-1.023H44.508z
					 M56.791,32.781v-1.024h-1.024v1.024H56.791z M50.651,30.718v-1.026h-1.024v1.026h1.022v1.023h1.024v-1.023H50.651z
					 M46.556,26.622v1.024h1.023v-1.024H46.556z M48.604,28.668v-1.023H47.58v1.025h1.023v1.021h1.024v-1.023H48.604z
					 M62.906,30.718v-1.026h-1.023v1.026h1.021v1.023h1.025v-1.023H62.906z M9.7,10.239v1.026h1.023v-1.026H9.7z M15.838,16.382
					v1.023h1.023V16.38h-1.022v-1.021h-1.024v1.023H15.838z M12.77,13.311v-1.025h-1.022v-1.021h-1.025v1.023h1.024v1.023H12.77z
					 M17.886,18.43v-1.024h-1.024v1.024H17.886z M13.792,14.334v1.025h1.023v-1.025h-1.021v-1.023H12.77v1.023H13.792z
					 M13.793,10.241V9.215H12.77v1.025H13.793z M21.983,18.43v-1.024h-1.025v1.024H21.983z M9.749,30.734V29.71H8.725v1.025h1.023
					v1.021h1.024v-1.023H9.749z M9.699,7.168h1.024V6.146H9.701V5.792C9.536,5.907,9.375,6.026,9.215,6.146h0.483V7.168z
					 M11.746,8.194v1.021h1.024V8.192h-1.023V7.168h-1.024v1.026H11.746z M17.888,14.334v1.025h1.024v-1.025H17.89v-1.023h-1.024
					v1.023H17.888z M15.876,8.208v1.025h1.023V8.208H15.876z M19.969,12.304v1.026h1.024v-1.026h-1.022v-1.023h-1.023v1.023H19.969z
					 M17.923,10.258v1.023h1.024v-1.025h-1.023V9.233h-1.025v1.024H17.923z M28.159,16.399v-1.023h-1.023v1.023H28.159z
					 M7.703,28.687v-1.025H6.68v1.025h1.021v1.023h1.024v-1.023H7.703z M26.112,14.353v1.023h1.024v-1.025h-1.023V13.33h-1.023
					v1.023H26.112z M15.843,12.288v1.023h1.023v-1.025h-1.022v-1.021h-1.025v1.023H15.843z M13.796,10.239v1.026h1.023v-1.026
					H13.796z M22.011,26.639v-1.023h-1.024v1.025h1.023v1.021h1.023v-1.023H22.011z M24.063,16.399v-1.023H23.04v1.023H24.063z
					 M22.015,14.353v1.023h1.024v-1.025h-1.023V13.33h-1.023v1.023H22.015z M15.865,28.668v-1.023H14.84v1.025h1.023v1.021h1.024
					v-1.023H15.865z M22.006,30.734V29.71h-1.023v1.025h1.022v1.021h1.024v-1.023H22.006z M5.657,26.639v-1.023H4.632v1.025h1.023
					v1.021H6.68v-1.023H5.657z M17.915,26.639v-1.023H16.89v1.025h1.023v1.021h1.024v-1.023H17.915z M24.053,32.781v-1.024H23.03
					v1.024H24.053z M19.961,28.687v-1.025h-1.023v1.025h1.021v1.023h1.024v-1.023H19.961z M26.103,30.734V29.71H25.08v1.025h1.022
					v1.021h1.024v-1.023H26.103z M15.867,24.592v1.023h1.023v-1.023H15.867z M24.057,28.687v-1.025h-1.023v1.025h1.022v1.023h1.025
					v-1.023H24.057z M28.15,32.781v-1.024h-1.023v1.024H28.15z M13.817,26.622v1.024h1.023v-1.024H13.817z M15.859,32.767v1.021
					h1.024v-1.022H15.86v-1.024h-1.023v1.026H15.859z M13.815,30.718v-1.026h-1.023v1.026h1.021v1.023h1.024v-1.023H13.815z
					 M17.908,34.812v-1.024h-1.024v1.024H17.908z M10.771,32.781h1.023v-1.024h-1.023V32.781z M3.608,24.592v1.023h1.023v-1.023
					H3.608z M11.769,28.668v-1.023h-1.024v1.025h1.023v1.021h1.024v-1.023H11.769z M20.98,34.812h1.023v-1.024H20.98V34.812z
					 M19.957,32.765v-1.024h-1.023v1.026h1.022v1.021h1.024v-1.022H19.957z M17.912,30.718v-1.026h-1.023v1.026h1.021v1.023h1.024
					v-1.023H17.912z M9.721,26.622v1.024h1.023v-1.024H9.721z M58.812,26.622v1.024h1.023v-1.024H58.812z M24.054,32.781v1.026
					h1.023v-1.026H24.054z M9.748,34.828v-1.021H8.723v0.663c0.159,0.127,0.331,0.237,0.494,0.359h0.53v0.386
					c0.325,0.224,0.659,0.434,0.998,0.638h0.025v-1.025H9.748z M34.262,34.812v1.026h1.024v-1.026H34.262z M29.17,38.514h1.024
					v-0.612H29.17V38.514z M28.148,36.876v-1.023h-1.024v1.023h1.022v1.025h1.023v-1.025H28.148z M37.332,38.514h1.025v-0.63h-1.025
					V38.514z M22.004,34.812v1.026h1.023v-1.026H22.004z M36.31,36.859v-1.021h-1.024v1.022h1.023v1.023h1.023v-1.025H36.31z
					 M30.198,34.828v-1.021h-1.024v1.022h1.023v1.023h1.024v-1.025H30.198z M28.151,32.781v1.026h1.023v-1.026H28.151z
					 M32.245,36.876v-1.023h-1.024v1.023h1.022v1.025h1.023v-1.025H32.245z M33.267,38.514h1.024v-0.612h-1.024V38.514z
					 M15.891,36.876v-1.023h-1.025v1.023h1.023v1.025h1.023v-1.025H15.891z M24.052,36.859v-1.021h-1.024v1.022h1.023v1.023h1.023
					v-1.025H24.052z M11.796,32.781v1.026h1.024v-1.026H11.796z M7.7,32.781v0.789c0.087,0.081,0.179,0.158,0.268,0.237h0.755
					v-1.026H7.7z M16.912,38.19c0.337,0.062,0.681,0.107,1.024,0.151v-0.439h-1.024V38.19z M13.844,34.828v-1.021H12.82v1.022h1.023
					v1.023h1.023v-1.025H13.844z M25.075,38.514h1.024v-0.63h-1.024V38.514z M20.979,38.514h1.024v-0.63h-1.024V38.514z
					 M17.909,34.812v1.026h1.023v-1.026H17.909z M19.956,36.859v-1.021h-1.024v1.022h1.023v1.023h1.023v-1.025H19.956z
					 M26.102,34.828v-1.021h-1.024v1.022h1.023v1.023h1.023v-1.025H26.102z M60.86,28.668v-1.023h-1.024v1.025h1.023v1.021h1.024
					v-1.023H60.86z M57.814,38.514h1.024v-0.63h-1.024V38.514z M56.792,36.859v-1.021h-1.025v1.022h1.024v1.023h1.023v-1.025H56.792
					z M50.648,34.812v1.026h1.023v-1.026H50.648z M52.695,36.859v-1.021h-1.024v1.022h1.023v1.023h1.024v-1.025H52.695z
					 M61.907,38.514h1.024v-0.612h-1.024V38.514z M53.718,38.514h1.024v-0.63h-1.024V38.514z M58.839,34.828v-1.021h-1.024v1.022
					h1.023v1.023h1.023v-1.025H58.839z M56.792,32.781v1.026h1.023v-1.026H56.792z M41.428,38.514h1.024v-0.63h-1.024V38.514z
					 M60.886,36.876v-1.023h-1.024v1.023h1.022v1.025h1.023v-1.025H60.886z M44.534,36.876v-1.023H43.51v1.023h1.022v1.025h1.023
					v-1.025H44.534z M45.555,38.514h1.024v-0.612h-1.024V38.514z M40.406,36.859v-1.021h-1.024v1.022h1.023v1.023h1.023v-1.025
					H40.406z M42.487,34.828v-1.021h-1.024v1.022h1.023v1.023h1.024v-1.025H42.487z M44.536,32.781v1.026h1.023v-1.026H44.536z
					 M38.359,34.812v1.026h1.023v-1.026H38.359z M46.583,34.828v-1.021h-1.024v1.022h1.023v1.023h1.023v-1.025H46.583z
					 M40.439,32.781v1.026h1.023v-1.026H40.439z M48.629,36.876v-1.023h-1.024v1.023h1.022v1.025h1.024v-1.025H48.629z
					 M49.651,38.514h1.024v-0.612h-1.024V38.514z M54.744,34.812v1.026h1.023v-1.026H54.744z M51.657,2.455h-1.024v0.619h1.024
					V2.455z M52.68,4.099V5.12h1.023V4.097h-1.022V3.074h-1.023v1.025H52.68z M60.868,8.194v1.021h1.024V8.192h-1.023V7.168h-1.023
					v1.026H60.868z M54.725,6.146v1.022h1.024V6.146h-1.022V5.12h-1.023v1.026H54.725z M62.915,10.241V9.215h-1.022v1.025H62.915z
					 M47.592,2.455h-1.023v0.635h1.023V2.455z M50.661,6.164v1.021h1.023V6.162h-1.022V5.139h-1.024v1.025H50.661z M48.614,4.116
					v1.023h1.023V4.116h-1.021V3.089h-1.024v1.026H48.614z M58.821,6.146v1.022h1.024V6.146h-1.022V5.12H57.8v1.026H58.821z
					 M58.819,10.241V9.215h-1.023v1.025H58.819z M56.772,8.194v1.021h1.024V8.192h-1.023V7.168h-1.024v1.026H56.772z M64.969,4.116
					V3.089h-1.024v1.026h1.022v1.023h1.023V4.116H64.969z M59.847,2.455h-1.023v0.635h1.023V2.455z M65.99,5.139v1.025h0.941V5.139
					H65.99z M62.92,2.455v0.635h1.024V2.455H62.92z M24.065,12.304v1.026h1.024v-1.026h-1.022v-1.023h-1.023v1.023H24.065z
					 M62.916,6.164v1.021h1.023V6.162h-1.022V5.139h-1.024v1.025H62.916z M55.753,2.455h-1.024v0.619h1.024V2.455z M64.965,8.21
					V7.186h-1.025V8.21H64.965z M60.87,4.116v1.023h1.023V4.116h-1.021V3.089h-1.024v1.026H60.87z M56.775,4.099V5.12H57.8V4.097
					h-1.023V3.074h-1.023v1.025H56.775z M32.227,8.21V7.186h-1.023V8.21H32.227z M19.942,4.099V5.12h1.024V4.097h-1.023V3.074H18.92
					v1.025H19.942z M24.034,8.194v1.021h1.025V8.192h-1.024V7.168h-1.023v1.026H24.034z M21.988,6.146v1.022h1.024V6.146H21.99V5.12
					h-1.023v1.026H21.988z M18.92,2.525c-0.345,0.026-0.685,0.064-1.024,0.108v0.44h1.024V2.525z M10.77,35.868
					c0.337,0.201,0.674,0.402,1.024,0.583v-0.598H10.77V35.868z M15.875,5.139h1.024V4.116h-1.022V3.089h-0.31
					c-0.237,0.062-0.479,0.112-0.713,0.184v0.843h1.021V5.139z M17.923,6.164v1.021h1.023V6.162h-1.022V5.139h-1.025v1.025H17.923z
					 M26.082,10.241V9.215h-1.023v1.025H26.082z M52.708,8.21V7.186h-1.024V8.21H52.708z M30.179,6.164v1.021h1.025V6.162H30.18
					V5.139h-1.023v1.025H30.179z M19.971,8.21V7.186h-1.024V8.21H19.971z M48.612,8.21V7.186h-1.024V8.21H48.612z M46.564,6.164
					v1.021h1.023V6.162h-1.022V5.139h-1.024v1.025H46.564z M44.518,4.116v1.023h1.024V4.116H44.52V3.089h-1.024v1.026H44.518z
					 M43.496,2.455h-1.024v0.635h1.024V2.455z M31.208,2.455h-1.025v0.635h1.025V2.455z M32.229,4.116v1.023h1.024V4.116h-1.022
					V3.089h-1.023v1.026H32.229z M36.322,8.21V7.186H35.3V8.21H36.322z M27.111,2.455h-1.024v0.635h1.024V2.455z M28.133,4.116
					v1.023h1.024V4.116h-1.022V3.089h-1.023v1.026H28.133z M34.276,6.164v1.021H35.3V6.162h-1.023V5.139h-1.023v1.025H34.276z
					 M19.935,16.382v1.023h1.023V16.38h-1.022v-1.021h-1.024v1.023H19.935z M9.727,18.448v-1.023H8.702v1.025h1.023v1.021h1.023
					v-1.023H9.727z M13.819,22.543V21.52h-1.024v1.025h1.023v1.022h1.023v-1.024H13.819z M11.773,20.497v-1.025h-1.024v1.025h1.022
					v1.023h1.023v-1.023H11.773z M5.628,18.432v1.023h1.024v-1.023H5.628z M15.866,24.592v-1.025h-1.024v1.025H15.866z
					 M15.868,21.52h1.023v-1.023h-1.022v-1.025h-1.024v1.025h1.023V21.52z M7.677,20.478v-1.023H6.653v1.025h1.023v1.021h1.023
					v-1.023H7.677z M13.823,18.448v-1.023h-1.024v1.025h1.023v1.021h1.022v-1.023H13.823z M17.915,22.545v1.022h1.023v-1.024h-1.023
					V21.52h-1.024v1.025H17.915z M19.962,24.592v-1.025h-1.024v1.025H19.962z M7.679,16.401v1.024h1.023v-1.024H7.679z M3.579,20.48
					v1.021h1.025v-1.023H3.58v-1.023H2.556v1.025H3.579z M5.625,22.526v1.023h1.024v-1.023H5.626v-1.025H4.604v1.025H5.625z
					 M9.719,26.622v-1.025H8.695v1.025H9.719z M7.672,24.576v1.021h1.023v-1.023H7.673V23.55H6.649v1.026H7.672z M9.724,22.526
					v-1.025H8.699v1.025h1.022v1.023h1.023v-1.023H9.724z M7.649,9.215h1.024V8.192H7.65V7.45C7.395,7.69,7.152,7.94,6.911,8.194
					h0.738V9.215z M9.697,10.241V9.215H8.673v1.025H9.697z M12.792,26.622h1.025v-1.025h-1.025V26.622z M11.775,16.401v1.024h1.023
					v-1.024H11.775z M11.77,24.574V23.55h-1.024v1.026h1.023v1.021h1.023v-1.023H11.77z M2.556,18.432H2.119
					c-0.038,0.337-0.053,0.68-0.072,1.023h0.509V18.432z M26.112,18.448v-1.023h-1.024v1.025h1.023v1.021h1.023v-1.023H26.112z
					 M36.347,24.592v-1.025h-1.024v1.025H36.347z M30.204,22.543V21.52h-1.024v1.025h1.023v1.022h1.024v-1.024H30.204z
					 M24.064,16.401v1.024h1.023v-1.024H24.064z M26.074,26.622v-1.025h-1.025v1.025H26.074z M11.774,16.399v-1.023h-1.023v1.023
					H11.774z M34.299,22.545v1.022h1.023v-1.024H34.3V21.52h-1.024v1.025H34.299z M28.16,16.401v1.024h1.023v-1.024H28.16z
					 M42.458,26.622v-1.025h-1.024v1.025H42.458z M32.252,21.52h1.023v-1.023h-1.021v-1.025H31.23v1.025h1.022V21.52z
					 M30.208,18.448v-1.023h-1.024v1.025h1.023v1.021h1.023v-1.023H30.208z M28.158,20.497v-1.025h-1.024v1.025h1.022v1.023h1.023
					v-1.023H28.158z M32.25,24.592v-1.025h-1.024v1.025H32.25z M17.886,18.432v1.023h1.024v-1.023H17.886z M20.957,21.501v1.025
					h1.021v1.023h1.025v-1.023H21.98v-1.025H20.957z M24.025,24.576v1.021h1.024v-1.023h-1.023V23.55h-1.023v1.026H24.025z
					 M29.146,26.622h1.024v-1.025h-1.024V26.622z M19.934,20.478v-1.023h-1.023v1.025h1.022v1.021h1.024v-1.023H19.934z
					 M28.124,24.574V23.55h-1.025v1.026h1.023v1.021h1.023v-1.023H28.124z M24.031,20.478v-1.023h-1.024v1.025h1.023v1.021h1.023
					v-1.023H24.031z M21.983,18.432v1.023h1.024v-1.023H21.983z M26.078,22.526v-1.025h-1.025v1.025h1.023v1.023h1.022v-1.023
					H26.078z M2.118,22.543c0.039,0.346,0.1,0.685,0.158,1.024h0.307v-1.024H2.118z M38.341,6.146v1.022h1.023V6.146h-1.021V5.12
					h-1.024v1.026H38.341z M36.295,4.099V5.12h1.024V4.097h-1.023V3.074h-1.024v1.025H36.295z M35.271,2.455h-1.023v0.619h1.023
					V2.455z M30.178,10.241V9.215h-1.023v1.025H30.178z M28.131,8.194v1.021h1.024V8.192h-1.023V7.168h-1.024v1.026H28.131z
					 M40.387,8.194v1.021h1.023V8.192h-1.022V7.168h-1.024v1.026H40.387z M39.368,2.455h-1.023v0.619h1.023V2.455z M26.084,6.146
					v1.022h1.024V6.146h-1.022V5.12h-1.023v1.026H26.084z M40.392,4.099V5.12h1.023V4.097h-1.022V3.074h-1.024v1.025H40.392z
					 M42.435,10.241V9.215h-1.024v1.025H42.435z M12.803,4.116h-0.142c-0.296,0.134-0.594,0.264-0.882,0.413v0.61h1.024V4.116z
					 M60.888,32.781v1.026h1.023v-1.026H60.888z M62.936,34.828v-1.021h-1.025v1.022h1.024v1.023h1.023v-1.025H62.936z
					 M66.004,38.514h0.928v-0.612h-0.928V38.514z M64.982,36.876v-1.023h-1.024v1.023h1.022v1.025h1.023v-1.025H64.982z
					 M24.038,4.099V5.12h1.025V4.097h-1.024V3.074h-1.023v1.025H24.038z M12.816,36.928v-0.052h-0.111
					C12.742,36.893,12.778,36.912,12.816,36.928z M23.016,2.455h-1.024v0.619h1.024V2.455z M42.437,6.146v1.022h1.024V6.146h-1.022
					V5.12h-1.024v1.026H42.437z M15.873,8.21V7.186H14.85V8.21H15.873z M13.826,6.164v1.021h1.024V6.162h-1.023V5.139h-1.023v1.025
					H13.826z M60.897,16.401v1.024h1.023v-1.024H60.897z M4.608,12.304H3.985c-0.139,0.27-0.276,0.542-0.402,0.819v0.207h1.025
					V12.304z M3.581,17.406h1.024V16.38H3.582v-1.021H2.749c-0.072,0.241-0.129,0.488-0.191,0.734v0.289h1.023V17.406z M5.628,18.43
					v-1.024H4.604v1.024H5.628z M3.606,27.905v-0.244h-0.12C3.523,27.745,3.569,27.823,3.606,27.905z M40.413,24.574V23.55h-1.025
					v1.026h1.023v1.021h1.024v-1.023H40.413z M2.583,24.592h1.024v-1.025H2.583V24.592z M7.68,12.304v1.026h1.024v-1.026H7.682
					v-1.023H6.658v1.023H7.68z M9.727,14.353v1.023h1.024v-1.025H9.728V13.33H8.704v1.023H9.727z M7.678,16.399v-1.023H6.655v1.023
					H7.678z M5.63,14.353v1.023h1.024v-1.025H5.631V13.33H4.608v1.023H5.63z M22.019,10.258v1.023h1.024v-1.025H22.02V9.233h-1.023
					v1.024H22.019z M62.945,18.448v-1.023h-1.024v1.025h1.023v1.021h1.023v-1.023H62.945z M66.013,22.545h0.919V21.52h-0.919V22.545
					z M5.634,11.281h1.024v-1.025H5.635v-0.56c-0.143,0.188-0.294,0.368-0.429,0.562h0.428V11.281z M44.484,8.194v1.021h1.023V8.192
					h-1.022V7.168h-1.024v1.026H44.484z M6.676,32.531c0.077,0.084,0.155,0.167,0.233,0.25h0.79v-1.024H6.676V32.531z
					 M64.992,20.497v-1.025h-1.024v1.025h1.022v1.023h1.022v-1.023H64.992z M3.99,28.687c0.181,0.349,0.373,0.688,0.576,1.023h0.063
					v-1.023H3.99z M5.652,30.734V29.71H4.629v0.102c0.191,0.312,0.378,0.625,0.588,0.924h0.434v0.567
					c0.116,0.152,0.227,0.306,0.348,0.454h0.677v-1.023H5.652z M64.989,24.592v1.023h1.022v-1.023H64.989z M66.012,26.641h0.92
					v-1.025h-0.92V26.641z M46.531,10.241V9.215h-1.024v1.025H46.531z M50.626,14.334v1.025h1.023v-1.025h-1.021v-1.023h-1.023
					v1.023H50.626z M52.672,16.382v1.023h1.023V16.38h-1.022v-1.021h-1.024v1.023H52.672z M64.963,16.38v-1.021h-1.024v1.023h1.023
					v1.023h1.023V16.38H64.963z M48.58,12.288v1.023h1.024v-1.025h-1.023v-1.021h-1.023v1.023H48.58z M54.72,18.43v-1.024h-1.024
					v1.024H54.72z M48.576,16.382v1.023H49.6V16.38h-1.023v-1.021h-1.023v1.023H48.576z M38.366,22.526v-1.025h-1.023v1.025h1.021
					v1.023h1.024v-1.023H38.366z M46.529,14.334v1.025h1.024v-1.025h-1.022v-1.023h-1.023v1.023H46.529z M56.801,16.399v-1.023
					h-1.024v1.023H56.801z M44.484,12.288v1.023h1.024v-1.025h-1.023v-1.021h-1.023v1.023H44.484z M50.661,10.258v1.023h1.024
					v-1.025h-1.023V9.233h-1.023v1.024H50.661z M57.827,13.33v1.023h1.022v1.023h1.024v-1.025H58.85V13.33H57.827z M54.758,10.256
					V9.233h-1.023v1.024h1.022v1.023h1.024v-1.025H54.758z M56.805,12.304v-1.023h-1.024v1.023h1.022v1.026h1.024v-1.026H56.805z
					 M65.985,18.43h0.946v-1.024h-0.946V18.43z M52.71,8.208v1.025h1.024V8.208H52.71z M52.706,12.304v1.026h1.024v-1.026h-1.022
					v-1.023h-1.023v1.023H52.706z M50.624,18.43v-1.024H49.6v1.024H50.624z M54.752,14.353v1.023h1.024v-1.025h-1.023V13.33H53.73
					v1.023H54.752z M48.614,8.208v1.025h1.025V8.208H48.614z M60.896,16.399v-1.023h-1.023v1.023H60.896z M46.533,10.239v1.026
					h1.024v-1.026H46.533z M26.085,10.239v1.026h1.023v-1.026H26.085z M36.326,8.208v1.025h1.024V8.208H36.326z M32.228,12.288
					v1.023h1.023v-1.025h-1.022v-1.021h-1.024v1.023H32.228z M34.273,14.334v1.025h1.023v-1.025h-1.021v-1.023h-1.025v1.023H34.273z
					 M28.132,12.288v1.023h1.023v-1.025h-1.022v-1.021h-1.025v1.023H28.132z M36.319,16.382v1.023h1.024V16.38H36.32v-1.021h-1.023
					v1.023H36.319z M30.177,14.334v1.025h1.024v-1.025h-1.022v-1.023h-1.024v1.023H30.177z M34.271,18.43v-1.024h-1.024v1.024
					H34.271z M19.973,8.208v1.025h1.024V8.208H19.973z M32.224,16.382v1.023h1.023V16.38h-1.022v-1.021h-1.023v1.023H32.224z
					 M38.368,18.43v-1.024h-1.024v1.024H38.368z M32.23,8.208v1.025h1.023V8.208H32.23z M44.513,16.399v-1.023h-1.024v1.023H44.513z
					 M42.464,14.353v1.023h1.024v-1.025h-1.023V13.33h-1.024v1.023H42.464z M40.419,12.304v1.026h1.022v-1.026h-1.021v-1.023h-1.025
					v1.023H40.419z M38.373,10.258v1.023h1.022v-1.025h-1.021V9.233H37.35v1.024H38.373z M38.369,14.353v1.023h1.022v-1.025H38.37
					V13.33h-1.024v1.023H38.369z M30.181,10.239v1.026h1.024v-1.026H30.181z M40.417,16.399v-1.023h-1.025v1.023H40.417z
					 M34.277,10.258v1.023H35.3v-1.025h-1.022V9.233h-1.024v1.024H34.277z M36.321,12.304v1.026h1.024v-1.026h-1.022v-1.023H35.3
					v1.023H36.321z M42.437,10.239v1.026h1.025v-1.026H42.437z M48.606,20.497v-1.025h-1.023v1.025h1.021v1.023h1.024v-1.023H48.606
					z M42.463,18.448v-1.023H41.44v1.025h1.022v1.021h1.025v-1.023H42.463z M46.56,18.448v-1.023h-1.023v1.025h1.022v1.021h1.024
					v-1.023H46.56z M52.699,24.592v-1.025h-1.024v1.025H52.699z M40.417,16.401v1.024h1.024v-1.024H40.417z M50.653,22.543V21.52
					h-1.024v1.025h1.023v1.022h1.023v-1.024H50.653z M56.765,24.574V23.55H55.74v1.026h1.023v1.021h1.023v-1.023H56.765z
					 M54.718,22.526v-1.025h-1.023v1.025h1.021v1.023h1.024v-1.023H54.718z M57.787,26.622h1.024v-1.025h-1.024V26.622z
					 M44.513,16.401v1.024h1.024v-1.024H44.513z M36.318,20.478v-1.023h-1.022v1.025h1.021v1.021h1.025v-1.023H36.318z
					 M44.508,24.576v1.021h1.023v-1.023h-1.022V23.55h-1.025v1.026H44.508z M46.555,26.622v-1.025h-1.024v1.025H46.555z
					 M34.271,18.432v1.023h1.024v-1.023H34.271z M62.916,14.334v-1.023h-1.023v1.023h1.022v1.025h1.024v-1.025H62.916z
					 M42.46,22.526v1.023h1.023v-1.023h-1.021v-1.025h-1.024v1.025H42.46z M48.603,24.592v-1.025H47.58v1.025H48.603z
					 M46.556,22.543V21.52h-1.023v1.025h1.022v1.022h1.025v-1.024H46.556z M44.511,20.497v-1.025h-1.023v1.025h1.021v1.023h1.024
					v-1.023H44.511z M39.392,19.455v1.025h1.024v1.021h1.023v-1.023h-1.022v-1.023H39.392z M38.368,18.432v1.023h1.023v-1.023
					H38.368z M52.671,20.478v-1.023h-1.023v1.025h1.022v1.021h1.024v-1.023H52.671z M62.918,10.239v1.026h1.024v-1.026H62.918z
					 M64.967,8.208v1.025h1.024V8.208H64.967z M65.991,10.258h0.94V9.233h-0.94V10.258z M56.802,16.401v1.024h1.023v-1.024H56.802z
					 M64.988,24.592v-1.025h-1.024v1.025H64.988z M62.94,22.545v1.022h1.023v-1.024h-1.022V21.52h-1.024v1.025H62.94z
					 M64.967,12.286v-1.021h-1.024v1.023h1.023v1.023h1.023v-1.025H64.967z M58.822,10.239v1.026h1.023v-1.026H58.822z
					 M60.87,12.286v-1.021h-1.024v1.023h1.023v1.023h1.023v-1.025H60.87z M65.989,14.334h0.942v-1.023h-0.942V14.334z
					 M62.909,26.622v1.024h1.024v-1.024H62.909z M54.72,18.432v1.023h1.024v-1.023H54.72z M56.769,20.478v-1.023h-1.025v1.025h1.024
					v1.021h1.023v-1.023H56.769z M58.815,22.526v-1.025h-1.024v1.025h1.022v1.023h1.023v-1.023H58.815z M58.849,18.448v-1.023
					h-1.024v1.025h1.023v1.021h1.023v-1.023H58.849z M62.907,26.622v-1.025h-1.024v1.025H62.907z M60.861,24.574V23.55h-1.024v1.026
					h1.023v1.021h1.023v-1.023H60.861z M65.98,30.718h0.951v-1.026H65.98V30.718z M64.957,28.668v-1.023h-1.024v1.025h1.023v1.021
					h1.024v-1.023H64.957z M60.896,20.497v-1.025h-1.024v1.025h1.022v1.023h1.023v-1.023H60.896z M50.624,18.432v1.023h1.024v-1.023
					H50.624z"/>
			</g>
		</g>
		<g id="Shape_1_1_">
			<g>
				<rect x="29.729" y="18.487" fill-rule="evenodd" clip-rule="evenodd" width="11.999" height="4"/>
			</g>
		</g>
	</g>
</switch>
</svg>
