<?xml version="1.0" encoding="utf-8"?>
<!-- Generator: Adobe Illustrator 15.0.2, SVG Export Plug-In . SVG Version: 6.00 Build 0)  -->
<!DOCTYPE svg PUBLIC "-//W3C//DTD SVG 1.1//EN" "http://www.w3.org/Graphics/SVG/1.1/DTD/svg11.dtd">
<svg version="1.1" id="Layer_2" xmlns="http://www.w3.org/2000/svg" xmlns:xlink="http://www.w3.org/1999/xlink" x="0px" y="0px"
	 width="800px" height="600px" viewBox="0 0 800 600" enable-background="new 0 0 800 600" xml:space="preserve">
<g>
	<path fill-rule="evenodd" clip-rule="evenodd" fill="#D93D3D" d="M354.953,318.76c-9.924,0-17.998-8.074-17.998-17.998
		s8.074-17.997,17.998-17.997h91.988c9.924,0,17.998,8.073,17.998,17.997s-8.074,17.998-17.998,17.998H354.953z"/>
	<path fill="#333333" d="M446.941,283.765c9.373,0,16.998,7.625,16.998,16.997c0,9.373-7.625,16.998-16.998,16.998h-91.988
		c-9.373,0-16.998-7.625-16.998-16.998c0-9.372,7.625-16.997,16.998-16.997H446.941 M446.941,281.765h-91.988
		c-10.492,0-18.998,8.505-18.998,18.997s8.506,18.998,18.998,18.998h91.988c10.492,0,18.998-8.506,18.998-18.998
		S457.434,281.765,446.941,281.765L446.941,281.765z"/>
</g>
<g>
	<g>
		<path d="M340.926,304.746v1h1v-1H340.926z M338.891,310.732v-1.002h-0.685c0.185,0.344,0.394,0.671,0.598,1.002h0.085v0.14
			c0.184,0.292,0.372,0.58,0.571,0.86h0.43v-1H338.891z M348.926,312.75v-1.002h-1v1.002H348.926z M336.923,304.746v1h1v-1H336.923z
			 M344.927,308.748v-1.002h-1v1.002h0.998v1h1.001v-1H344.927z M342.927,306.746v-1h-1.001v1.002h1v0.998h1.001v-1H342.927z
			 M344.923,312.75v-1.002h-1v1.002H344.923z M341.89,314.532c0.073,0.069,0.149,0.135,0.223,0.202h0.777v-1.002h-1V314.532z
			 M338.923,306.748v0.998h1.001v-1h-1v-1h-1.001v1.002H338.923z M340.922,308.748v1h1.001v-1h-0.999v-1.002h-1v1.002H340.922z
			 M420.896,292.738v1.002h1v-1.002h-0.998v-1h-1v1H420.896z M346.926,310.748v-1h-1v1.002h0.999v0.998h1.001v-1H346.926z
			 M358.905,310.748v-1h-1v1.002h0.999v0.998h1.001v-1H358.905z M352.903,308.73v-1h-1.001v1.002h1v0.998h1.001v-1H352.903z
			 M350.902,306.73v1h1v-1H350.902z M354.899,314.734v-1.002h-1v1.002H354.899z M360.905,312.75v-1.002h-1v1.002H360.905z
			 M356.902,312.732v-1h-1v1.002h0.999v0.998h1.001v-1H356.902z M350.9,310.732v-1.002h-1v1.002h0.998v1h1.001v-1H350.9z
			 M358.902,314.734v-1.002h-1v1.002H358.902z M352.899,312.732v-1h-1v1.002h0.999v0.998h1.001v-1H352.899z M348.9,308.73v-1h-1.001
			v1.002h1v0.998h1.001v-1H348.9z M346.899,306.73v1h1v-1H346.899z M354.903,310.732v-1.002h-1v1.002h0.998v1h1.001v-1H354.903z
			 M354.878,298.724v-1h-1.001v1H354.878z M352.877,296.724v1h1v-1.002h-0.999v-0.998h-1.001v1H352.877z M342.875,287.72h1.001v-1
			h-0.999v-0.624c-0.239,0.197-0.458,0.415-0.688,0.624h0.686V287.72z M342.902,294.74v1h1.001v-1.002h-1v-0.998h-1v1H342.902z
			 M344.875,288.722v0.998h1.001v-1h-1v-1h-1v1.002H344.875z M346.875,290.722v-1.002h-1v1.002H346.875z M356.88,296.724v1h1v-1.002
			h-0.999v-0.998h-1.001v1H356.88z M358.881,298.724v-1h-1.001v1H358.881z M349.878,293.722v-1.002h-0.999v-0.998h-1.001v1h1v1
			H349.878z M346.878,290.72v1.002h1v-1.002H346.878z M350.877,294.722v1.002h1v-1.002h-0.998v-1h-1.001v1H350.877z
			 M338.903,291.738h1.001v-1.002h-1v-0.109c-0.023,0.037-0.044,0.074-0.067,0.111h0.066V291.738z M346.898,306.73v-1.002h-1.001
			v1.002H346.898z M344.897,304.73v0.998h1v-1h-0.999v-1h-1.001v1.002H344.897z M336.924,300.744v1h1v-1H336.924z M344.903,296.74
			v-1h-1v1H344.903z M338.925,302.744v-1h-1.001v1.002h1v0.998h1v-1H338.925z M340.925,304.746v-1.002h-1.001v1.002H340.925z
			 M342.896,302.729v1h1.001v-1h-0.999v-1.002h-1v1.002H342.896z M340.902,292.738v1.002h1.001v-1.002h-0.999v-1h-1v1H340.902z
			 M340.89,312.732v-1h-1v0.574c0.108,0.142,0.208,0.29,0.32,0.428h0.679v0.768c0.07,0.077,0.139,0.154,0.209,0.23h0.792v-1H340.89z
			 M341.898,300.726h-1v-1h-1v1.002h0.999v0.999h1.001V300.726z M338.897,298.726v1h1.001v-1H338.897z M380.893,308.73v-1h-1.001
			v1.002h1v0.998h1.001v-1H380.893z M382.893,310.732v-1.002h-1v1.002h0.998v1h1.001v-1H382.893z M384.892,312.732v-1h-1v1.002
			h0.999v0.998h1.001v-1H384.892z M354.88,294.722v1.002h1v-1.002h-0.998v-1h-1.001v1H354.88z M378.892,306.73v1h1v-1H378.892z
			 M390.895,314.734v-1.002h-1v1.002H390.895z M378.919,310.748v-1h-1v1.002h0.999v0.998h1.001v-1H378.919z M388.895,312.732v-1h-1
			v1.002h0.999v0.998h1.001v-1H388.895z M386.892,314.734v-1.002h-1v1.002H386.892z M376.92,308.748v-1.002h-1v1.002h0.998v1h1.001
			v-1H376.92z M374.92,306.746v-1h-1.001v1.002h1v0.998h1.001v-1H374.92z M372.919,304.746v1h1v-1H372.919z M396.899,312.75v-1.002
			h-1v1.002H396.899z M384.896,304.746v1h1.001v-1H384.896z M356.906,308.748v-1.002h-1v1.002h0.998v1h1.001v-1H356.906z
			 M392.9,308.748v-1.002h-1v1.002h0.998v1h1.001v-1H392.9z M394.899,310.748v-1h-1v1.002h0.999v0.998h1.001v-1H394.899z
			 M386.897,306.746v-1h-1v1.002h0.999v0.998h1.001v-1H386.897z M390.896,310.748v-1h-1v1.002h0.999v0.998h1.001v-1H390.896z
			 M388.897,308.748v-1.002h-1v1.002h0.998v1h1.001v-1H388.897z M384.896,308.73v-1h-1.001v1.002h1v0.998h1.001v-1H384.896z
			 M382.895,306.73v1h1v-1H382.895z M392.896,312.75v-1.002h-1v1.002H392.896z M386.896,310.732v-1.002h-1v1.002h0.998v1h1.001v-1
			H386.896z M380.919,312.75v-1.002h-1v1.002H380.919z M370.88,314.734v-1.002h-1v1.002H370.88z M356.908,304.746v1h1v-1H356.908z
			 M358.909,306.746v-1h-1.001v1.002h1v0.998h1.001v-1H358.909z M366.881,310.732v-1.002h-1v1.002h0.998v1h1.001v-1H366.881z
			 M368.88,312.732v-1h-1v1.002h0.999v0.998h1.001v-1H368.88z M360.909,308.748v-1.002h-1v1.002h0.998v1h1.001v-1H360.909z
			 M352.905,304.746v1h1v-1H352.905z M354.906,306.746v-1h-1.001v1.002h1v0.998h1.001v-1H354.906z M364.881,308.73v-1h-1.001v1.002
			h1v0.998h1.001v-1H364.881z M368.917,304.746v1h1v-1H368.917z M364.908,312.75v-1.002h-1v1.002H364.908z M362.908,310.748v-1h-1
			v1.002h0.999v0.998h1.001v-1H362.908z M366.883,306.73v1h1v-1H366.883z M376.917,312.75v-1.002h-1v1.002H376.917z
			 M374.917,310.748v-1h-1v1.002h0.999v0.998h1.001v-1H374.917z M370.917,306.746v-1h-1.001v1.002h1v0.998h1.001v-1H370.917z
			 M372.917,308.748v-1.002h-1v1.002h0.998v1h1.001v-1H372.917z M370.884,310.732v-1.002h-1v1.002h0.998v1h1.001v-1H370.884z
			 M368.884,308.73v-1h-1.001v1.002h1v0.998h1.001v-1H368.884z M372.883,312.732v-1h-1v1.002h0.999v0.998h1.001v-1H372.883z
			 M374.883,314.734v-1.002h-1v1.002H374.883z M362.88,306.73v1h1v-1H362.88z M408.861,284.72v0.998h1v-1h-1v-1h-1v1.002H408.861z
			 M400.88,296.724v1h1v-1.002h-1v-0.998h-1.001v1H400.88z M394.881,290.72v1.002h1v-1.002H394.881z M402.881,298.724v-1h-1v1
			H402.881z M390.881,282.718v1h1.001v-1H390.881z M392.881,284.72v0.998h1.001v-1h-1v-1h-1v1.002H392.881z M394.88,286.72v1h1.001
			v-1h-0.999v-1.002h-1v1.002H394.88z M400.884,292.722v1h1v-1.002h-1v-0.998h-1.001v1H400.884z M398.884,290.72v1.002h1v-1.002
			H398.884z M396.881,292.722v1h1v-1.002h-0.999v-0.998h-1.001v1H396.881z M406.885,298.724v-1h-1.002v1H406.885z M398.88,294.722
			v1.002h1v-1.002h-0.998v-1h-1.001v1H398.88z M402.883,294.722v1.002h1v-1.002h-0.998v-1h-1v1H402.883z M386.906,290.738v1h1.001
			v-1.002h-1v-0.998h-1v1H386.906z M384.906,288.736v1.002h1.001v-1.002H384.906z M396.88,288.722v0.998h1.001v-1h-1v-1h-1v1.002
			H396.88z M390.905,294.74v1h1.001v-1.002h-1v-0.998h-1v1H390.905z M386.878,282.718v1h1.001v-1H386.878z M388.905,292.738v1.002
			h1.001v-1.002h-0.999v-1h-1v1H388.905z M398.881,290.722v-1.002h-1v1.002H398.881z M388.878,284.72v0.998h1.001v-1h-1v-1h-1v1.002
			H388.878z M394.878,290.722v-1.002h-1v1.002H394.878z M390.877,286.72v1h1.001v-1h-0.999v-1.002h-1v1.002H390.877z
			 M392.877,288.722v0.998h1.001v-1h-1v-1h-1v1.002H392.877z M414.861,290.722v-1.002h-1v1.002H414.861z M422.863,298.724v-1h-1v1
			H422.863z M406.861,282.718v1h1v-1H406.861z M420.863,296.724v1h1v-1.002h-1v-0.998h-1v1H420.863z M390.9,306.746v-1h-1.001v1.002
			h1v0.998h1.001v-1H390.9z M410.859,286.72v1h1.002v-1h-1v-1.002h-1v1.002H410.859z M412.859,288.722v0.998h1.002v-1h-1v-1h-1
			v1.002H412.859z M424.896,296.74v-1h-1v1H424.896z M422.896,294.74v1h1v-1.002h-1v-0.998h-1v1H422.896z M414.863,290.72v1.002h1
			v-1.002H414.863z M408.885,296.74v-1h-1v1H408.885z M416.863,292.722v1h1v-1.002h-0.998v-0.998h-1.002v1H416.863z
			 M418.863,294.722v1.002h1v-1.002h-0.998v-1h-1.002v1H418.863z M400.885,288.736v1.002h1.001v-1.002H400.885z M402.857,282.718v1
			h1.002v-1H402.857z M402.885,290.738v1h1.002v-1.002h-1v-0.998h-1v1H402.885z M404.885,292.738v1.002h1v-1.002h-0.998v-1h-1v1
			H404.885z M406.885,294.74v1h1v-1.002h-1v-0.998h-1v1H406.885z M392.906,296.74v-1h-1v1H392.906z M410.857,290.722v-1.002h-1
			v1.002H410.857z M406.857,286.72v1h1v-1h-0.998v-1.002h-1v1.002H406.857z M404.857,284.72v0.998h1.002v-1h-1v-1h-1v1.002H404.857z
			 M408.857,288.722v0.998h1v-1h-1v-1h-1v1.002H408.857z M358.89,282.718v1h1.001v-1H358.89z M362.889,286.72v1h1.001v-1h-0.999
			v-1.002h-1v1.002H362.889z M364.889,288.722v0.998h1.001v-1h-1v-1h-1v1.002H364.889z M360.89,284.72v0.998h1.001v-1h-1v-1h-1
			v1.002H360.89z M366.89,290.722v-1.002h-1v1.002H366.89z M370.89,298.724v-1h-1.001v1H370.89z M362.89,290.72v1.002h1v-1.002
			H362.89z M374.893,298.724v-1h-1.001v1H374.893z M366.889,294.722v1.002h1v-1.002h-0.998v-1h-1.001v1H366.889z M364.89,292.722v1
			h1v-1.002h-0.999v-0.998h-1.001v1H364.89z M352.881,292.722v1h1v-1.002h-0.999v-0.998h-1.001v1H352.881z M368.889,296.724v1h1
			v-1.002h-0.999v-0.998h-1.001v1H368.889z M372.892,296.724v1h1v-1.002h-0.999v-0.998h-1.001v1H372.892z M356.914,292.738v1.002
			h1.001v-1.002h-0.999v-1h-1v1H356.914z M358.914,294.74v1h1.001v-1.002h-1v-0.998h-1v1H358.914z M360.915,296.74v-1h-1v1H360.915z
			 M354.915,290.738v1h1.001v-1.002h-1v-0.998h-1.001v1H354.915z M356.917,288.736v1.002h1.001v-1.002H356.917z M350.881,290.72
			v1.002h1v-1.002H350.881z M358.917,290.738v1h1.001v-1.002h-1v-0.998h-1v1H358.917z M360.917,292.738v1.002h1.001v-1.002h-0.999
			v-1h-1v1H360.917z M362.917,294.74v1h1.001v-1.002h-1v-0.998h-1v1H362.917z M352.915,288.736v1.002h1v-1.002H352.915z
			 M364.917,296.74v-1h-1v1H364.917z M371.868,282.718h-1v1h1V282.718z M378.87,286.72v1h1v-1h-0.998v-1.002h-1.001v1.002H378.87z
			 M380.87,288.722v0.998h1v-1h-0.999v-1h-1.001v1.002H380.87z M372.868,284.72v0.998h1v-1h-0.999v-1h-1.001v1.002H372.868z
			 M376.871,284.72v0.998h1v-1h-0.999v-1h-1.001v1.002H376.871z M382.871,290.722v-1.002h-1.001v1.002H382.871z M374.867,286.72v1h1
			v-1h-0.998v-1.002h-1.001v1.002H374.867z M384.873,292.722v1h1.001v-1.002h-1v-0.998h-1v1H384.873z M386.872,294.722v1.002h1
			v-1.002h-0.998v-1h-1v1H386.872z M388.872,296.724v1h1v-1.002h-0.999v-0.998h-1.001v1H388.872z M375.871,282.718h-1v1h1V282.718z
			 M390.873,298.724v-1h-1.001v1H390.873z M378.868,290.722v-1.002h-1.001v1.002H378.868z M376.867,288.722v0.998h1v-1h-0.999v-1
			h-1.001v1.002H376.867z M374.894,294.74v1h1v-1.002h-0.999v-0.998h-1.001v1H374.894z M372.894,292.738v1.002h1v-1.002h-0.998v-1
			h-1.001v1H372.894z M368.893,292.722v1h1v-1.002h-0.999v-0.998h-1.001v1H368.893z M366.893,290.72v1.002h1v-1.002H366.893z
			 M376.895,296.74v-1h-1.001v1H376.895z M370.895,290.738v1h1v-1.002h-0.999v-0.998h-1.001v1H370.895z M382.873,290.72v1.002h1.001
			v-1.002H382.873z M370.892,294.722v1.002h1v-1.002h-0.998v-1h-1.001v1H370.892z M368.895,288.736v1.002h1v-1.002H368.895z
			 M342.922,310.75v0.998h1.001v-1h-1v-1h-1v1.002H342.922z M400.885,284.736v1h1v-1h-0.998v-1.002h-1.001v1.002H400.885z
			 M398.882,286.738v0.998h1v-1h-0.999v-1h-1.001v1.002H398.882z M404.887,288.738v-1.002h-1.002v1.002H404.887z M394.883,283.734h1
			v-1h-0.999v-0.969h-1.001v0.971h1V283.734z M396.882,284.736v1h1v-1h-0.998v-1.002h-1.001v1.002H396.882z M402.885,286.738v0.998
			h1v-1h-0.998v-1h-1.002v1.002H402.885z M416.895,288.738v-1.002h-1v1.002H416.895z M414.893,286.738v0.998h1.002v-1h-1v-1h-1
			v1.002H414.893z M398.886,283.734h1v-1h-0.999v-0.969h-1.001v0.971h1V283.734z M402.857,281.765h-1v0.952h1V281.765z
			 M406.861,281.765h-1.002v0.952h1.002V281.765z M378.904,283.734h1v-1h-0.999v-0.969h-1.001v0.971h1V283.734z M412.893,284.736v1
			h1.002v-1h-1v-1.002h-1v1.002H412.893z M400.883,288.738v-1.002h-1.001v1.002H400.883z M388.907,288.738v-1.002h-1.001v1.002
			H388.907z M384.904,288.738v-1.002h-1.001v1.002H384.904z M382.903,286.738v0.998h1v-1h-0.999v-1h-1.001v1.002H382.903z
			 M380.903,284.736v1h1v-1h-0.998v-1.002h-1.001v1.002H380.903z M390.881,281.765h-1.001v0.952h1.001V281.765z M386.878,281.765
			h-1.001v0.952h1.001V281.765z M386.906,286.738v0.998h1v-1h-0.999v-1h-1.001v1.002H386.906z M374.87,281.765h-1v0.952h1V281.765z
			 M382.907,283.734h1v-1h-0.999v-0.969h-1.001v0.971h1V283.734z M384.906,284.736v1h1v-1h-0.998v-1.002h-1.001v1.002H384.906z
			 M448.887,288.738v-1.002h-1v1.002H448.887z M438.854,281.765h-1v0.952h1V281.765z M434.852,281.765h-1.002v0.952h1.002V281.765z
			 M432.879,284.736v1h1v-1h-0.998v-1.002h-1.002v1.002H432.879z M410.895,283.734h1v-1h-1v-0.969h-1v0.971h1V283.734z
			 M430.879,283.734h1v-1h-0.998v-0.969h-1.002v0.971h1V283.734z M446.887,286.738v0.998h1v-1h-1v-1h-1v1.002H446.887z
			 M388.899,304.746v1h1v-1H388.899z M450.891,286.738v0.998h1v-1h-1v-1h-1v1.002H450.891z M444.887,284.736v1h1v-1h-0.998v-1.002
			h-1v1.002H444.887z M442.887,283.734h1.002v-1h-1v-0.969h-1v0.971h0.998V283.734z M434.879,286.738v0.998h1v-1h-1v-1h-1v1.002
			H434.879z M416.896,284.736v1h1v-1h-0.998v-1.002h-1v1.002H416.896z M414.896,283.734h1.002v-1h-1v-0.969h-1v0.971h0.998V283.734z
			 M420.898,288.738v-1.002h-1.002v1.002H420.898z M418.896,286.738v0.998h1v-1h-0.998v-1h-1.002v1.002H418.896z M418.869,281.765
			h-1v0.952h1V281.765z M426.877,283.734h1v-1h-1v-0.969h-1v0.971h1V283.734z M436.879,288.738v-1.002h-1v1.002H436.879z
			 M428.875,284.736v1h1v-1h-0.998v-1.002h-1v1.002H428.875z M432.877,288.738v-1.002h-1.002v1.002H432.877z M422.873,281.765
			h-1.002v0.952h1.002V281.765z M430.875,286.738v0.998h1v-1h-0.998v-1h-1.002v1.002H430.875z M372.895,288.738v-1.002h-1v1.002
			H372.895z M448.904,316.752v-1h-1.002v1h1v1.002h1v-1.002H448.904z M446.904,314.75v-0.998h-1.002v1h1v1h1v-1.002H446.904z
			 M450.902,317.754h-1v1h1v0.586c0.339-0.072,0.668-0.168,1-0.257v-0.331h-1V317.754z M444.902,312.75v1.002h1v-1.002H444.902z
			 M443.902,311.748v1.002h1v-1.002H443.902z M444.9,316.752v-1h-1v1h0.998v1.002h1v-1.002H444.9z M446.9,317.754h-1.002v1h1v1
			h0.159c0.283-0.002,0.561-0.028,0.841-0.043v-0.959H446.9V317.754z M440.9,312.75v1.002h1v-1.002H440.9z M344.924,312.75v1.002h1
			v-1.002H344.924z M442.902,310.748v-1h-1v1.002h0.998v0.998h1.002v-1H442.902z M442.9,314.75v-0.998h-1v1h1v1h1v-1.002H442.9z
			 M436.902,304.746v1h1v-1H436.902z M448.875,312.732v-1h-1v1.002h0.998v0.998h1.002v-1H448.875z M446.875,310.732v-1.002h-1v1.002
			h0.998v1h1.002v-1H446.875z M442.875,306.73v1h1v-1H442.875z M444.875,308.73v-1h-1v1.002h1v0.998h1v-1H444.875z M449.875,313.732
			v1.002h1v-1.002H449.875z M452.877,316.734v-0.998h-1.002v1h1v1h1v-1.002H452.877z M438.902,306.746v-1h-1v1.002h1v0.998h1v-1
			H438.902z M346.925,314.75v-0.998h-1.001v1h1v1h1v-1.002H346.925z M440.902,308.748v-1.002h-1v1.002h0.998v1h1.002v-1H440.902z
			 M453.875,318.436c0.34-0.133,0.672-0.277,1.002-0.43v-0.27h-1.002V318.436z M450.875,314.734v1.002h1v-1.002H450.875z
			 M358.89,281.765h-1.001v0.952h1.001V281.765z M364.891,284.736v1h1.001v-1h-0.999v-1.002h-1v1.002H364.891z M366.891,286.738
			v0.998h1.001v-1h-1v-1h-1v1.002H366.891z M368.892,288.738v-1.002h-1v1.002H368.892z M354.887,281.768
			c-0.337,0.001-0.667,0.032-1.001,0.05v0.898h1.001V281.768z M350.915,283.734h1.001v-1h-1v-0.53c-0.338,0.073-0.669,0.166-1,0.257
			v0.274h0.999V283.734z M370.867,281.765h-1v0.952h1V281.765z M366.895,283.734h1.001v-1h-1v-0.969h-1v0.971h0.999V283.734z
			 M368.894,284.736v1h1.001v-1h-0.999v-1.002h-1v1.002H368.894z M362.892,283.734h1.001v-1h-1v-0.969h-1v0.971h0.999V283.734z
			 M448.889,284.736v1h1.002v-1h-1v-1.002h-1v1.002H448.889z M370.894,286.738v0.998h1.001v-1h-1v-1h-1v1.002H370.894z
			 M352.912,288.738v-1.002h-1v1.002H352.912z M348.925,316.752v-1h-1.001v1h0.999v1.002h1v-1.002H348.925z M344.892,315.736h-1.001
			v0.45c0.264,0.189,0.53,0.374,0.804,0.55h0.196v0.119c0.331,0.207,0.656,0.421,1,0.607v-0.729h-0.999V315.736z M350.924,317.754
			h-1.001v1h1v0.568c0.329,0.071,0.665,0.119,1,0.174v-0.744h-0.999V317.754z M342.891,314.734v0.704
			c0.128,0.105,0.268,0.196,0.398,0.298h0.602v-1.002H342.891z M350.911,286.738v0.998h1.001v-1h-1v-1h-1v1.002H350.911z
			 M348.911,284.736v1h1.001v-1h-0.999v-1.002h-1v1.002H348.911z M354.915,286.738v0.998h1v-1h-0.999v-1h-1.001v1.002H354.915z
			 M352.914,284.736v1h1.001v-1h-0.999v-1.002h-1v1.002H352.914z M356.916,288.738v-1.002h-1.001v1.002H356.916z M347.913,283.128
			c-0.34,0.136-0.671,0.286-1.001,0.441v0.165h1.001V283.128z M452.891,288.738v-1.002h-1v1.002H452.891z M418.883,314.734v-1.002
			h-1v1.002H418.883z M420.889,308.748v-1.002h-1v1.002h0.998v1h1v-1H420.889z M418.889,306.746v-1h-1.002v1.002h1v0.998h1.002v-1
			H418.889z M415.885,303.744v1.002h1.002v-1.002H415.885z M416.887,304.746v1h1v-1H416.887z M416.883,312.734v0.998h1v-1h-1v-1h-1
			v1.002H416.883z M408.883,304.729v-1h-1.002v1.002h1v0.998h1v-1H408.883z M409.881,305.729v1.002h1.002v-1.002H409.881z
			 M402.881,298.726v1h1.002v-1H402.881z M410.883,306.73v1h1v-1H410.883z M404.883,300.726v-1h-1v1.002h0.998v0.999h1.002v-1
			H404.883z M406.883,302.729v-1.002h-1v1.002h0.998v1h1v-1H406.883z M424.861,304.729v-1h-1v1.002h1v0.998h1v-1H424.861z
			 M422.861,302.729v-1.002h-1v1.002h0.998v1h1.002v-1H422.861z M420.861,300.726v-1h-1v1.002h1v0.999h1v-1H420.861z
			 M426.861,306.73v-1.002h-1v1.002H426.861z M418.861,298.726v1h1v-1H418.861z M410.887,298.742v-1h-1v1.002h1v0.998h1v-1H410.887z
			 M412.887,300.744v-1.002h-1v1.002h0.998v1h1v-1H412.887z M414.887,302.744v-1h-1.002v1.002h1v0.998h1v-1H414.887z
			 M422.887,310.75v0.998h1v-1h-1v-1h-1v1.002H422.887z M408.887,296.742v1h1v-1H408.887z M424.887,312.75v-1.002h-1v1.002H424.887z
			 M400.907,304.746v-1.002h-1.001v1.002H400.907z M438.865,314.734v-1.002h-1v1.002H438.865z M396.908,300.744v-1.002h-1.001v1.002
			h0.999v1h1v-1H396.908z M398.907,302.744v-1h-1.001v1.002h1v0.998h1v-1H398.907z M394.908,298.742v-1h-1.001v1.002h1v0.998h1v-1
			H394.908z M392.907,296.742v1h1v-1H392.907z M412.91,312.75v-1.002h-1v1.002H412.91z M412.885,308.73v-1h-1.002v1.002h1v0.998
			h1.002v-1H412.885z M396.873,308.73v-1h-1.001v1.002h1v0.998h1.001v-1H396.873z M394.872,306.73v1h1v-1H394.872z M402.871,314.734
			v-1.002h-1v1.002H402.871z M400.871,312.734v0.998h1v-1h-1v-1h-1v1.002H400.871z M398.873,310.732v-1.002h-1v1.002h0.998v1h1.001
			v-1H398.873z M398.911,298.742v-1h-1.001v1.002h1v0.998h1v-1H398.911z M400.911,300.744v-1.002h-1.001v1.002h0.999v1h1v-1H400.911
			z M410.91,310.748v-1h-1v1.002h1v0.998h1v-1H410.91z M396.91,296.742v1h1v-1H396.91z M402.91,302.744v-1h-1.002v1.002h1v0.998h1
			v-1H402.91z M414.885,310.732v-1.002h-1v1.002h0.998v1h1v-1H414.885z M408.912,308.748v-1.002h-1v1.002h0.998v1h1v-1H408.912z
			 M403.908,303.744v1.002h1.002v-1.002H403.908z M406.912,306.746v-1h-1.002v1.002h1v0.998h1.002v-1H406.912z M404.91,304.746v1h1
			v-1H404.91z M458.865,286.72v1h1v-0.855c-0.053-0.049-0.106-0.097-0.16-0.145h-0.838v-0.736c-0.115-0.093-0.238-0.175-0.355-0.266
			h-0.645v1.002H458.865z M434.873,298.726v1h1v-1H434.873z M445.875,305.729v1.002h1.002v-1.002H445.875z M444.877,304.729v-1
			h-1.002v1.002h1v0.998h1v-1H444.877z M440.877,300.726v-1h-1v1.002h1v0.999h1v-1H440.877z M438.875,298.726v1h1.002v-1H438.875z
			 M436.865,312.732v-1h-1v1.002h1v0.998h1v-1H436.865z M453.877,314.734h1v-1.002h-1V314.734z M458.883,313.752h-1.002v1h1v0.778
			c0.306-0.248,0.594-0.515,0.884-0.78h-0.882V313.752z M452.877,312.732v-1h-1v1.002h1v0.998h1v-1H452.877z M450.879,310.732
			v-1.002h-1v1.002h0.998v1h1v-1H450.879z M448.879,308.73v-1h-1.002v1.002h1v0.998h1.002v-1H448.879z M442.877,302.729v-1.002h-1
			v1.002h0.998v1h1v-1H442.877z M456.865,285.718h1.002v-0.482c-0.256-0.181-0.518-0.351-0.782-0.518h-0.218v-0.132
			c-0.33-0.203-0.657-0.408-1-0.591v0.725h0.998V285.718z M460.865,288.722v0.998h1v-0.689c-0.08-0.102-0.15-0.211-0.232-0.311
			h-0.768v-0.852c-0.045-0.049-0.089-0.1-0.135-0.148h-0.865v1.002H460.865z M446.891,283.734h1v-1h-1v-0.969h-1v0.971h1V283.734z
			 M450.863,282.174c-0.329-0.069-0.667-0.111-1.002-0.163v0.705h1.002V282.174z M462.865,290.722v-0.302
			c-0.155-0.238-0.319-0.469-0.484-0.7h-0.516v1.002H462.865z M456.881,312.75v1.002h1v-1.002H456.881z M448.881,304.746v1h1v-1
			H448.881z M454.881,310.748v-1h-1v1.002h0.998v0.998h1.002v-1H454.881z M455.881,311.748v1.002h1v-1.002H455.881z
			 M450.881,306.746v-1h-1v1.002h1v0.998h1v-1H450.881z M452.881,308.748v-1.002h-1v1.002h0.998v1h1.002v-1H452.881z
			 M446.877,306.73v1h1v-1H446.877z M426.865,302.729v-1.002h-1v1.002h0.998v1h1v-1H426.865z M422.863,298.726v1h1.002v-1H422.863z
			 M432.898,304.746v1h1v-1H432.898z M434.9,306.746v-1h-1.002v1.002h1v0.998h1.002v-1H434.9z M436.9,308.748v-1.002h-1v1.002h0.998
			v1h1v-1H436.9z M424.865,300.726v-1h-1v1.002h1v0.999h1v-1H424.865z M428.865,304.729v-1h-1.002v1.002h1v0.998h1v-1H428.865z
			 M432.867,308.73v-1h-1.002v1.002h1v0.998h1.002v-1H432.867z M436.873,300.726v-1h-1v1.002h1v0.999h1v-1H436.873z M430.865,306.73
			v1h1v-1H430.865z M429.863,305.729v1.002h1.002v-1.002H429.863z M434.867,310.732v-1.002h-1v1.002h0.998v1h1v-1H434.867z
			 M438.898,310.75v0.998h1v-1h-1v-1h-1v1.002H438.898z M440.898,312.75v-1.002h-1v1.002H440.898z M442.873,306.73v-1.002h-1v1.002
			H442.873z M440.873,304.73v0.998h1v-1h-1v-1h-1v1.002H440.873z M437.873,301.727v1.002h0.998v1h1.002v-1h-1v-1.002H437.873z
			 M431.896,303.744v1.002h1.002v-1.002H431.896z M430.898,302.744v-1h-1.002v1.002h1v0.998h1v-1H430.898z M424.898,296.742v1h1v-1
			H424.898z M428.898,300.744v-1.002h-1v1.002h0.998v1h1v-1H428.898z M426.898,298.742v-1h-1v1.002h1v0.998h1v-1H426.898z
			 M404.883,296.724v1h1v-1.002h-0.998v-0.998h-1.002v1H404.883z M354.927,318.752v-0.998h-1.001v1h1v1h1v-1.002H354.927z
			 M354.9,314.734v1.002h1v-1.002H354.9z M352.928,316.752v-1h-1.001v1h0.999v1.002h1v-1.002H352.928z M356.901,316.734v-0.998
			H355.9v1h1v1h1v-1.002H356.901z M355.926,319.76h1.001v-0.006h-1.001V319.76z M358.901,318.736v-1H357.9v1h0.999v1.002h1v-1.002
			H358.901z M362.904,318.736v-1h-1.001v1h0.999v1.002h1v-1.002H362.904z M360.904,316.734v-0.998h-1.001v1h1v1h1v-1.002H360.904z
			 M363.902,319.76h1.001v-0.021h-1.001V319.76z M350.928,314.75v-0.998h-1.001v1h1v1h1v-1.002H350.928z M358.903,314.734v1.002h1
			v-1.002H358.903z M359.899,319.76h1.001v-0.021h-1.001V319.76z M340.899,296.724v1h1v-1.002H340.9v-0.998h-1.001v1H340.899z
			 M337.9,292.72h-0.14c-0.155,0.33-0.306,0.662-0.442,1.002h0.582V292.72z M342.9,298.724v-1h-1.001v1H342.9z M346.877,286.72v1
			h1.001v-1h-0.999v-1.002h-1v1.002H346.877z M344.878,285.718h1.001v-1h-1v-0.042c-0.024,0.015-0.049,0.029-0.073,0.044h0.072
			V285.718z M346.892,317.946v-0.21h-0.435C346.601,317.809,346.746,317.877,346.892,317.946z M337.891,309.076v-0.346h-0.167
			C337.778,308.847,337.835,308.961,337.891,309.076z M348.927,312.75v1.002h1v-1.002H348.927z M337.896,296.722h-1v1.002h1V296.722
			z M338.897,298.724v-1h-1.001v1H338.897z M338.899,294.722v1.002h1v-1.002h-0.998v-1H337.9v1H338.899z M374.882,318.736v-1h-1.001
			v1h0.999v1.002h1v-1.002H374.882z M378.885,318.736v-1h-1.001v1h0.999v1.002h1v-1.002H378.885z M376.885,316.734v-0.998h-1.001v1
			h1v1h1v-1.002H376.885z M374.884,314.734v1.002h1v-1.002H374.884z M379.883,319.76h1.001v-0.021h-1.001V319.76z M375.88,319.76
			h1.001v-0.021h-1.001V319.76z M382.917,318.752v-0.998h-1.001v1h1v1h1v-1.002H382.917z M348.877,288.722v0.998h1.001v-1h-1v-1h-1
			v1.002H348.877z M383.917,319.76h1.001v-0.006h-1.001V319.76z M378.918,314.75v-0.998h-1.001v1h1v1h1v-1.002H378.918z
			 M380.918,316.752v-1h-1.001v1h0.999v1.002h1v-1.002H380.918z M376.917,312.75v1.002h1v-1.002H376.917z M366.906,318.752v-0.998
			h-1.001v1h1v1h1v-1.002H366.906z M372.882,316.734v-0.998h-1.001v1h1v1h1v-1.002H372.882z M364.909,312.75v1.002h1v-1.002H364.909
			z M360.906,312.75v1.002h1v-1.002H360.906z M364.907,316.752v-1h-1.001v1h0.999v1.002h1v-1.002H364.907z M362.907,314.75v-0.998
			h-1.001v1h1v1h1v-1.002H362.907z M367.905,319.76h1.001v-0.006h-1.001V319.76z M371.908,319.76h1.001v-0.006h-1.001V319.76z
			 M372.898,288.736v1.002h1v-1.002H372.898z M366.91,314.75v-0.998h-1.001v1h1v1h1v-1.002H366.91z M370.909,318.752v-0.998h-1.001
			v1h1v1h1v-1.002H370.909z M368.91,316.752v-1h-1.001v1h0.999v1.002h1v-1.002H368.91z M454.865,283.512v0.206h0.428
			C455.15,283.648,455.009,283.579,454.865,283.512z M350.901,306.73v-1.002H349.9v1.002H350.901z M392.875,300.726v-1h-1.001v1.002
			h1v0.999h1v-1H392.875z M342.906,290.738v1h1.001v-1.002h-1v-0.998h-1v1H342.906z M344.905,292.738v1.002h1.001v-1.002h-0.999v-1
			h-1v1H344.905z M348.9,304.73v0.998h1v-1h-0.999v-1H347.9v1.002H348.9z M346.9,302.729v1h1v-1h-0.998v-1.002h-1.001v1.002H346.9z
			 M341.907,288.736h-1.001v1.002h1.001V288.736z M390.873,298.726v1h1.001v-1H390.873z M350.878,290.722v-1.002h-1v1.002H350.878z
			 M342.9,298.726v1h1.001v-1H342.9z M344.901,300.728v0.999h1v-1h-0.999v-1h-1.001v1.002H344.901z M340.904,288.006
			c-0.22,0.243-0.448,0.479-0.655,0.732h0.655V288.006z M378.897,294.74v1h1v-1.002h-0.999v-0.998h-1.001v1H378.897z
			 M386.87,298.724v-1h-1v1H386.87z M376.897,292.738v1.002h1v-1.002h-0.998v-1h-1.001v1H376.897z M374.898,290.738v1h1v-1.002
			h-0.999v-0.998h-1.001v1H374.898z M380.898,296.74v-1h-1.001v1H380.898z M348.906,296.74v-1h-1v1H348.906z M346.905,294.74v1
			h1.001v-1.002h-1v-0.998h-1v1H346.905z M382.869,294.722v1.002h1.001v-1.002h-0.999v-1h-1v1H382.869z M380.87,292.722v1h1.001
			v-1.002h-1v-0.998h-1v1H380.87z M384.869,296.724v1h1.001v-1.002h-1v-0.998h-1v1H384.869z M378.87,290.72v1.002h1.001v-1.002
			H378.87z M397.873,306.73h1.001v-1.002h-1.001V306.73z M464.895,300.744v-1.002h-1v1.002h0.998v1h0.997
			c0.001-0.018,0.002-0.036,0.003-0.054v-0.947H464.895z M462.895,298.742v-1h-1v1.002h1v0.998h1v-1H462.895z M394.875,302.729
			v-1.002h-1.001v1.002h0.999v1h1v-1H394.875z M460.895,296.742v1h1v-1H460.895z M380.92,312.75v1.002h1v-1.002H380.92z
			 M434.9,302.744v-1h-1v1.002h1v0.998h1v-1H434.9z M354.887,282.718v1h1.001v-1H354.887z M362.887,290.722v-1.002h-1v1.002H362.887
			z M356.887,284.72v0.998h1.001v-1h-1v-1h-1v1.002H356.887z M418.896,290.738v1h1.002v-1.002h-1v-0.998h-1.002v1H418.896z
			 M358.886,286.72v1h1.001v-1h-0.999v-1.002h-1v1.002H358.886z M464.893,305.746h0.363c0.091-0.332,0.186-0.661,0.258-1h-0.621
			V305.746z M412.889,296.742v1h1v-1H412.889z M432.902,300.744v-1.002H431.9v1.002h1v1h1v-1H432.902z M419.889,304.746h1v-1.002h-1
			V304.746z M416.891,300.744v-1.002h-1.002v1.002h1v1h1v-1H416.891z M396.874,304.729v-1h-1.001v1.002h1v0.998h1v-1H396.874z
			 M414.891,298.742v-1h-1.002v1.002h1v0.998h1v-1H414.891z M428.9,296.742v1h1v-1H428.9z M430.902,298.742v-1H429.9v1.002h1v0.998
			h1v-1H430.902z M418.889,302.744v-1h-1v1.002h1v0.998h1v-1H418.889z M435.9,304.746h1v-1.002h-1V304.746z M370.881,314.734v1.002
			h1v-1.002H370.881z M424.889,312.75v1.002h1v-1.002H424.889z M426.889,314.75v-0.998h-1v1h1v1h1v-1.002H426.889z M427.887,319.76
			h1v-0.021h-1V319.76z M426.889,318.736v-1h-1.002v1h1v1.002h1v-1.002H426.889z M416.912,316.752v-1h-1v1h0.998v1.002h1v-1.002
			H416.912z M430.889,318.752v-0.998h-1.002v1h1v1h1v-1.002H430.889z M420.891,304.746v1h1v-1H420.891z M422.891,306.746v-1h-1
			v1.002h1v0.998h1v-1H422.891z M431.887,319.76h1.002v-0.006h-1.002V319.76z M428.889,316.752v-1h-1v1h0.998v1.002h1v-1.002
			H428.889z M422.887,314.734v1.002h1v-1.002H422.887z M421.887,313.732v1.002h1v-1.002H421.887z M422.885,318.736v-1h-1v1h0.998
			v1.002h1v-1.002H422.885z M418.885,314.734v1.002h1v-1.002H418.885z M420.885,316.734v-0.998h-1v1h1v1h1v-1.002H420.885z
			 M419.91,319.76h1.002v-0.006h-1.002V319.76z M424.891,308.748v-1.002h-1v1.002h0.998v1h1.002v-1H424.891z M418.912,318.752
			v-0.998h-1.002v1h1v1h1v-1.002H418.912z M418.887,310.732v-1.002h-1v1.002h0.998v1h1.002v-1H418.887z M420.887,312.732v-1h-1
			v1.002h0.998v0.998h1.002v-1H420.887z M423.883,319.76h1.002v-0.021h-1.002V319.76z M414.887,306.73v1h1v-1H414.887z
			 M416.887,308.73v-1h-1v1.002h1v0.998h1v-1H416.887z M424.889,316.734v-0.998h-1.002v1h1v1h1v-1.002H424.889z M438.867,314.734
			v1.002h1v-1.002H438.867z M438.865,318.736v-1h-1.002v1h1v1.002h1v-1.002H438.865z M439.863,319.76h1v-0.021h-1V319.76z
			 M426.891,310.748v-1h-1v1.002h0.998v0.998h1.002v-1H426.891z M434.863,314.734v1.002h1v-1.002H434.863z M436.865,316.734v-0.998
			h-1.002v1h1v1h1v-1.002H436.865z M454.879,314.734v1.002h1v-1.002H454.879z M456.879,315.736h-1v1h1v0.194
			c0.107-0.065,0.218-0.128,0.323-0.196h-0.323V315.736z M443.865,319.76h1.002v-0.021h-1.002V319.76z M440.867,316.734v-0.998h-1v1
			h1v1h1v-1.002H440.867z M442.867,318.736v-1h-1v1h0.998v1.002h1v-1.002H442.867z M433.863,313.732v1.002h1v-1.002H433.863z
			 M430.893,314.75v-0.998h-1.002v1h1v1h1v-1.002H430.893z M432.893,316.752v-1h-1.002v1h1v1.002h1v-1.002H432.893z
			 M432.863,312.732v-1h-1v1.002h0.998v0.998h1.002v-1H432.863z M434.891,318.752v-0.998h-1v1h1v1h1v-1.002H434.891z
			 M428.891,312.75v1.002h1v-1.002H428.891z M427.891,311.748v1.002h1v-1.002H427.891z M435.891,319.76h1v-0.006h-1V319.76z
			 M430.863,310.732v-1.002h-1v1.002h0.998v1h1.002v-1H430.863z M428.863,308.73v-1h-1v1.002h1v0.998h1v-1H428.863z M426.863,306.73
			v1h1v-1H426.863z M404.875,312.732v-1h-1v1.002h0.998v0.998h1.002v-1H404.875z M392.897,312.75v1.002h1v-1.002H392.897z
			 M398.897,318.752v-0.998h-1.001v1h1v1h1v-1.002H398.897z M396.9,312.75v1.002h1v-1.002H396.9z M394.898,314.75v-0.998h-1.001v1h1
			v1h1v-1.002H394.898z M396.898,316.752v-1h-1.001v1h0.999v1.002h1v-1.002H396.898z M399.896,319.76h1.001v-0.006h-1.001V319.76z
			 M402.873,314.734v1.002h1v-1.002H402.873z M403.898,319.76h1.002v-0.006h-1.002V319.76z M400.901,316.752v-1H399.9v1h0.999v1.002
			h1v-1.002H400.901z M404.873,316.734v-0.998h-1v1h1v1h1v-1.002H404.873z M398.901,314.75v-0.998H397.9v1h1v1h1v-1.002H398.901z
			 M402.9,318.752v-0.998h-1.002v1h1v1h1v-1.002H402.9z M386.893,314.734v1.002h1v-1.002H386.893z M387.919,319.76h1.001v-0.006
			h-1.001V319.76z M384.921,316.752v-1h-1.001v1h0.999v1.002h1v-1.002H384.921z M388.894,316.734v-0.998h-1.001v1h1v1h1v-1.002
			H388.894z M386.92,318.752v-0.998h-1.001v1h1v1h1v-1.002H386.92z M390.896,314.734v1.002h1v-1.002H390.896z M392.897,316.734
			v-0.998h-1.001v1h1v1h1v-1.002H392.897z M394.897,318.736v-1h-1.001v1h0.999v1.002h1v-1.002H394.897z M391.892,319.76h1.001
			v-0.021h-1.001V319.76z M390.894,318.736v-1h-1.001v1h0.999v1.002h1v-1.002H390.894z M395.895,319.76h1.001v-0.021h-1.001V319.76z
			 M402.908,306.746v-1h-1v1.002h1v0.998h1v-1H402.908z M406.908,310.748v-1h-1v1.002h0.998v0.998h1.002v-1H406.908z
			 M407.908,311.748v1.002h1v-1.002H407.908z M404.908,308.748v-1.002h-1v1.002h0.998v1h1.002v-1H404.908z M414.912,314.75v-0.998
			h-1v1h1v1h1v-1.002H414.912z M400.908,304.746v1h1v-1H400.908z M408.908,312.75v1.002h1v-1.002H408.908z M412.912,312.75v1.002h1
			v-1.002H412.912z M415.908,319.76h1v-0.006h-1V319.76z M414.908,318.752v-0.998h-1v1h1v1h1v-1.002H414.908z M412.91,316.752v-1
			h-1.002v1h1v1.002h1v-1.002H412.91z M410.91,314.75v-0.998h-1.002v1h1v1h1v-1.002H410.91z M382.921,314.75v-0.998h-1.001v1h1v1h1
			v-1.002H382.921z M400.875,308.73v-1h-1.001v1.002h1v0.998h1v-1H400.875z M411.875,319.76h1v-0.021h-1V319.76z M406.873,318.736
			v-1h-1v1h0.998v1.002h1v-1.002H406.873z M398.875,306.73v1h1v-1H398.875z M407.871,319.76h1.002v-0.021h-1.002V319.76z
			 M402.875,310.732v-1.002h-1v1.002h0.998v1h1.002v-1H402.875z M408.877,316.734v-0.998h-1.002v1h1v1h1v-1.002H408.877z
			 M410.877,318.736v-1h-1.002v1h1v1.002h1v-1.002H410.877z M405.875,313.732v1.002h1v-1.002H405.875z M406.875,314.734v1.002h1
			v-1.002H406.875z M360.886,288.722v0.998h1.001v-1h-1v-1h-1v1.002H360.886z M463.047,290.72h-0.178v1.002h0.785
			C463.468,291.378,463.254,291.051,463.047,290.72z M460.867,292.72v-0.998h-1.002v1h1v1h1v-1.002H460.867z M463.891,304.746h1
			v-1.002h-1V304.746z M458.865,290.72v1.002h1v-1.002H458.865z M463.869,292.168v0.554h0.267
			C464.049,292.537,463.962,292.351,463.869,292.168z M462.891,302.744v-1h-1v1.002h1v0.998h1v-1H462.891z M446.883,298.742v-1h-1
			v1.002h1v0.998h1v-1H446.883z M444.883,296.742v1h1v-1H444.883z M460.893,300.744v-1.002h-1.002v1.002h1v1h1v-1H460.893z
			 M458.893,298.742v-1h-1.002v1.002h1v0.998h1v-1H458.893z M456.891,296.742v1h1v-1H456.891z M458.893,294.738v-0.998h-1v1h1v1h1
			v-1.002H458.893z M452.893,288.736v1.002h1.002v-1.002H452.893z M454.861,286.72v1h1.002v-1h-1v-1.002h-1v1.002H454.861z
			 M452.863,284.72v0.998h1v-1h-1v-1h-1v1.002H452.863z M456.861,288.722v0.998h1.002v-1h-1v-1h-1v1.002H456.861z M458.863,290.722
			v-1.002h-1v1.002H458.863z M454.895,290.736v-0.998h-1v1h0.998v1h1.002v-1.002H454.895z M464.865,296.724v1h0.809
			c-0.054-0.335-0.104-0.672-0.175-1.002h-0.634v-0.998h-1v1H464.865z M461.865,293.722v1h1v1.002h1v-1.002h-0.998v-1H461.865z
			 M456.895,292.738v-1h-1v1h0.998v1.002h1v-1.002H456.895z M460.893,296.74v-1h-1v1H460.893z M448.883,300.744v-1.002h-1v1.002
			h0.998v1h1v-1H448.883z M458.855,306.73v1h1v-1H458.855z M457.854,305.729v1.002h1.002v-1.002H457.854z M450.883,302.744v-1
			h-1.002v1.002h1v0.998h1v-1H450.883z M450.863,282.718v1h1v-1H450.863z M460.857,308.73v-1h-1.002v1.002h1v0.998h1.002v-1H460.857
			z M454.855,302.729v-1.002h-1v1.002h0.998v1h1v-1H454.855z M456.855,304.729v-1h-1.002v1.002h1v0.998h1v-1H456.855z
			 M458.857,302.729v1h1v-1h-0.998v-1.002h-1.002v1.002H458.857z M460.857,304.73v0.998h1v-1h-1v-1h-1v1.002H460.857z
			 M450.854,298.726v1h1.002v-1H450.854z M462.857,306.73v-1.002h-1v1.002H462.857z M452.855,300.726v-1h-1v1.002h0.998v0.999h1.002
			v-1H452.855z M462.857,309.73h-1v1.002h0.998v0.387c0.082-0.126,0.155-0.259,0.235-0.387h-0.233V309.73z M454.885,306.746v-1
			h-1.002v1.002h1v0.998h1.002v-1H454.885z M456.885,308.748v-1.002h-1v1.002h0.998v1h1v-1H456.885z M451.881,303.744v1.002h1.002
			v-1.002H451.881z M452.883,304.746v1h1v-1H452.883z M458.883,310.748v-1h-1v1.002h1v0.998h1v-1H458.883z M448.879,304.746v-1.002
			h-1v1.002H448.879z M446.879,302.746v0.998h1v-1h-1v-1h-1v1.002H446.879z M444.881,300.744v-1.002h-1.002v1.002h1v1h1v-1H444.881z
			 M440.879,296.742v1h1v-1H440.879z M442.881,298.742v-1h-1.002v1.002h1v0.998h1v-1H442.881z M459.883,312.75h1v-1.002h-1V312.75z
			 M432.879,288.736v1.002h1v-1.002H432.879z M432.877,292.72v-0.998h-1.002v1h1v1h1v-1.002H432.877z M430.875,290.72v1.002h1
			v-1.002H430.875z M434.877,294.722v-1h-1.002v1h1v1.002h1v-1.002H434.877z M436.875,296.722v-0.998h-1v1h1v1h1v-1.002H436.875z
			 M440.879,296.74v-1h-1v1H440.879z M438.879,294.738v-0.998h-1v1h0.998v1h1.002v-1.002H438.879z M442.852,290.722v-1.002h-1v1.002
			H442.852z M438.875,297.724h-1v1h1V297.724z M434.852,282.718v1h1v-1H434.852z M434.879,290.736v-0.998h-1v1h1v1h1v-1.002H434.879
			z M436.879,292.738v-1h-1v1h0.998v1.002h1.002v-1.002H436.879z M455.857,299.726v1.002h1v0.999h1v-1h-0.998v-1H455.857z
			 M422.869,286.72v1h1v-1h-0.998v-1.002h-1v1.002H422.869z M426.869,290.722v-1.002h-1v1.002H426.869z M422.873,282.718v1h1v-1
			H422.873z M418.869,282.718v1h1.002v-1H418.869z M416.896,288.736v1.002h1v-1.002H416.896z M424.869,288.722v0.998h1v-1h-1v-1h-1
			v1.002H424.869z M426.871,286.72v1h1.002v-1h-1v-1.002h-1v1.002H426.871z M424.873,284.72v0.998h1v-1h-1v-1h-1v1.002H424.873z
			 M420.869,284.72v0.998h1.002v-1h-1v-1h-1v1.002H420.869z M428.871,288.722v0.998h1.002v-1h-1v-1h-1v1.002H428.871z
			 M430.873,290.722v-1.002h-1v1.002H430.873z M444.854,288.722v0.998h1v-1h-1v-1h-1v1.002H444.854z M452.857,296.722v-0.998h-1.002
			v1h1v1h1v-1.002H452.857z M448.857,292.72v-0.998h-1v1h1v1h1v-1.002H448.857z M450.857,294.722v-1h-1v1h0.998v1.002h1v-1.002
			H450.857z M446.855,294.722v-1h-1.002v1h1v1.002h1v-1.002H446.855z M454.857,298.724v-1h-1.002v1H454.857z M446.857,290.72v1.002
			h1v-1.002H446.857z M450.891,290.736v-0.998h-1v1h1v1h1v-1.002H450.891z M452.891,292.738v-1h-1v1h0.998v1.002h1.002v-1.002
			H452.891z M454.891,294.738v-0.998h-1v1h0.998v1h1.002v-1.002H454.891z M440.85,288.722v0.998h1.002v-1h-1v-1h-1v1.002H440.85z
			 M456.891,295.74h-1v1h1V295.74z M444.855,292.72v-0.998h-1.002v1h1v1h1v-1.002H444.855z M446.854,290.722v-1.002h-1v1.002
			H446.854z M442.854,290.72v1.002h1v-1.002H442.854z M448.891,288.736v1.002h1v-1.002H448.891z M438.85,286.72v1h1.002v-1h-1
			v-1.002h-1v1.002H438.85z M436.852,284.72v0.998h1v-1h-1v-1h-1v1.002H436.852z M442.854,286.72v1h1v-1h-0.998v-1.002h-1v1.002
			H442.854z M448.854,296.722v-0.998h-1v1h1v1h1v-1.002H448.854z M450.854,298.724v-1h-1v1H450.854z M438.854,282.718v1h1.002v-1
			H438.854z M440.854,284.72v0.998h1.002v-1h-1v-1h-1v1.002H440.854z M426.898,294.74v1h1.002v-1.002h-1v-0.998h-1v1H426.898z
			 M370.89,298.726v1h1.001v-1H370.89z M378.891,306.73v-1.002h-1.001v1.002H378.891z M372.891,300.726v-1h-1v1.002h0.999v0.999
			h1.001v-1H372.891z M364.918,296.742v1h1v-1H364.918z M362.917,298.742v-1h-1.001v1.002h1v0.998h1v-1H362.917z M376.891,304.729
			v-1h-1.001v1.002h1v0.998h1v-1H376.891z M372.918,304.746v-1.002h-1.001v1.002H372.918z M360.916,296.742v1h1v-1H360.916z
			 M366.919,298.742v-1h-1.001v1.002h1v0.998h1v-1H366.919z M370.918,302.744v-1h-1.001v1.002h1v0.998h1v-1H370.918z
			 M368.919,300.744v-1.002h-1.001v1.002h0.999v1h1v-1H368.919z M374.891,302.729v-1.002h-1v1.002h0.998v1h1.001v-1H374.891z
			 M382.895,302.744v-1h-1v1.002h0.999v0.998h1.001v-1H382.895z M378.896,298.742v-1h-1v1.002h0.999v0.998h1.001v-1H378.896z
			 M380.896,300.744v-1.002h-1v1.002h0.998v1h1.001v-1H380.896z M376.895,296.742v1h1.001v-1H376.895z M388.898,304.746v-1.002
			h-1.001v1.002H388.898z M380.894,304.729v-1h-1.001v1.002h1v0.998h1v-1H380.894z M378.895,302.729v-1.002h-1.001v1.002h0.999v1h1
			v-1H378.895z M382.894,306.73v-1.002h-1.001v1.002H382.894z M384.895,304.746v-1.002h-1v1.002H384.895z M374.893,298.726v1h1.001
			v-1H374.893z M376.895,300.726v-1h-1.001v1.002h1v0.999h1v-1H376.895z M360.883,300.726v-1h-1.001v1.002h1v0.999h1v-1H360.883z
			 M350.907,298.744v0.998h1v-1h-0.999v-1h-1.001v1.002H350.907z M354.906,302.746v0.998h1v-1h-0.999v-1h-1.001v1.002H354.906z
			 M360.879,304.729v-1h-1.001v1.002h1v0.998h1v-1H360.879z M349.907,296.742h-1v1h1V296.742z M362.879,306.73v-1.002h-1.001v1.002
			H362.879z M352.906,300.744v1h1v-1h-0.998v-1.002h-1.001v1.002H352.906z M350.903,302.746v0.998h1v-1h-0.999v-1h-1.001v1.002
			H350.903z M348.903,300.744v1h1v-1h-0.998v-1.002h-1.001v1.002H348.903z M346.904,298.744v0.998h1v-1h-0.999v-1h-1.001v1.002
			H346.904z M356.907,304.746v-1.002h-1.001v1.002H356.907z M344.904,296.742v1h1v-1H344.904z M354.878,298.726v1h1.001v-1H354.878z
			 M386.898,302.744v-1h-1v1.002h0.999v0.998h1v-1H386.898z M362.883,302.729v-1.002h-1.001v1.002h0.999v1h1v-1H362.883z
			 M358.881,298.726v1h1.001v-1H358.881z M366.916,302.744v-1h-1.001v1.002h1v0.998h1v-1H366.916z M368.916,304.746v-1.002h-1.001
			v1.002H368.916z M364.917,300.744v-1.002h-1.001v1.002h0.999v1h1v-1H364.917z M356.879,300.726v-1h-1v1.002h0.999v0.999h1.001v-1
			H356.879z M358.879,302.729v-1.002h-1v1.002h0.998v1h1.001v-1H358.879z M366.882,306.73v-1.002h-1.001v1.002H366.882z
			 M364.882,304.729v-1h-1.001v1.002h1v0.998h1v-1H364.882z M412.889,296.74v-1h-1v1H412.889z M352.904,304.746v-1.002h-1.001v1.002
			H352.904z M424.898,292.738v1.002h1.002v-1.002h-1v-1h-1v1H424.898z M428.9,296.74v-1h-1v1H428.9z M420.9,288.736v1.002h1v-1.002
			H420.9z M414.859,294.722v1.002h1v-1.002h-0.998v-1h-1v1H414.859z M416.859,296.724v1h1v-1.002h-0.998v-0.998h-1.002v1H416.859z
			 M410.861,290.72v1.002h1v-1.002H410.861z M412.861,292.722v1h1v-1.002h-1v-0.998h-1v1H412.861z M428.873,292.722v1h1v-1.002h-1
			v-0.998h-1v1H428.873z M422.9,290.738v1h1v-1.002h-1v-0.998h-1v1H422.9z M418.861,298.724v-1h-1.002v1H418.861z M430.871,294.722
			v1.002h1v-1.002h-0.998v-1h-1v1H430.871z M443.881,296.74h1v-1h-1V296.74z M462.859,306.73v1h1v-1H462.859z M436.881,288.736
			v1.002h1.002v-1.002H436.881z M460.885,313.635c0.268-0.291,0.538-0.578,0.788-0.885h-0.788V313.635z M463.859,308.732h0.31
			c0.153-0.33,0.299-0.662,0.434-1.002h-0.743V308.732z M432.871,296.724v1h1v-1.002h-0.998v-0.998h-1.002v1H432.871z
			 M434.873,298.724v-1h-1.002v1H434.873z M442.881,294.738v-0.998h-1v1h1v1h1v-1.002H442.881z M426.873,290.72v1.002h1v-1.002
			H426.873z M438.883,290.736v-0.998h-1v1h0.998v1h1.002v-1.002H438.883z M440.883,292.738v-1h-1v1h0.998v1.002h1v-1.002H440.883z
			 M392.908,292.738v1.002h1.001v-1.002h-0.999v-1h-1v1H392.908z M394.871,306.73v-1.002h-1.001v1.002H394.871z M390.909,290.738v1
			h1.001v-1.002h-1v-0.998h-1v1H390.909z M384.899,300.744v-1.002h-1v1.002h0.998v1h1.001v-1H384.899z M394.908,294.74v1h1.001
			v-1.002h-1v-0.998h-1v1H394.908z M396.909,296.74v-1h-1v1H396.909z M392.87,304.73v0.998h1v-1h-0.999v-1h-1.001v1.002H392.87z
			 M404.889,288.736v1.002h1v-1.002H404.889z M386.87,298.726v1h1.001v-1H386.87z M382.899,298.742v-1h-1v1.002h0.999v0.998h1.001
			v-1H382.899z M389.871,301.727v1.002h0.998v1h1.001v-1h-0.999v-1.002H389.871z M388.871,300.726v-1h-1v1.002h0.999v0.999h1.001v-1
			H388.871z M380.898,296.742v1h1.001v-1H380.898z M408.887,292.738v1.002h1.002v-1.002h-1v-1h-1v1H408.887z M406.889,290.738v1h1
			v-1.002h-1v-0.998h-1v1H406.889z M410.887,294.74v1h1.002v-1.002h-1v-0.998h-1v1H410.887z M454.857,298.726v1h1v-1H454.857z
			 M414.885,306.73v-1.002h-1v1.002H414.885z M406.885,298.726v1h1v-1H406.885z M412.885,304.73v0.998h1v-1h-1v-1h-1v1.002H412.885z
			 M407.885,299.726v1.002h1v0.999h1v-1h-0.998v-1H407.885z M388.909,288.736v1.002h1.001v-1.002H388.909z M410.885,302.729v1h1v-1
			h-0.998v-1.002h-1.002v1.002H410.885z"/>
	</g>
</g>
<g>
	<path fill="#333333" d="M446.941,283.765c9.373,0,16.998,7.625,16.998,16.997c0,9.373-7.625,16.998-16.998,16.998h-91.988
		c-9.373,0-16.998-7.625-16.998-16.998c0-9.372,7.625-16.997,16.998-16.997H446.941 M446.941,281.765h-91.988
		c-10.492,0-18.998,8.505-18.998,18.997s8.506,18.998,18.998,18.998h91.988c10.492,0,18.998-8.506,18.998-18.998
		S457.434,281.765,446.941,281.765L446.941,281.765z"/>
</g>
<g>
	<path fill-rule="evenodd" clip-rule="evenodd" fill="#808080" d="M442.684,311.261c-5.789,0-10.499-4.71-10.499-10.499
		c0-5.789,4.71-10.498,10.499-10.498s10.499,4.709,10.499,10.498C453.183,306.551,448.473,311.261,442.684,311.261z"/>
	<path d="M442.684,291.264c5.246,0,9.499,4.252,9.499,9.498s-4.253,9.499-9.499,9.499s-9.499-4.253-9.499-9.499
		S437.438,291.264,442.684,291.264 M442.684,289.264c-6.341,0-11.499,5.158-11.499,11.498c0,6.341,5.158,11.499,11.499,11.499
		s11.499-5.158,11.499-11.499C454.183,294.422,449.024,289.264,442.684,289.264L442.684,289.264z"/>
</g>
</svg>
