<?xml version="1.0" encoding="utf-8"?>
<!-- Generator: Adobe Illustrator 15.0.2, SVG Export Plug-In . SVG Version: 6.00 Build 0)  -->
<!DOCTYPE svg PUBLIC "-//W3C//DTD SVG 1.1//EN" "http://www.w3.org/Graphics/SVG/1.1/DTD/svg11.dtd">
<svg version="1.1" id="Layer_1" xmlns="http://www.w3.org/2000/svg" xmlns:xlink="http://www.w3.org/1999/xlink" x="0px" y="0px"
	 width="800px" height="600px" viewBox="0 0 800 600" enable-background="new 0 0 800 600" xml:space="preserve">
<g>
	<linearGradient id="SVGID_1_" gradientUnits="userSpaceOnUse" x1="400.9468" y1="282.7646" x2="400.9468" y2="318.7603">
		<stop  offset="0" style="stop-color:#FFFFFF"/>
		<stop  offset="1" style="stop-color:#B3B3B3"/>
	</linearGradient>
	<path fill-rule="evenodd" clip-rule="evenodd" fill="url(#SVGID_1_)" d="M354.953,318.76c-9.924,0-17.998-8.074-17.998-17.998
		s8.074-17.997,17.998-17.997h91.988c9.924,0,17.998,8.073,17.998,17.997s-8.074,17.998-17.998,17.998H354.953z"/>
	<path fill="#333333" d="M446.941,283.765c9.373,0,16.998,7.625,16.998,16.997c0,9.373-7.625,16.998-16.998,16.998h-91.988
		c-9.373,0-16.998-7.625-16.998-16.998c0-9.372,7.625-16.997,16.998-16.997H446.941 M446.941,281.765h-91.988
		c-10.492,0-18.998,8.505-18.998,18.997s8.506,18.998,18.998,18.998h91.988c10.492,0,18.998-8.506,18.998-18.998
		S457.434,281.765,446.941,281.765L446.941,281.765z"/>
</g>
<g>
	<path fill-rule="evenodd" clip-rule="evenodd" fill="#00D114" d="M442.684,311.261c-5.789,0-10.499-4.71-10.499-10.499
		c0-5.789,4.71-10.498,10.499-10.498s10.499,4.709,10.499,10.498C453.183,306.551,448.473,311.261,442.684,311.261z"/>
	<path d="M442.684,291.264c5.246,0,9.499,4.252,9.499,9.498s-4.253,9.499-9.499,9.499s-9.499-4.253-9.499-9.499
		S437.438,291.264,442.684,291.264 M442.684,289.264c-6.341,0-11.499,5.158-11.499,11.498c0,6.341,5.158,11.499,11.499,11.499
		s11.499-5.158,11.499-11.499C454.183,294.422,449.024,289.264,442.684,289.264L442.684,289.264z"/>
</g>
</svg>
