<?xml version="1.0" encoding="utf-8"?>
<!-- Generator: Adobe Illustrator 13.0.2, SVG Export Plug-In . SVG Version: 6.00 Build 14948)  -->
<!DOCTYPE svg PUBLIC "-//W3C//DTD SVG 1.1//EN" "http://www.w3.org/Graphics/SVG/1.1/DTD/svg11.dtd" [
	<!ENTITY ns_extend "http://ns.adobe.com/Extensibility/1.0/">
	<!ENTITY ns_ai "http://ns.adobe.com/AdobeIllustrator/10.0/">
	<!ENTITY ns_graphs "http://ns.adobe.com/Graphs/1.0/">
	<!ENTITY ns_vars "http://ns.adobe.com/Variables/1.0/">
	<!ENTITY ns_imrep "http://ns.adobe.com/ImageReplacement/1.0/">
	<!ENTITY ns_sfw "http://ns.adobe.com/SaveForWeb/1.0/">
	<!ENTITY ns_custom "http://ns.adobe.com/GenericCustomNamespace/1.0/">
	<!ENTITY ns_adobe_xpath "http://ns.adobe.com/XPath/1.0/">
]>
<svg version="1.1" id="Layer_1" xmlns:x="&ns_extend;" xmlns:i="&ns_ai;" xmlns:graph="&ns_graphs;"
	 xmlns="http://www.w3.org/2000/svg" xmlns:xlink="http://www.w3.org/1999/xlink" x="0px" y="0px" width="67.87px"
	 height="40.05px" viewBox="0 0 67.87 40.05" enable-background="new 0 0 67.87 40.05" xml:space="preserve">
<switch>
	<g i:extraneous="self">
		<g id="label_copy_3_1_">
					</g>
		<g>
			<path fill="#333333" d="M47.848,39.053H1.994H0.997v-0.998V1.995V0.997h0.997h45.854c10.49,0,19.026,8.537,19.026,19.027
				C66.874,30.516,58.338,39.053,47.848,39.053L47.848,39.053z"/>
			<path fill="#333333" d="M47.847,1.994c9.957,0,18.029,8.073,18.029,18.03c0,9.958-8.072,18.03-18.029,18.03H1.995V1.994H47.847
				 M47.847,0H1.995H0.001v1.994v36.06v1.994h1.994h45.852c11.041,0,20.023-8.983,20.023-20.024C67.87,8.982,58.888,0,47.847,0
				L47.847,0z"/>
		</g>
		<g>
			<linearGradient id="SVGID_1_" gradientUnits="userSpaceOnUse" x1="33.4072" y1="38.0537" x2="33.4072" y2="1.9946">
				<stop  offset="0" style="stop-color:#FFFFFF"/>
				<stop  offset="1" style="stop-color:#666666"/>
			</linearGradient>
			<path fill="url(#SVGID_1_)" d="M65.876,20.024c0,9.958-8.206,18.03-18.327,18.03H0.938V1.994h46.61
				C57.67,1.994,65.876,10.067,65.876,20.024L65.876,20.024z"/>
		</g>
		<g id="Shape_1">
			<g>
				<polygon fill-rule="evenodd" clip-rule="evenodd" points="38.227,18.028 34.227,18.028 34.227,14.028 30.228,14.028 
					30.228,18.028 26.229,18.028 26.229,22.027 30.228,22.027 30.228,26.026 34.227,26.026 34.227,22.027 38.227,22.027 				"/>
			</g>
		</g>
	</g>
</switch>
</svg>
