<?xml version="1.0" encoding="utf-8"?>
<!-- Generator: Adobe Illustrator 13.0.2, SVG Export Plug-In . SVG Version: 6.00 Build 14948)  -->
<!DOCTYPE svg PUBLIC "-//W3C//DTD SVG 1.1//EN" "http://www.w3.org/Graphics/SVG/1.1/DTD/svg11.dtd" [
	<!ENTITY ns_extend "http://ns.adobe.com/Extensibility/1.0/">
	<!ENTITY ns_ai "http://ns.adobe.com/AdobeIllustrator/10.0/">
	<!ENTITY ns_graphs "http://ns.adobe.com/Graphs/1.0/">
	<!ENTITY ns_vars "http://ns.adobe.com/Variables/1.0/">
	<!ENTITY ns_imrep "http://ns.adobe.com/ImageReplacement/1.0/">
	<!ENTITY ns_sfw "http://ns.adobe.com/SaveForWeb/1.0/">
	<!ENTITY ns_custom "http://ns.adobe.com/GenericCustomNamespace/1.0/">
	<!ENTITY ns_adobe_xpath "http://ns.adobe.com/XPath/1.0/">
]>
<svg version="1.1" id="Layer_1" xmlns:x="&ns_extend;" xmlns:i="&ns_ai;" xmlns:graph="&ns_graphs;"
	 xmlns="http://www.w3.org/2000/svg" xmlns:xlink="http://www.w3.org/1999/xlink" x="0px" y="0px" width="131.026px"
	 height="69.481px" viewBox="0 0 131.026 69.481" enable-background="new 0 0 131.026 69.481" xml:space="preserve">
<switch>
	<g i:extraneous="self">
		<g id="label_copy_3_1_">
			<g>
				<path fill-rule="evenodd" clip-rule="evenodd" fill="#E6E6E6" d="M92.028,18.487H40.034c-7.179,0-12.998,5.819-12.998,12.998
					v24.997c0,7.18,5.819,12.999,12.998,12.999h51.994c7.179,0,12.998-5.819,12.998-12.999V31.485
					C105.026,24.307,99.207,18.487,92.028,18.487z"/>
			</g>
		</g>
		<path fill="#D93D3D" stroke="#4D4D4D" stroke-width="1.9942" d="M2.053,20.484c0,9.958,8.072,18.03,18.029,18.03h45.852V2.455
			H20.082C10.125,2.455,2.053,10.527,2.053,20.484L2.053,20.484z"/>
		<g>
			<g>
				<path d="M37.905,30.734V29.71h-1.023v1.025h1.022v1.021h1.024v-1.023H37.905z M35.859,28.687v-1.025h-1.023v1.025h1.021v1.023
					h1.025v-1.023H35.859z M39.952,32.781v-1.024h-1.023v1.024H39.952z M31.732,28.668v-1.023h-1.024v1.025h1.023v1.021h1.024
					v-1.023H31.732z M29.684,26.622v1.024h1.024v-1.024H29.684z M33.813,26.639v-1.023h-1.024v1.025h1.023v1.021h1.024v-1.023
					H33.813z M39.956,28.687v-1.025h-1.023v1.025h1.021v1.023h1.024v-1.023H39.956z M42.001,30.734V29.71h-1.023v1.025H42v1.021
					h1.025v-1.023H42.001z M44.048,32.781v-1.024h-1.023v1.024H44.048z M31.765,24.592v1.023h1.023v-1.023H31.765z M25.589,26.622
					v1.024h1.022v-1.024H25.589z M19.477,24.592v1.023H20.5v-1.023H19.477z M29.682,30.718v-1.026h-1.023v1.026h1.021v1.023h1.025
					v-1.023H29.682z M31.727,32.767v1.021h1.024v-1.022h-1.023v-1.024h-1.023v1.026H31.727z M21.524,26.639v-1.023H20.5v1.025h1.023
					v1.021h1.023v-1.023H21.524z M23.57,28.687v-1.025h-1.023v1.025h1.022v1.023h1.025v-1.023H23.57z M37.909,26.639v-1.023h-1.024
					v1.025h1.023v1.021h1.024v-1.023H37.909z M36.848,34.812h1.024v-1.024h-1.024V34.812z M27.636,28.668v-1.023h-1.024v1.025h1.023
					v1.021h1.024v-1.023H27.636z M35.824,32.765v-1.024h-1.023v1.026h1.022v1.021h1.024v-1.022H35.824z M33.778,30.718v-1.026
					h-1.023v1.026h1.021v1.023h1.025v-1.023H33.778z M33.774,34.812v-1.024h-1.023v1.024H33.774z M52.211,28.687v-1.025h-1.023
					v1.025h1.021v1.023h1.025v-1.023H52.211z M50.166,26.639v-1.023h-1.024v1.025h1.023v1.021h1.024v-1.023H50.166z M55.28,31.757
					v-1.023h-1.023V29.71h-1.023v1.025h1.022v1.021H55.28z M48.117,24.592v1.023h1.024v-1.023H48.117z M46.07,26.622v1.024h1.023
					v-1.024H46.07z M56.305,32.781v-1.024H55.28v1.024H56.305z M56.309,28.687v-1.025h-1.024v1.025h1.022v1.023h1.024v-1.023H56.309
					z M60.4,32.781v-1.024h-1.023v1.024H60.4z M54.261,26.639v-1.023h-1.024v1.025h1.023v1.021h1.024v-1.023H54.261z M57.331,29.71
					v1.025h1.022v1.021h1.025v-1.023h-1.024V29.71H57.331z M41.973,26.622v1.024h1.023v-1.024H41.973z M48.117,28.668v-1.023h-1.024
					v1.025h1.023v1.021h1.024v-1.023H48.117z M46.067,30.718v-1.026h-1.023v1.026h1.021v1.023h1.025v-1.023H46.067z M44.021,28.668
					v-1.023h-1.025v1.025h1.024v1.021h1.024v-1.023H44.021z M48.112,32.767v1.021h1.024v-1.022h-1.023v-1.024H47.09v1.026H48.112z
					 M50.161,34.812v-1.024h-1.024v1.024H50.161z M35.861,24.592v1.023h1.024v-1.023H35.861z M50.165,30.718v-1.026H49.14v1.026
					h1.022v1.023h1.024v-1.023H50.165z M25.617,30.734V29.71h-1.023v1.025h1.022v1.021h1.024v-1.023H25.617z M52.209,32.765v-1.024
					h-1.023v1.026h1.022v1.021h1.025v-1.022H52.209z M53.233,34.812h1.023v-1.024h-1.023V34.812z M17.4,18.43v-1.024h-1.024v1.024
					H17.4z M21.497,18.43v-1.024h-1.025v1.024H21.497z M11.259,8.194v1.021h1.024V8.192H11.26V7.168h-1.024v1.026H11.259z
					 M19.449,16.382v1.023h1.023V16.38H19.45v-1.021h-1.024v1.023H19.449z M12.284,13.311v-1.025h-1.022v-1.021h-1.025v1.023h1.024
					v1.023H12.284z M15.356,12.288v1.023h1.023v-1.025h-1.022v-1.021h-1.025v1.023H15.356z M52.213,24.592v1.023h1.024v-1.023
					H52.213z M13.31,10.239v1.026h1.023v-1.026H13.31z M9.212,7.168h1.024V6.146H9.214V5.638C8.985,5.803,8.757,5.971,8.536,6.146
					h0.677V7.168z M9.213,10.239v1.026h1.023v-1.026H9.213z M15.352,16.382v1.023h1.023V16.38h-1.022v-1.021h-1.024v1.023H15.352z
					 M13.306,14.334v1.025h1.023v-1.025h-1.021v-1.023h-1.024v1.023H13.306z M27.664,32.781v-1.024H26.64v1.024H27.664z
					 M27.673,16.399v-1.023H26.65v1.023H27.673z M25.625,14.353v1.023h1.024v-1.025h-1.023V13.33h-1.023v1.023H25.625z
					 M19.486,8.208v1.025h1.024V8.208H19.486z M21.533,10.258v1.023h1.024v-1.025h-1.023V9.233h-1.023v1.024H21.533z M15.39,8.208
					v1.025h1.023V8.208H15.39z M19.482,12.304v1.026h1.024v-1.026h-1.022v-1.023h-1.023v1.023H19.482z M21.529,14.353v1.023h1.024
					v-1.025H21.53V13.33h-1.023v1.023H21.529z M17.437,10.258v1.023h1.024v-1.025h-1.023V9.233h-1.025v1.024H17.437z M23.577,16.399
					v-1.023h-1.023v1.023H23.577z M23.579,12.304v1.026h1.024v-1.026h-1.022v-1.023h-1.023v1.023H23.579z M13.331,26.622v1.024
					h1.023v-1.024H13.331z M13.307,10.241V9.215h-1.023v1.025H13.307z M19.471,32.765v-1.024h-1.023v1.026h1.022v1.021h1.024v-1.022
					H19.471z M17.425,30.718v-1.026h-1.023v1.026h1.021v1.023h1.024v-1.023H17.425z M23.567,32.781v-1.024h-1.023v1.024H23.567z
					 M21.52,30.734V29.71h-1.023v1.025h1.022v1.021h1.024v-1.023H21.52z M15.38,24.592v1.023h1.023v-1.023H15.38z M17.428,26.639
					v-1.023h-1.024v1.025h1.023v1.021h1.024v-1.023H17.428z M19.475,28.687v-1.025h-1.023v1.025h1.021v1.023h1.024v-1.023H19.475z
					 M20.494,34.812h1.023v-1.024h-1.023V34.812z M15.378,28.668v-1.023h-1.024v1.025h1.023v1.021h1.024v-1.023H15.378z
					 M10.285,32.781h1.023v-1.024h-1.023V32.781z M3.122,24.592v1.023h1.023v-1.023H3.122z M5.17,26.639v-1.023H4.146v1.025h1.023
					v1.021h1.024v-1.023H5.17z M9.234,26.622v1.024h1.023v-1.024H9.234z M7.216,28.687v-1.025H6.193v1.025h1.021v1.023h1.024v-1.023
					H7.216z M9.262,30.734V29.71H8.238v1.025h1.023v1.021h1.024v-1.023H9.262z M13.329,30.718v-1.026h-1.023v1.026h1.021v1.023
					h1.024v-1.023H13.329z M17.421,34.812v-1.024h-1.024v1.024H17.421z M11.282,28.668v-1.023h-1.024v1.025h1.023v1.021h1.024
					v-1.023H11.282z M15.373,32.767v1.021h1.024v-1.022h-1.023v-1.024h-1.023v1.026H15.373z M62.42,30.718v-1.026h-1.023v1.026
					h1.021v1.023h1.025v-1.023H62.42z M25.616,34.828v-1.021h-1.024v1.022h1.023v1.023h1.023v-1.025H25.616z M32.78,38.789h1.024
					v-0.887H32.78V38.789z M23.568,32.781v1.026h1.023v-1.026H23.568z M33.775,34.812v1.026h1.024v-1.026H33.775z M21.518,34.812
					v1.026h1.023v-1.026H21.518z M28.684,38.789h1.024v-0.887h-1.024V38.789z M31.759,36.876v-1.023h-1.024v1.023h1.022v1.025h1.023
					v-1.025H31.759z M35.823,36.859v-1.021h-1.024v1.022h1.023v1.023h1.023v-1.025H35.823z M36.846,38.789h1.025v-0.904h-1.025
					V38.789z M29.712,34.828v-1.021h-1.024v1.022h1.023v1.023h1.024v-1.025H29.712z M9.261,34.828v-1.021H8.236v0.807
					c0.093,0.076,0.194,0.142,0.289,0.216H9.26v0.55c0.228,0.162,0.457,0.321,0.692,0.474h0.331v-1.025H9.261z M27.662,36.876
					v-1.023h-1.024v1.023h1.022v1.025h1.023v-1.025H27.662z M15.404,36.876v-1.023h-1.025v1.023h1.023v1.025h1.023v-1.025H15.404z
					 M11.31,32.781v1.026h1.024v-1.026H11.31z M23.566,36.859v-1.021h-1.024v1.022h1.023v1.023h1.023v-1.025H23.566z M16.425,38.454
					c0.337,0.064,0.681,0.111,1.024,0.156v-0.708h-1.024V38.454z M7.213,32.781v0.904c0.043,0.042,0.09,0.08,0.134,0.122h0.889
					v-1.026H7.213z M13.357,34.828v-1.021h-1.024v1.022h1.023v1.023h1.023v-1.025H13.357z M24.588,38.789h1.024v-0.904h-1.024
					V38.789z M17.422,34.812v1.026h1.023v-1.026H17.422z M20.492,38.789h1.024v-0.904h-1.024V38.789z M19.47,36.859v-1.021h-1.024
					v1.022h1.023v1.023h1.023v-1.025H19.47z M27.665,32.781v1.026h1.023v-1.026H27.665z M56.306,36.859v-1.021H55.28v1.022h1.024
					v1.023h1.023v-1.025H56.306z M54.257,34.812v1.026h1.023v-1.026H54.257z M53.231,38.789h1.024v-0.904h-1.024V38.789z
					 M50.162,34.812v1.026h1.023v-1.026H50.162z M52.208,36.859v-1.021h-1.024v1.022h1.023v1.023h1.024v-1.025H52.208z
					 M57.328,38.789h1.024v-0.904h-1.024V38.789z M56.306,32.781v1.026h1.023v-1.026H56.306z M58.353,34.828v-1.021h-1.024v1.022
					h1.023v1.023h1.023v-1.025H58.353z M61.42,38.789h1.024v-0.887H61.42V38.789z M60.399,36.876v-1.023h-1.024v1.023h1.022v1.025
					h1.023v-1.025H60.399z M48.143,36.876v-1.023h-1.024v1.023h1.022v1.025h1.024v-1.025H48.143z M45.069,38.789h1.024v-0.887
					h-1.024V38.789z M42,34.828v-1.021h-1.024v1.022H42v1.023h1.024v-1.025H42z M44.047,36.876v-1.023h-1.024v1.023h1.022v1.025
					h1.023v-1.025H44.047z M37.873,34.812v1.026h1.023v-1.026H37.873z M44.049,32.781v1.026h1.023v-1.026H44.049z M39.919,36.859
					v-1.021h-1.024v1.022h1.023v1.023h1.023v-1.025H39.919z M39.953,32.781v1.026h1.023v-1.026H39.953z M40.942,38.789h1.024v-0.904
					h-1.024V38.789z M46.097,34.828v-1.021h-1.024v1.022h1.023v1.023h1.023v-1.025H46.097z M49.165,38.789h1.024v-0.887h-1.024
					V38.789z M18.434,2.267c-0.345,0.027-0.685,0.066-1.024,0.112v0.695h1.024V2.267z M58.335,6.146v1.022h1.024V6.146h-1.022V5.12
					h-1.023v1.026H58.335z M62.429,10.241V9.215h-1.022v1.025H62.429z M60.382,8.194v1.021h1.024V8.192h-1.023V7.168h-1.023v1.026
					H60.382z M55.267,2.194h-1.024v0.879h1.024V2.194z M56.289,4.099V5.12h1.024V4.097H56.29V3.074h-1.023v1.025H56.289z
					 M64.478,8.21V7.186h-1.025V8.21H64.478z M54.239,6.146v1.022h1.024V6.146H54.24V5.12h-1.023v1.026H54.239z M56.286,8.194v1.021
					h1.024V8.192h-1.023V7.168h-1.024v1.026H56.286z M51.171,2.194h-1.024v0.879h1.024V2.194z M52.193,4.099V5.12h1.023V4.097
					h-1.022V3.074h-1.023v1.025H52.193z M60.374,28.668v-1.023H59.35v1.025h1.023v1.021h1.024v-1.023H60.374z M62.434,2.194v0.895
					h1.024V2.194H62.434z M58.326,26.622v1.024h1.023v-1.024H58.326z M58.333,10.241V9.215H57.31v1.025H58.333z M33.785,18.43
					v-1.024h-1.024v1.024H33.785z M64.466,32.765v-1.024h-1.023v1.026h1.022v1.021h1.024v-1.022H64.466z M65.504,5.139v1.025h0.9
					V5.139H65.504z M60.383,4.116v1.023h1.023V4.116h-1.021V3.089h-1.024v1.026H60.383z M59.361,2.194h-1.023v0.895h1.023V2.194z
					 M62.43,6.164v1.021h1.023V6.162h-1.022V5.139h-1.024v1.025H62.43z M64.482,4.116V3.089h-1.024v1.026h1.022v1.023h1.024V4.116
					H64.482z M50.174,6.164v1.021h1.023V6.162h-1.022V5.139h-1.024v1.025H50.174z M35.836,8.21V7.186h-1.022V8.21H35.836z
					 M65.489,34.812h0.915v-1.024h-0.915V34.812z M47.105,2.194h-1.023v0.895h1.023V2.194z M27.646,4.116v1.023h1.024V4.116h-1.022
					V3.089h-1.023v1.026H27.646z M26.625,2.194h-1.024v0.895h1.024V2.194z M31.741,8.21V7.186h-1.023V8.21H31.741z M23.547,8.194
					v1.021h1.025V8.192h-1.024V7.168h-1.023v1.026H23.547z M25.596,10.241V9.215h-1.023v1.025H25.596z M19.456,4.099V5.12h1.024
					V4.097h-1.023V3.074h-1.023v1.025H19.456z M21.501,6.146v1.022h1.024V6.146h-1.022V5.12H20.48v1.026H21.501z M29.692,6.164
					v1.021h1.025V6.162h-1.024V5.139H28.67v1.025H29.692z M44.031,4.116v1.023h1.024V4.116h-1.021V3.089H43.01v1.026H44.031z
					 M52.222,8.21V7.186h-1.024V8.21H52.222z M43.01,2.194h-1.024v0.895h1.024V2.194z M10.283,36.054
					c0.337,0.208,0.673,0.416,1.024,0.603v-0.804h-1.024V36.054z M48.127,4.116v1.023h1.023V4.116h-1.021V3.089h-1.024v1.026H48.127
					z M33.79,6.164v1.021h1.024V6.162h-1.023V5.139h-1.023v1.025H33.79z M30.722,2.194h-1.025v0.895h1.025V2.194z M31.743,4.116
					v1.023h1.024V4.116h-1.022V3.089h-1.023v1.026H31.743z M48.125,8.21V7.186h-1.024V8.21H48.125z M46.078,6.164v1.021h1.023V6.162
					h-1.022V5.139h-1.024v1.025H46.078z M17.402,14.334v1.025h1.024v-1.025h-1.022v-1.023h-1.024v1.023H17.402z M7.191,20.478
					v-1.023H6.167v1.025H7.19v1.021h1.023v-1.023H7.191z M9.237,22.526v-1.025H8.213v1.025h1.022v1.023h1.023v-1.023H9.237z
					 M19.476,24.592v-1.025h-1.024v1.025H19.476z M11.283,24.574V23.55h-1.024v1.026h1.023v1.021h1.023v-1.023H11.283z
					 M5.142,18.432v1.023h1.024v-1.023H5.142z M7.192,16.401v1.024h1.023v-1.024H7.192z M9.24,18.448v-1.023H8.216v1.025h1.023
					v1.021h1.023v-1.023H9.24z M31.737,16.382v1.023h1.023V16.38h-1.022v-1.021h-1.023v1.023H31.737z M11.287,20.497v-1.025h-1.024
					v1.025h1.022v1.023h1.023v-1.023H11.287z M13.333,22.543V21.52h-1.024v1.025h1.023v1.022h1.023v-1.024H13.333z M15.379,24.592
					v-1.025h-1.024v1.025H15.379z M12.305,26.622h1.025v-1.025h-1.025V26.622z M11.288,16.399v-1.023h-1.023v1.023H11.288z
					 M5.148,11.281h1.024v-1.025H5.149V9.66c-0.148,0.2-0.308,0.392-0.447,0.598h0.446V11.281z M7.193,12.304v1.026h1.024v-1.026
					H7.195v-1.023H6.172v1.023H7.193z M7.163,9.215h1.024V8.192H7.164V7.344c-0.282,0.272-0.549,0.56-0.813,0.85h0.812V9.215z
					 M9.24,14.353v1.023h1.024v-1.025H9.241V13.33H8.218v1.023H9.24z M9.21,10.241V9.215H8.187v1.025H9.21z M3.092,20.48v1.021
					h1.025v-1.023H3.093v-1.023H2.07v1.025H3.092z M5.138,22.526v1.023h1.024v-1.023H5.14v-1.025H4.117v1.025H5.138z M7.186,24.576
					v1.021h1.023v-1.023H7.187V23.55H6.163v1.026H7.186z M9.233,26.622v-1.025H8.209v1.025H9.233z M17.428,22.545v1.022h1.023
					v-1.024h-1.023V21.52h-1.024v1.025H17.428z M27.672,20.497v-1.025h-1.024v1.025h1.022v1.023h1.023v-1.023H27.672z
					 M29.717,22.543V21.52h-1.024v1.025h1.023v1.022h1.024v-1.024H29.717z M31.766,21.52h1.023v-1.023h-1.021v-1.025h-1.024v1.025
					h1.022V21.52z M25.592,22.526v-1.025h-1.025v1.025h1.023v1.023h1.022v-1.023H25.592z M23.544,20.478v-1.023h-1.024v1.025h1.023
					v1.021h1.023v-1.023H23.544z M7.192,16.399v-1.023H6.168v1.023H7.192z M35.86,24.592v-1.025h-1.024v1.025H35.86z M33.813,22.545
					v1.022h1.023v-1.024h-1.022V21.52H32.79v1.025H33.813z M23.578,16.401v1.024h1.023v-1.024H23.578z M25.625,18.448v-1.023h-1.024
					v1.025h1.023v1.021h1.023v-1.023H25.625z M21.497,18.432v1.023h1.024v-1.023H21.497z M11.289,16.401v1.024h1.023v-1.024H11.289z
					 M25.588,26.622v-1.025h-1.025v1.025H25.588z M15.381,21.52h1.023v-1.023h-1.022v-1.025h-1.024v1.025h1.023V21.52z
					 M13.336,18.448v-1.023h-1.024v1.025h1.023v1.021h1.022v-1.023H13.336z M23.539,24.576v1.021h1.024v-1.023H23.54V23.55h-1.023
					v1.026H23.539z M28.659,26.622h1.024v-1.025h-1.024V26.622z M20.471,21.501v1.025h1.021v1.023h1.025v-1.023h-1.022v-1.025
					H20.471z M17.4,18.432v1.023h1.024v-1.023H17.4z M27.637,24.574V23.55h-1.025v1.026h1.023v1.021h1.023v-1.023H27.637z
					 M19.448,20.478v-1.023h-1.023v1.025h1.022v1.021h1.024v-1.023H19.448z M31.764,24.592v-1.025H30.74v1.025H31.764z
					 M27.645,8.194v1.021h1.024V8.192h-1.023V7.168h-1.024v1.026H27.645z M39.901,8.194v1.021h1.023V8.192h-1.022V7.168h-1.024
					v1.026H39.901z M23.551,4.099V5.12h1.025V4.097h-1.024V3.074h-1.023v1.025H23.551z M22.529,2.194h-1.024v0.879h1.024V2.194z
					 M19.484,8.21V7.186H18.46V8.21H19.484z M35.809,4.099V5.12h1.024V4.097H35.81V3.074h-1.024v1.025H35.809z M37.854,6.146v1.022
					h1.023V6.146h-1.021V5.12h-1.024v1.026H37.854z M29.691,10.241V9.215h-1.023v1.025H29.691z M17.437,6.164v1.021h1.023V6.162
					h-1.022V5.139h-1.025v1.025H17.437z M34.785,2.194h-1.023v0.879h1.023V2.194z M25.598,6.146v1.022h1.024V6.146H25.6V5.12h-1.023
					v1.026H25.598z M60.401,32.781v1.026h1.023v-1.026H60.401z M15.389,4.116v1.023h1.024V4.116h-1.022V3.089h-1.023v1.026H15.389z
					 M12.33,37.149v-0.272h-0.565C11.951,36.969,12.139,37.062,12.33,37.149z M64.496,36.876v-1.023h-1.024v1.023h1.022v1.025h1.024
					v-1.025H64.496z M65.518,38.789h0.887v-0.887h-0.887V38.789z M62.449,34.828v-1.021h-1.025v1.022h1.024v1.023h1.023v-1.025
					H62.449z M15.387,8.21V7.186h-1.023V8.21H15.387z M14.368,3.04c-0.046,0.015-0.089,0.035-0.135,0.05h0.135V3.04z M13.339,6.164
					v1.021h1.024V6.162H13.34V5.139h-1.023v1.025H13.339z M12.317,4.116h-0.572c-0.149,0.075-0.305,0.14-0.452,0.218v0.805h1.024
					V4.116z M39.905,4.099V5.12h1.023V4.097h-1.022V3.074h-1.024v1.025H39.905z M1.696,22.543c0.039,0.346,0.099,0.685,0.156,1.024
					h0.245v-1.024H1.696z M6.189,32.612c0.05,0.058,0.102,0.112,0.153,0.169h0.87v-1.024H6.189V32.612z M5.166,30.734V29.71H4.143
					v0.097c0.185,0.312,0.363,0.629,0.566,0.929h0.456v0.609c0.102,0.138,0.202,0.277,0.308,0.412h0.717v-1.023H5.166z
					 M65.525,26.641h0.879v-1.025h-0.879V26.641z M3.528,28.687c0.175,0.348,0.359,0.688,0.556,1.023h0.059v-1.023H3.528z
					 M2.097,24.592h1.024v-1.025H2.097V24.592z M4.122,12.304H3.525c-0.147,0.293-0.296,0.586-0.428,0.889v0.137h1.025V12.304z
					 M3.12,27.839v-0.178H3.034C3.061,27.722,3.094,27.779,3.12,27.839z M3.094,17.406h1.024V16.38H3.095v-1.021H2.317
					c-0.092,0.315-0.171,0.636-0.246,0.958v0.065h1.023V17.406z M5.142,18.43v-1.024H4.118v1.024H5.142z M64.506,20.497v-1.025
					h-1.024v1.025h1.022v1.023h1.022v-1.023H64.506z M41.951,6.146v1.022h1.024V6.146h-1.022V5.12h-1.024v1.026H41.951z
					 M46.045,10.241V9.215h-1.024v1.025H46.045z M43.998,8.194v1.021h1.023V8.192h-1.022V7.168h-1.024v1.026H43.998z M64.503,24.592
					v1.023h1.022v-1.023H64.503z M5.144,14.353v1.023h1.024v-1.025H5.145V13.33H4.122v1.023H5.144z M38.882,2.194h-1.023v0.879
					h1.023V2.194z M65.526,22.545h0.878V21.52h-0.878V22.545z M60.411,16.401v1.024h1.023v-1.024H60.411z M62.459,18.448v-1.023
					h-1.024v1.025h1.023v1.021h1.023v-1.023H62.459z M41.949,10.241V9.215h-1.024v1.025H41.949z M2.07,18.432H1.697
					c-0.038,0.337-0.052,0.681-0.071,1.023H2.07V18.432z M56.314,16.399v-1.023h-1.024v1.023H56.314z M54.266,14.353v1.023h1.024
					v-1.025h-1.023V13.33h-1.023v1.023H54.266z M50.174,10.258v1.023h1.024v-1.025h-1.023V9.233h-1.023v1.024H50.174z
					 M46.047,10.239v1.026h1.024v-1.026H46.047z M52.22,12.304v1.026h1.024v-1.026h-1.022v-1.023h-1.023v1.023H52.22z
					 M52.186,16.382v1.023h1.023V16.38h-1.022v-1.021h-1.024v1.023H52.186z M54.234,18.43v-1.024h-1.024v1.024H54.234z
					 M41.951,10.239v1.026h1.025v-1.026H41.951z M48.127,8.208v1.025h1.025V8.208H48.127z M48.094,12.288v1.023h1.024v-1.025h-1.023
					v-1.021h-1.023v1.023H48.094z M50.14,14.334v1.025h1.023v-1.025h-1.021v-1.023h-1.023v1.023H50.14z M43.998,12.288v1.023h1.024
					v-1.025h-1.023v-1.021h-1.023v1.023H43.998z M62.43,14.334v-1.023h-1.023v1.023h1.022v1.025h1.023v-1.025H62.43z M64.477,16.38
					v-1.021h-1.025v1.023h1.023v1.023h1.024V16.38H64.477z M65.499,18.43h0.905v-1.024h-0.905V18.43z M58.336,10.239v1.026h1.023
					v-1.026H58.336z M60.383,12.286v-1.021h-1.024v1.023h1.023v1.023h1.023v-1.025H60.383z M57.34,13.33v1.023h1.022v1.023h1.024
					v-1.025h-1.023V13.33H57.34z M56.318,12.304v-1.023h-1.024v1.023h1.022v1.026h1.024v-1.026H56.318z M52.224,8.208v1.025h1.024
					V8.208H52.224z M60.41,16.399v-1.023h-1.023v1.023H60.41z M54.271,10.256V9.233h-1.023v1.024h1.022v1.023h1.024v-1.025H54.271z
					 M46.043,14.334v1.025h1.024v-1.025h-1.022v-1.023h-1.023v1.023H46.043z M31.742,12.288v1.023h1.023v-1.025h-1.022v-1.021
					h-1.024v1.023H31.742z M35.833,16.382v1.023h1.024V16.38h-1.023v-1.021h-1.023v1.023H35.833z M33.787,14.334v1.025h1.023v-1.025
					H33.79v-1.023h-1.025v1.023H33.787z M29.694,10.239v1.026h1.024v-1.026H29.694z M39.93,16.399v-1.023h-1.025v1.023H39.93z
					 M37.882,18.43v-1.024h-1.024v1.024H37.882z M29.69,14.334v1.025h1.024v-1.025h-1.022v-1.023h-1.024v1.023H29.69z
					 M27.646,12.288v1.023h1.023v-1.025h-1.022v-1.021h-1.025v1.023H27.646z M25.599,10.239v1.026h1.023v-1.026H25.599z
					 M37.883,14.353v1.023h1.022v-1.025h-1.021V13.33h-1.024v1.023H37.883z M33.791,10.258v1.023h1.023v-1.025h-1.022V9.233h-1.024
					v1.024H33.791z M39.933,12.304v1.026h1.022v-1.026h-1.021v-1.023h-1.025v1.023H39.933z M37.887,10.258v1.023h1.022v-1.025
					h-1.021V9.233h-1.024v1.024H37.887z M35.84,8.208v1.025h1.024V8.208H35.84z M35.835,12.304v1.026h1.024v-1.026h-1.022v-1.023
					h-1.024v1.023H35.835z M48.09,16.382v1.023h1.024V16.38h-1.023v-1.021h-1.023v1.023H48.09z M50.138,18.43v-1.024h-1.024v1.024
					H50.138z M41.978,14.353v1.023h1.024v-1.025h-1.023V13.33h-1.024v1.023H41.978z M31.744,8.208v1.025h1.023V8.208H31.744z
					 M65.503,14.334h0.901v-1.023h-0.901V14.334z M44.026,16.399v-1.023h-1.024v1.023H44.026z M58.329,22.526v-1.025h-1.024v1.025
					h1.022v1.023h1.023v-1.023H58.329z M41.977,18.448v-1.023h-1.023v1.025h1.022v1.021h1.025v-1.023H41.977z M44.024,20.497v-1.025
					h-1.023v1.025h1.021v1.023h1.024v-1.023H44.024z M48.116,24.592v-1.025h-1.023v1.025H48.116z M46.07,22.543V21.52h-1.023v1.025
					h1.022v1.022h1.025v-1.024H46.07z M39.93,16.401v1.024h1.024v-1.024H39.93z M37.882,18.432v1.023h1.023v-1.023H37.882z
					 M64.48,12.286v-1.021h-1.024v1.023h1.023v1.023h1.024v-1.025H64.48z M46.074,18.448v-1.023H45.05v1.025h1.022v1.021h1.024
					v-1.023H46.074z M48.12,20.497v-1.025h-1.023v1.025h1.021v1.023h1.024v-1.023H48.12z M50.167,22.543V21.52h-1.024v1.025h1.023
					v1.022h1.023v-1.024H50.167z M39.926,24.574V23.55h-1.025v1.026h1.023v1.021h1.024v-1.023H39.926z M44.026,16.401v1.024h1.024
					v-1.024H44.026z M37.879,22.526v-1.025h-1.023v1.025h1.021v1.023h1.024v-1.023H37.879z M41.972,26.622v-1.025h-1.024v1.025
					H41.972z M38.905,19.455v1.025h1.024v1.021h1.023v-1.023H39.93v-1.023H38.905z M35.832,20.478v-1.023H34.81v1.025h1.021v1.021
					h1.025v-1.023H35.832z M27.674,16.401v1.024h1.023v-1.024H27.674z M44.021,24.576v1.021h1.023v-1.023h-1.022V23.55h-1.025v1.026
					H44.021z M41.974,22.526v1.023h1.023v-1.023h-1.021v-1.025h-1.024v1.025H41.974z M46.068,26.622v-1.025h-1.024v1.025H46.068z
					 M33.785,18.432v1.023h1.024v-1.023H33.785z M52.212,24.592v-1.025h-1.024v1.025H52.212z M56.315,16.401v1.024h1.023v-1.024
					H56.315z M58.363,18.448v-1.023h-1.024v1.025h1.023v1.021h1.023v-1.023H58.363z M60.409,20.497v-1.025h-1.024v1.025h1.022v1.023
					h1.023v-1.023H60.409z M62.422,26.622v1.024h1.023v-1.024H62.422z M62.454,22.545v1.022h1.023v-1.024h-1.022V21.52h-1.024v1.025
					H62.454z M65.494,30.718h0.91v-1.026h-0.91V30.718z M64.502,24.592v-1.025h-1.024v1.025H64.502z M65.505,10.258h0.899V9.233
					h-0.899V10.258z M62.432,10.239v1.026h1.024v-1.026H62.432z M64.48,8.208v1.025h1.025V8.208H64.48z M62.421,26.622v-1.025
					h-1.024v1.025H62.421z M52.185,20.478v-1.023h-1.023v1.025h1.022v1.021h1.024v-1.023H52.185z M50.138,18.432v1.023h1.024v-1.023
					H50.138z M64.47,28.668v-1.023h-1.024v1.025h1.023v1.021h1.025v-1.023H64.47z M56.279,24.574V23.55h-1.025v1.026h1.023v1.021
					h1.023v-1.023H56.279z M57.301,26.622h1.024v-1.025h-1.024V26.622z M54.232,22.526v-1.025h-1.023v1.025h1.021v1.023h1.024
					v-1.023H54.232z M56.283,20.478v-1.023h-1.025v1.025h1.024v1.021h1.023v-1.023H56.283z M54.234,18.432v1.023h1.024v-1.023
					H54.234z M60.375,24.574V23.55h-1.024v1.026h1.023v1.021h1.023v-1.023H60.375z M29.722,18.448v-1.023h-1.024v1.025h1.023v1.021
					h1.023v-1.023H29.722z"/>
			</g>
		</g>
		<linearGradient id="SVGID_1_" gradientUnits="userSpaceOnUse" x1="98.0889" y1="2.4546" x2="98.0889" y2="38.5146">
			<stop  offset="0" style="stop-color:#FFFFFF"/>
			<stop  offset="1" style="stop-color:#B3B3B3"/>
			<stop  offset="1" style="stop-color:#8C8C8C"/>
		</linearGradient>
		<path fill="url(#SVGID_1_)" stroke="#333333" stroke-width="1.9942" d="M130.029,20.484c0,9.958-8.072,18.03-18.029,18.03H66.148
			V2.455H112C121.957,2.455,130.029,10.527,130.029,20.484L130.029,20.484z"/>
		<g id="Shape_1_1_">
			<g>
				<path fill-rule="evenodd" clip-rule="evenodd" d="M37.035,14.488h-4v4h-4v4h4v4h4v-4h4v-4h-4V14.488z M91.028,18.487v4h11.998
					v-4H91.028z"/>
			</g>
		</g>
		<path fill="none" stroke="#333333" stroke-width="1.9942" d="M2.053,20.484c0,9.958,8.072,18.03,18.029,18.03h45.852V2.455H20.082
			C10.125,2.455,2.053,10.527,2.053,20.484L2.053,20.484z"/>
	</g>
</switch>
</svg>
