<?xml version="1.0" encoding="utf-8"?>
<!-- Generator: Adobe Illustrator 13.0.2, SVG Export Plug-In . SVG Version: 6.00 Build 14948)  -->
<!DOCTYPE svg PUBLIC "-//W3C//DTD SVG 1.1//EN" "http://www.w3.org/Graphics/SVG/1.1/DTD/svg11.dtd" [
	<!ENTITY ns_extend "http://ns.adobe.com/Extensibility/1.0/">
	<!ENTITY ns_ai "http://ns.adobe.com/AdobeIllustrator/10.0/">
	<!ENTITY ns_graphs "http://ns.adobe.com/Graphs/1.0/">
	<!ENTITY ns_vars "http://ns.adobe.com/Variables/1.0/">
	<!ENTITY ns_imrep "http://ns.adobe.com/ImageReplacement/1.0/">
	<!ENTITY ns_sfw "http://ns.adobe.com/SaveForWeb/1.0/">
	<!ENTITY ns_custom "http://ns.adobe.com/GenericCustomNamespace/1.0/">
	<!ENTITY ns_adobe_xpath "http://ns.adobe.com/XPath/1.0/">
]>
<svg version="1.1" id="Layer_1" xmlns:x="&ns_extend;" xmlns:i="&ns_ai;" xmlns:graph="&ns_graphs;"
	 xmlns="http://www.w3.org/2000/svg" xmlns:xlink="http://www.w3.org/1999/xlink" x="0px" y="0px" width="131.027px"
	 height="69.481px" viewBox="0 0 131.027 69.481" enable-background="new 0 0 131.027 69.481" xml:space="preserve">
<switch>
	<g i:extraneous="self">
		<g id="label_copy_3_1_">
			<g>
				<path fill-rule="evenodd" clip-rule="evenodd" fill="#E6E6E6" d="M90.973,18.487H38.979c-7.179,0-12.998,5.819-12.998,12.998
					v24.997c0,7.18,5.819,12.999,12.998,12.999h51.994c7.179,0,12.998-5.819,12.998-12.999V31.485
					C103.971,24.307,98.151,18.487,90.973,18.487z"/>
			</g>
		</g>
		<path fill="#D93D3D" stroke="#4D4D4D" stroke-width="1.9942" d="M128.974,20.484c0,9.958-8.072,18.03-18.029,18.03H65.093V2.455
			h45.852C120.901,2.455,128.974,10.527,128.974,20.484L128.974,20.484z"/>
		<g>
			<g>
				<path d="M80.886,14.334h-1.021v1.025h1.023v-1.025h1.021v-1.023h-1.023V14.334z M82.933,12.286h-1.023v1.025h1.024v-1.023h1.022
					v-1.023h-1.023V12.286z M83.956,11.265h1.024v-1.026h-1.024V11.265z M74.713,16.399h1.024v-1.023h-1.024V16.399z M82.937,16.38
					h-1.023v1.025h1.024v-1.023h1.022v-1.023h-1.023V16.38z M76.761,14.351h-1.023v1.025h1.023v-1.023h1.022V13.33h-1.022V14.351z
					 M84.982,14.334H83.96v1.025h1.024v-1.025h1.021v-1.023h-1.022V14.334z M87.028,12.286h-1.023v1.025h1.025v-1.023h1.021v-1.023
					h-1.023V12.286z M76.794,18.43h1.023v-1.024h-1.023V18.43z M88.052,11.265h1.025v-1.026h-1.025V11.265z M78.841,16.38h-1.023
					v1.025h1.023v-1.023h1.023v-1.023h-1.023V16.38z M76.756,10.256h-1.022v1.025h1.023v-1.023h1.022V9.233h-1.023V10.256z
					 M77.779,9.233h1.024V8.208h-1.024V9.233z M74.712,16.401h-1.023v1.024h1.023V16.401z M74.709,12.304h-1.022v1.026h1.024v-1.026
					h1.022v-1.023h-1.024V12.304z M72.665,18.45h1.023v-1.025h-1.023v1.023h-1.023v1.023h1.023V18.45z M70.617,16.399h1.022v-1.023
					h-1.022V16.399z M80.853,10.256h-1.023v1.025h1.023v-1.023h1.022V9.233h-1.022V10.256z M81.875,9.233h1.024V8.208h-1.024V9.233z
					 M78.806,12.304h-1.022v1.026h1.024v-1.026h1.021v-1.023h-1.023V12.304z M72.663,14.351H71.64v1.025h1.025v-1.023h1.021V13.33
					h-1.023V14.351z M93.147,22.526h-1.021v1.023h1.023v-1.023h1.021v-1.025h-1.023V22.526z M95.193,16.38H94.17v1.025h1.024v-1.023
					h1.022v-1.023h-1.023V16.38z M93.146,18.43h1.024v-1.024h-1.024V18.43z M95.196,20.48h1.021v-1.025h-1.022v1.023h-1.024v1.023
					h1.025V20.48z M97.237,14.334h-1.021v1.025h1.023v-1.025h1.022v-1.023h-1.025V14.334z M80.89,18.43h1.023v-1.024H80.89V18.43z
					 M96.191,23.567h-1.024v1.025h1.024V23.567z M89.056,26.622h1.023v-1.025h-1.023V26.622z M91.101,24.574h-1.021v1.023h1.023
					v-1.021h1.023V23.55h-1.025V24.574z M66.525,24.592h1.024v-1.025h-1.024V24.592z M97.242,18.432h-1.024v1.023h1.024V18.432z
					 M100.309,11.265h1.024v-1.026h-1.024V11.265z M89.048,14.351h-1.023v1.025h1.025v-1.023h1.022V13.33h-1.024V14.351z
					 M91.093,12.304h-1.021v1.026h1.022v-1.026h1.023v-1.023h-1.025V12.304z M93.14,10.256h-1.021v1.025h1.022v-1.023h1.022V9.233
					H93.14V10.256z M94.163,9.233h1.024V8.208h-1.024V9.233z M87.001,16.399h1.023v-1.023h-1.023V16.399z M98.261,9.233h1.023V8.208
					h-1.023V9.233z M95.19,12.304h-1.022v1.026h1.024v-1.026h1.021v-1.023H95.19V12.304z M91.097,16.399h1.025v-1.023h-1.025V16.399
					z M93.144,14.351h-1.021v1.025h1.022v-1.023h1.023V13.33h-1.024V14.351z M97.235,10.256h-1.021v1.025h1.023v-1.023h1.023V9.233
					h-1.025V10.256z M99.284,12.286h-1.021v1.025h1.023v-1.023h1.022v-1.023h-1.024V12.286z M87.005,20.497h1.021v-1.025h-1.023
					v1.025h-1.021v1.023h1.023V20.497z M89.052,18.45h1.021v-1.025H89.05v1.023h-1.023v1.023h1.025V18.45z M84.959,22.545h1.022
					V21.52h-1.023v1.023h-1.023v1.024h1.024V22.545z M93.146,18.432h-1.023v1.023h1.023V18.432z M91.097,16.401h-1.023v1.024h1.023
					V16.401z M83.935,23.567h-1.023v1.025h1.023V23.567z M87.001,16.401h-1.023v1.024h1.023V16.401z M83.931,19.471h-1.023v1.025
					h-1.021v1.023h1.023v-1.023h1.021V19.471z M80.86,22.543h-1.021v1.024h1.023v-1.022h1.023V21.52H80.86V22.543z M84.954,18.45
					h1.023v-1.025h-1.023v1.023h-1.023v1.023h1.023V18.45z M68.572,22.543H67.55v1.024h1.023v-1.022h1.023V21.52h-1.024V22.543z
					 M91.073,28.687h1.021v-1.025h-1.023v1.025H90.05v1.023h1.023V28.687z M86.979,32.781h1.022v-1.024h-1.022V32.781z
					 M93.119,26.641h1.022v-1.025h-1.023v1.023h-1.023v1.023h1.024V26.641z M107.45,16.401h-1.023v1.024h1.023V16.401z
					 M89.026,30.734h-1.024v1.023h1.024v-1.021h1.023V29.71h-1.023V30.734z M85.983,25.597h-1.024v1.025h1.024V25.597z
					 M78.815,24.592h1.023v-1.025h-1.023V24.592z M89.054,22.526h1.021v-1.025h-1.023v1.025H88.03v1.023h1.023V22.526z
					 M91.099,20.48h1.023v-1.025h-1.025v1.023h-1.021v1.023h1.023V20.48z M95.166,24.592h-1.024v1.023h1.024V24.592z M87.006,24.576
					h1.024V23.55h-1.025v1.024h-1.021v1.023h1.022V24.576z M80.89,18.432h-1.024v1.023h1.024V18.432z M69.63,25.597h-1.023v1.025
					h1.023V25.597z M76.798,22.526h1.021v-1.025h-1.023v1.025h-1.022v1.023h1.024V22.526z M70.653,24.576h1.023V23.55h-1.023v1.024
					H69.63v1.023h1.023V24.576z M74.75,24.576h1.023V23.55h-1.024v1.024h-1.022v1.023h1.023V24.576z M78.843,20.48h1.022v-1.025
					h-1.022v1.023h-1.023v1.023h1.023V20.48z M69.597,21.52h1.023v-1.023h1.021v-1.025h-1.023v1.025h-1.021V21.52z M76.794,18.432
					H75.77v1.023h1.024V18.432z M74.745,20.48h1.024v-1.025h-1.024v1.023h-1.023v1.023h1.023V20.48z M72.7,22.526h1.021v-1.025
					h-1.023v1.025h-1.021v1.023H72.7V22.526z M75.747,31.757h-1.024v1.024h1.024V31.757z M80.862,26.641h1.023v-1.025h-1.023v1.023
					h-1.023v1.023h1.023V26.641z M72.674,30.734h-1.024v1.023h1.025v-1.021h1.021V29.71h-1.022V30.734z M73.727,25.597h-1.024v1.025
					h1.024V25.597z M76.771,30.736h1.022V29.71h-1.022v1.023h-1.023v1.023h1.023V30.736z M78.817,28.687h1.021v-1.025h-1.023v1.025
					h-1.022v1.023h1.024V28.687z M82.91,24.592h-1.024v1.023h1.024V24.592z M70.627,32.781h1.022v-1.024h-1.022V32.781z
					 M76.767,26.641h1.023v-1.025h-1.023v1.023h-1.023v1.023h1.023V26.641z M78.813,24.592H77.79v1.023h1.023V24.592z
					 M74.721,28.687h1.022v-1.025h-1.024v1.025h-1.022v1.023h1.024V28.687z M103.39,24.574h-1.021v1.023h1.023v-1.021h1.023V23.55
					h-1.025V24.574z M121.765,30.734h-1.022v1.023h1.024v-1.021h1.022V29.71h-1.024V30.734z M126.882,25.615h1.023v-1.023h-1.023
					V25.615z M123.812,28.687h-1.022v1.023h1.024v-1.023h1.021v-1.025h-1.022V28.687z M121.793,26.622h-1.023v1.024h1.023V26.622z
					 M125.856,26.639h-1.022v1.023h1.024v-1.021h1.023v-1.025h-1.025V26.639z M119.746,28.67h1.023v-1.025h-1.024v1.023h-1.023
					v1.023h1.024V28.67z M119.719,32.781h1.023v-1.024h-1.023V32.781z M111.571,4.099h1.022V3.074h-1.022v1.023h-1.023V5.12h1.023
					V4.099z M108.502,7.168h1.024V6.146h1.021V5.12h-1.023v1.026h-1.022V7.168z M123.864,8.194h0.245
					c-0.083-0.089-0.16-0.183-0.245-0.27v0.268h-1.023v1.023h1.023V8.194z M122.814,21.501h-1.024v1.025h-1.021v1.023h1.023v-1.023
					h1.022V21.501z M117.696,26.622h-1.023v1.024h1.023V26.622z M114.626,29.691h-1.023v1.026h-1.022v1.023h1.024v-1.023h1.021
					V29.691z M115.649,28.67h1.023v-1.025h-1.023v1.023h-1.023v1.023h1.023V28.67z M123.837,20.48h1.023v-1.025h-1.023v1.023h-1.022
					v1.023h1.022V20.48z M125.886,18.432h-1.025v1.023h1.025V18.432z M117.7,30.718h1.021v-1.026h-1.023v1.026h-1.021v1.023h1.023
					V30.718z M111.557,32.765h-1.023v1.022h1.024v-1.021h1.022v-1.026h-1.023V32.765z M115.654,32.767h1.022v-1.026h-1.023v1.024
					h-1.023v1.022h1.024V32.767z M114.63,33.788h-1.023v1.024h1.023V33.788z M109.511,34.812h1.022v-1.024h-1.022V34.812z
					 M121.817,10.241h1.023V9.215h-1.023V10.241z M118.694,33.807h1.023v-1.026h-1.023V33.807z M113.577,38.3
					c0.343-0.05,0.689-0.09,1.025-0.159v-0.239h-1.025V38.3z M117.67,34.828h-1.022v1.025h1.023V34.83h1.023v-1.022h-1.024V34.828z
					 M115.623,36.876h-1.021v1.025h0.932c0.03-0.008,0.061-0.016,0.091-0.023v-1.002h1.022v-1.023h-1.024V36.876z M109.511,38.514
					h1.024v-0.63h-1.024V38.514z M113.604,34.812h-1.022v1.026h1.022V34.812z M124.838,31.757h0.165
					c0.267-0.332,0.522-0.672,0.766-1.023h-0.931V31.757z M123.815,32.781h0.289c0.248-0.266,0.501-0.527,0.733-0.807v-0.217h-1.022
					V32.781z M121.767,34.828h-1.022v0.777c0.352-0.228,0.688-0.474,1.022-0.725V34.83h0.067c0.328-0.249,0.647-0.506,0.957-0.776
					v-0.246h-1.024V34.828z M122.791,33.807h0.271c0.255-0.231,0.511-0.461,0.752-0.706v-0.32h-1.022V33.807z M105.432,10.241h1.022
					V9.215h-1.022V10.241z M65.523,5.139h-0.431v1.025h0.431V5.139z M66.548,4.116h1.021V3.089h-1.023v1.026h-1.022v1.023h1.024
					V4.116z M68.594,2.455h-1.024v0.635h1.024V2.455z M113.618,2.674c-0.34-0.051-0.679-0.105-1.024-0.136v0.536h1.024V2.674z
					 M107.479,8.192h-1.025v1.023h1.025V8.194h1.022V7.168h-1.022V8.192z M70.626,32.781h-1.023v1.026h1.023V32.781z M65.093,38.514
					h0.417v-0.612h-0.417V38.514z M69.603,33.807h-1.024v1.021h-1.022v1.025h1.023V34.83h1.023V33.807z M111.558,36.859h-1.022
					v1.025h1.023v-1.023h1.023v-1.022h-1.024V36.859z M66.532,36.876H65.51v1.025h1.024v-1.025h1.021v-1.023h-1.023V36.876z
					 M123.835,16.399h1.023v-1.023h-1.023V16.399z M105.436,22.526h-1.021v1.023h1.022v-1.023h1.022v-1.025h-1.024V22.526z
					 M107.446,12.304h-1.021v1.026h1.023v-1.026h1.021v-1.023h-1.023V12.304z M108.507,19.455h1.023v-1.023h-1.023V19.455z
					 M103.354,16.399h1.023v-1.023h-1.023V16.399z M105.401,14.351h-1.023v1.025h1.023v-1.023h1.023V13.33h-1.023V14.351z
					 M107.483,20.478h-1.023v1.023h1.023V20.48h1.023v-1.025h-1.023V20.478z M113.624,14.334h-1.022v1.025h1.024v-1.025h1.021
					v-1.023h-1.023V14.334z M105.403,18.45h1.023v-1.025h-1.025v1.023h-1.021v1.023h1.023V18.45z M111.577,16.38h-1.021v1.025h1.023
					v-1.023h1.022v-1.023h-1.024V16.38z M101.345,26.622h1.023v-1.025h-1.023V26.622z M114.647,13.311h1.023v-1.023h1.023v-1.023
					h-1.024v1.021h-1.022V13.311z M104.405,11.265h1.023v-1.026h-1.023V11.265z M103.354,16.401h-1.023v1.024h1.023V16.401z
					 M101.307,18.45h1.023v-1.025h-1.024v1.023h-1.022v1.023h1.023V18.45z M103.381,12.286h-1.022v1.025h1.023v-1.023h1.023v-1.023
					h-1.024V12.286z M99.261,20.497h1.022v-1.025h-1.024v1.025h-1.021v1.023h1.023V20.497z M99.289,16.38h-1.022v1.025h1.023v-1.023
					h1.022v-1.023h-1.023V16.38z M110.517,9.233h1.024V8.208h-1.024V9.233z M97.242,18.43h1.024v-1.024h-1.024V18.43z
					 M109.493,10.256h-1.023v1.025h1.025v-1.023h1.021V9.233h-1.023V10.256z M101.335,14.334h-1.022v1.025h1.024v-1.025h1.021
					v-1.023h-1.023V14.334z M121.786,14.351h-1.023v1.025h1.024v-1.023h1.022V13.33h-1.023V14.351z M125.886,18.43h1.023v-1.024
					h-1.023V18.43z M128.922,19.455h-0.987v1.023h-1.024v1.023h1.024V20.48h1.023v-0.305
					C128.954,19.933,128.936,19.694,128.922,19.455z M126.909,17.406h1.023v-1.023h0.555c-0.081-0.344-0.164-0.687-0.264-1.023
					h-0.291v1.021h-1.023V17.406z M124.858,15.375h1.025v-1.023h1.021V13.33h-1.023v1.021h-1.023V15.375z M97.214,22.545h1.023
					V21.52h-1.023v1.023h-1.022v1.024h1.022V22.545z M121.794,26.622h1.024v-1.025h-1.024V26.622z M126.996,12.304h-0.091v1.026
					h0.586C127.34,12.98,127.169,12.641,126.996,12.304z M117.697,26.622h1.024v-1.025h-1.024V26.622z M125.888,22.526h-1.023v1.023
					h1.025v-1.023h1.021v-1.025h-1.022V22.526z M123.841,24.574h-1.022v1.023h1.022v-1.021h1.023V23.55h-1.023V24.574z
					 M123.832,12.304h-1.022v1.026h1.024v-1.026h1.021v-1.023h-1.023V12.304z M109.497,14.351h-1.023v1.025h1.025v-1.023h1.021
					V13.33h-1.023V14.351z M113.589,10.256h-1.022v1.025h1.024v-1.023h1.023V9.233h-1.025V10.256z M111.543,12.304h-1.022v1.026
					h1.024v-1.026h1.021v-1.023h-1.023V12.304z M114.614,9.233h1.023V8.208h-1.023V9.233z M119.739,16.399h1.023v-1.023h-1.023
					V16.399z M117.718,10.239h-1.023v1.026h1.023V10.239z M109.53,18.43h1.025v-1.024h-1.025V18.43z M107.45,16.399h1.023v-1.023
					h-1.023V16.399z M119.744,24.574h-1.022v1.023h1.023v-1.021h1.023V23.55h-1.024V24.574z M125.88,10.384
					c-0.03-0.044-0.065-0.084-0.097-0.128h-0.928v1.025h1.024V10.384z M101.312,22.545h1.023V21.52h-1.025v1.023h-1.022v1.024h1.024
					V22.545z M82.911,28.67h1.023v-1.025H82.91v1.023h-1.022v1.023h1.023V28.67z M80.864,30.718h1.023v-1.026h-1.025v1.026h-1.021
					v1.023h1.023V30.718z M78.819,32.767h1.021v-1.026h-1.023v1.024h-1.023v1.022h1.025V32.767z M75.747,35.838h1.023v-1.026h-1.023
					V35.838z M84.958,26.622h-1.023v1.024h1.023V26.622z M77.794,33.788h-1.023v1.024h1.023V33.788z M68.583,38.514h1.023v-0.612
					h-1.023V38.514z M72.676,34.83h1.022v-1.022h-1.023v1.021h-1.022v1.025h1.023V34.83z M74.722,32.781h-1.023v1.026h1.023V32.781z
					 M70.628,36.876h-1.021v1.025h1.023v-1.025h1.022v-1.023h-1.024V36.876z M65.538,33.788h-0.445v1.024h0.445V33.788z
					 M86.978,32.781h-1.023v1.026h1.023V32.781z M81.892,33.788h-1.025v1.024h1.025V33.788z M80.866,34.812h-1.023v1.026h1.023
					V34.812z M78.819,36.859h-1.023v1.025h1.023v-1.023h1.023v-1.022h-1.023V36.859z M76.772,38.514h1.023v-0.63h-1.023V38.514z
					 M74.722,36.859H73.7v1.025h1.022v-1.023h1.024v-1.022h-1.025V36.859z M72.676,38.514H73.7v-0.63h-1.024V38.514z M84.962,30.718
					h1.021v-1.026H84.96v1.026h-1.023v1.023h1.025V30.718z M89.054,26.622H88.03v1.024h1.023V26.622z M87.007,28.67h1.023v-1.025
					h-1.024v1.023h-1.022v1.023h1.023V28.67z M82.915,32.767h1.021v-1.026h-1.022v1.024h-1.022v1.022h1.023V32.767z M70.645,12.288
					h1.023v-1.023h-1.024v1.021h-1.022v1.025h1.023V12.288z M66.552,16.382h1.023v-1.023h-1.024v1.021h-1.022v1.025h1.023V16.382z
					 M68.599,14.334h1.022v-1.023h-1.023L68.599,14.334h-1.023v1.025h1.023V14.334z M70.616,16.401h-1.023v1.024h1.023V16.401z
					 M65.528,17.406h-0.436v1.024h0.436V17.406z M72.691,10.239h-1.023v1.026h1.023V10.239z M68.596,10.239h-1.024v1.026h1.024
					V10.239z M66.548,12.288h1.023v-1.023h-1.023v1.021h-1.023v1.025h1.023V12.288z M65.524,13.311h-0.432v1.023h0.432V13.311z
					 M68.569,18.45h1.023v-1.025h-1.024v1.023h-1.022v1.023h1.023V18.45z M65.502,25.615h-0.409v1.025h0.409V25.615z M72.701,26.622
					h-1.023v1.024h1.023V26.622z M65.533,29.691h-0.44v1.026h0.44V29.691z M66.558,28.67h1.023v-1.025h-1.023v1.023h-1.024v1.023
					h1.024V28.67z M68.609,30.718h1.021v-1.026h-1.022v1.026h-1.022v1.023h1.024V30.718z M70.655,28.67h1.022v-1.025h-1.024v1.023
					H69.63v1.023h1.025V28.67z M66.524,24.592h-1.022v1.023h1.022V24.592z M68.604,26.622h-1.023v1.024h1.023V26.622z M65.501,21.52
					h-0.408v1.025h0.408V21.52z M66.523,20.497h1.022v-1.025h-1.024v1.025h-1.021v1.023h1.022V20.497z M66.562,32.767h1.023v-1.026
					h-1.023v1.024h-1.023v1.022h1.023V32.767z M116.673,23.567h-1.025v1.025h1.025V23.567z M115.647,24.592h-1.023v1.023h1.023
					V24.592z M113.601,26.641h1.023v-1.025h-1.025v1.023h-1.023v1.023h1.025V26.641z M111.555,28.687h1.021v-1.025h-1.023v1.025
					h-1.021v1.023h1.024V28.687z M110.53,29.71h-1.023v1.023h-1.023v1.023h1.025v-1.021h1.021V29.71z M107.46,32.781h1.023v-1.024
					h-1.023V32.781z M106.437,33.807h1.023v-1.026h-1.023V33.807z M119.742,20.497h1.022v-1.025h-1.024v1.025h-1.021v1.023h1.023
					V20.497z M65.522,9.233h-0.43v1.024h0.43V9.233z M121.788,18.45h1.023v-1.025h-1.024v1.023h-1.022v1.023h1.023V18.45z
					 M85.954,33.807h-1.023v1.021h-1.022v1.025h1.022V34.83h1.023V33.807z M103.365,36.876h-1.021v1.025h1.023v-1.025h1.022v-1.023
					h-1.024V36.876z M105.411,34.828h-1.021v1.025h1.023V34.83h1.023v-1.022h-1.025V34.828z M125.862,30.608
					c0.197-0.29,0.371-0.596,0.552-0.897h-0.552V30.608z M105.415,38.514h1.023v-0.63h-1.023V38.514z M127.906,24.592h0.579
					c0.079-0.338,0.146-0.68,0.206-1.025h-0.785V24.592z M126.885,28.897c0.036-0.069,0.065-0.141,0.102-0.21h-0.102V28.897z
					 M119.72,36.228c0.21-0.118,0.411-0.249,0.616-0.375h-0.616V36.228z M101.319,38.514h1.024v-0.612h-1.024V38.514z
					 M107.462,36.859h-1.023v1.025h1.023v-1.023h1.023v-1.022h-1.023V36.859z M123.835,16.401h-1.023v1.024h1.023V16.401z
					 M108.485,35.838h1.023v-1.026h-1.023V35.838z M117.695,22.545h1.023V21.52h-1.024v1.023h-1.021v1.024h1.022V22.545z
					 M84.935,38.514h1.023v-0.612h-1.023V38.514z M86.979,36.876h-1.021v1.025h1.023v-1.025h1.022v-1.023h-1.024V36.876z
					 M95.204,32.767h1.021v-1.026h-1.022v1.024H94.18v1.022h1.024V32.767z M97.251,30.718h1.021v-1.026h-1.023v1.026h-1.023v1.023
					h1.025V30.718z M99.296,28.67h1.023v-1.025h-1.024v1.023h-1.022v1.023h1.023V28.67z M101.343,26.622h-1.023v1.024h1.023V26.622z
					 M82.884,36.876h-1.021v1.025h1.023v-1.025h1.022v-1.023h-1.024V36.876z M80.838,38.514h1.024v-0.612h-1.024V38.514z
					 M91.074,32.781h-1.022v1.026h1.022V32.781z M90.052,33.807h-1.025v1.021h-1.022v1.025h1.024V34.83h1.023V33.807z
					 M89.062,38.514h1.023v-0.63h-1.023V38.514z M103.362,32.781h-1.022v1.026h1.022V32.781z M93.157,38.514h1.024v-0.63h-1.024
					V38.514z M102.34,33.807h-1.024v1.021h-1.023v1.025h1.024V34.83h1.023V33.807z M94.18,33.788h-1.024v1.024h1.024V33.788z
					 M99.269,36.876h-1.021v1.025h1.023v-1.025h1.021v-1.023h-1.023V36.876z M95.204,36.859h-1.022v1.025h1.023v-1.023h1.022v-1.022
					h-1.023V36.859z M92.132,35.838h1.023v-1.026h-1.023V35.838z M91.108,36.859h-1.023v1.025h1.023v-1.023h1.023v-1.022h-1.023
					V36.859z M97.252,34.812h-1.024v1.026h1.024V34.812z M97.224,38.514h1.023v-0.612h-1.023V38.514z M70.645,8.192h-1.023v1.023
					h1.024V8.194h1.022V7.168h-1.023V8.192z M115.675,16.38h-1.023v1.025h1.023v-1.023h1.023v-1.023h-1.023V16.38z M117.721,10.241
					h1.022V9.215h-1.022V10.241z M121.813,10.239h-1.022v1.026h1.022V10.239z M119.767,12.288h1.024v-1.023h-1.024v1.021h-1.023
					v1.025h1.023V12.288z M113.628,18.43h1.023v-1.024h-1.023V18.43z M117.72,14.334h-1.021v1.025h1.023v-1.025h1.021v-1.023h-1.023
					V14.334z M117.691,18.45h1.023v-1.025h-1.024v1.023h-1.021v1.023h1.022V18.45z M115.646,20.497h1.023v-1.025h-1.024
					L115.646,20.497h-1.023v1.023h1.023V20.497z M113.599,22.545h1.023V21.52h-1.023v1.023h-1.023v1.024h1.023V22.545z
					 M112.575,23.567h-1.023v1.025h1.023V23.567z M121.815,6.146h0.027c-0.01-0.007-0.02-0.015-0.029-0.022v0.022h-1.022v1.022
					h1.024V6.146z M115.639,4.116h1.021V3.395c-0.336-0.112-0.678-0.208-1.022-0.301v1.022h-1.022v1.023h1.024V4.116z
					 M113.589,6.162h-1.021v1.024h1.023V6.164h1.023V5.139h-1.025V6.162z M111.543,8.21h1.024V7.186h-1.024V8.21z M101.336,10.241
					h1.022V9.215h-1.022V10.241z M103.382,8.192h-1.023v1.023h1.024V8.194h1.022V7.168h-1.023V8.192z M118.743,9.215h1.025V8.194
					h1.022V7.168h-1.024v1.024h-1.023V9.215z M104.405,7.168h1.024V6.146h1.021V5.12h-1.022v1.026h-1.022V7.168z M119.738,16.401
					h-1.023v1.024h1.023V16.401z M115.641,8.21h1.022V7.186h-1.022V8.21z M117.688,6.164h1.021V5.139h-1.023v1.023h-1.023v1.024
					h1.025V6.164z M119.734,4.75c-0.333-0.187-0.679-0.353-1.024-0.518v0.907h1.024V4.75z M99.299,32.765h-1.022v1.022H99.3v-1.021
					h1.022v-1.026h-1.023V32.765z M105.438,26.622h-1.022v1.024h1.022V26.622z M66.548,8.208h-1.025v1.025h1.025V8.208z
					 M93.123,30.736h1.022V29.71h-1.023v1.023h-1.023v1.023h1.024V30.736z M103.393,28.67h1.023v-1.025h-1.024v1.023h-1.023v1.023
					h1.024V28.67z M92.099,31.757h-1.023v1.024h1.023V31.757z M99.263,24.592h-1.023v1.023h1.023V24.592z M95.17,28.687h1.021
					v-1.025h-1.023v1.025h-1.022v1.023h1.024V28.687z M100.287,23.567h-1.024v1.025h1.024V23.567z M97.216,26.641h1.023v-1.025
					h-1.025v1.023h-1.022v1.023h1.024V26.641z M107.487,24.574h-1.023v1.023h1.024v-1.021h1.022V23.55h-1.023V24.574z
					 M104.388,31.757h-1.023v1.024h1.023V31.757z M105.439,26.622h1.024v-1.025h-1.024V26.622z M111.581,20.48h1.021v-1.025h-1.023
					v1.023h-1.022v1.023h1.024V20.48z M113.628,18.432h-1.025v1.023h1.025V18.432z M109.533,22.526h-1.022v1.023h1.025v-1.023h1.021
					v-1.025h-1.023V22.526z M109.504,26.641h1.023v-1.025h-1.024v1.023h-1.022v1.023h1.023V26.641z M111.551,24.592h-1.023v1.023
					h1.023V24.592z M100.322,31.741h1.024v-1.023h1.021v-1.026h-1.023v1.026h-1.022V31.741z M105.411,30.736h1.022V29.71h-1.022
					v1.023h-1.023v1.023h1.023V30.736z M107.458,28.687h1.022v-1.025h-1.023L107.458,28.687h-1.024v1.023h1.024V28.687z
					 M97.253,34.812h1.023v-1.024h-1.023V34.812z M72.694,10.241h1.023V9.215h-1.023V10.241z M82.899,4.116h1.022V3.089h-1.024
					v1.026h-1.021v1.023h1.023V4.116z M84.945,2.455h-1.023v0.635h1.023V2.455z M75.765,7.168h1.023V6.146h1.022V5.12h-1.023v1.026
					h-1.022V7.168z M74.741,8.192h-1.023v1.023h1.023V8.194h1.023V7.168h-1.023V8.192z M89.042,2.455h-1.024v0.635h1.024V2.455z
					 M86.996,4.116h1.021V3.089h-1.024v1.026h-1.021v1.023h1.024V4.116z M83.927,7.186h1.022V6.164h1.022V5.139h-1.023v1.023h-1.021
					V7.186z M78.806,8.21h1.023V7.186h-1.023V8.21z M80.853,6.162h-1.023v1.024h1.023V6.164h1.023V5.139h-1.023V6.162z
					 M78.834,4.099h1.022V3.074h-1.023v1.023h-1.022V5.12h1.023V4.099z M67.574,7.186h1.023V6.164h1.022V5.139h-1.023v1.023h-1.022
					V7.186z M66.55,8.21h1.024V7.186H66.55V8.21z M72.689,2.455h-1.022v0.635h1.022V2.455z M70.644,4.116h1.023V3.089h-1.025v1.026
					H69.62v1.023h1.023V4.116z M80.881,2.455h-1.024v0.619h1.024V2.455z M76.785,2.455h-1.024v0.619h1.024V2.455z M103.357,20.497
					h1.022v-1.025h-1.024v1.025h-1.021v1.023h1.022V20.497z M74.738,4.099h1.022V3.074h-1.023v1.023h-1.023V5.12h1.024V4.099z
					 M68.599,10.241h1.022V9.215h-1.022V10.241z M71.668,7.168h1.024V6.146h1.021V5.12H72.69v1.026h-1.022V7.168z M89.079,10.241
					h1.023V9.215h-1.023V10.241z M105.427,2.455h-1.024v0.635h1.024V2.455z M107.476,4.099h1.022V3.074h-1.022v1.023h-1.025V5.12
					h1.025V4.099z M95.191,8.21h1.022V7.186h-1.022V8.21z M101.331,2.455h-1.025v0.635h1.025V2.455z M99.284,4.116h1.021V3.089
					h-1.023v1.026h-1.021v1.023h1.023V4.116z M97.237,6.162h-1.023v1.024h1.023V6.164h1.023V5.139h-1.023V6.162z M109.522,2.455
					h-1.024v0.619h1.024V2.455z M82.901,8.21h1.025V7.186h-1.025V8.21z M100.31,7.186h1.025V6.164h1.021V5.139h-1.022v1.023h-1.024
					V7.186z M103.381,4.116h1.021V3.089h-1.023v1.026h-1.022v1.023h1.024V4.116z M99.286,8.21h1.023V7.186h-1.023V8.21z
					 M88.053,7.168h1.024V6.146h1.021V5.12h-1.023v1.026h-1.022V7.168z M91.122,4.099h1.023V3.074h-1.024v1.023h-1.022V5.12h1.023
					V4.099z M91.126,8.192h-1.023v1.023h1.023V8.194h1.023V7.168h-1.023V8.192z M87.028,8.192h-1.021v1.023h1.023V8.194h1.022V7.168
					h-1.024V8.192z M93.169,2.455h-1.023v0.619h1.023V2.455z M92.149,7.168h1.023V6.146h1.021V5.12h-1.023v1.026h-1.021V7.168z
					 M84.982,10.241h1.024V9.215h-1.024V10.241z M95.219,4.099h1.023V3.074h-1.024v1.023h-1.023V5.12h1.024V4.099z M97.265,2.455
					h-1.022v0.619h1.022V2.455z"/>
			</g>
		</g>
		<linearGradient id="SVGID_1_" gradientUnits="userSpaceOnUse" x1="32.9375" y1="2.4546" x2="32.9375" y2="38.5146">
			<stop  offset="0" style="stop-color:#FFFFFF"/>
			<stop  offset="1" style="stop-color:#B3B3B3"/>
			<stop  offset="1" style="stop-color:#8C8C8C"/>
		</linearGradient>
		<path fill="url(#SVGID_1_)" stroke="#333333" stroke-width="1.9942" d="M0.997,20.484c0,9.958,8.072,18.03,18.029,18.03h45.852
			V2.455H19.026C9.069,2.455,0.997,10.527,0.997,20.484L0.997,20.484z"/>
		<g id="Shape_1_1_">
			<g>
				<path fill-rule="evenodd" clip-rule="evenodd" d="M35.979,14.488h-4v4h-4v4h4v4h4v-4h4v-4h-4V14.488z M89.973,18.487v4h11.998
					v-4H89.973z"/>
			</g>
		</g>
		<path fill="none" stroke="#333333" stroke-width="1.9942" d="M128.974,20.484c0,9.958-8.072,18.03-18.029,18.03H65.093V2.455
			h45.852C120.901,2.455,128.974,10.527,128.974,20.484L128.974,20.484z"/>
	</g>
</switch>
</svg>
