<?xml version="1.0" encoding="utf-8"?>
<!-- Generator: Adobe Illustrator 13.0.2, SVG Export Plug-In . SVG Version: 6.00 Build 14948)  -->
<!DOCTYPE svg PUBLIC "-//W3C//DTD SVG 1.1//EN" "http://www.w3.org/Graphics/SVG/1.1/DTD/svg11.dtd" [
	<!ENTITY ns_extend "http://ns.adobe.com/Extensibility/1.0/">
	<!ENTITY ns_ai "http://ns.adobe.com/AdobeIllustrator/10.0/">
	<!ENTITY ns_graphs "http://ns.adobe.com/Graphs/1.0/">
	<!ENTITY ns_vars "http://ns.adobe.com/Variables/1.0/">
	<!ENTITY ns_imrep "http://ns.adobe.com/ImageReplacement/1.0/">
	<!ENTITY ns_sfw "http://ns.adobe.com/SaveForWeb/1.0/">
	<!ENTITY ns_custom "http://ns.adobe.com/GenericCustomNamespace/1.0/">
	<!ENTITY ns_adobe_xpath "http://ns.adobe.com/XPath/1.0/">
]>
<svg version="1.1" id="Layer_1" xmlns:x="&ns_extend;" xmlns:i="&ns_ai;" xmlns:graph="&ns_graphs;"
	 xmlns="http://www.w3.org/2000/svg" xmlns:xlink="http://www.w3.org/1999/xlink" x="0px" y="0px" width="68.061px"
	 height="40.05px" viewBox="0 0 68.061 40.05" enable-background="new 0 0 68.061 40.05" xml:space="preserve">
<switch>
	<g i:extraneous="self">
		<g id="label_copy_3_1_">
					</g>
		<g>
			<path fill="#333333" d="M48.037,39.511H2.187H1.188v-0.997V2.455V1.457h0.998h45.851c10.49,0,19.027,8.537,19.027,19.027
				C67.064,30.975,58.527,39.511,48.037,39.511L48.037,39.511z"/>
			<path fill="#333333" d="M48.037,2.455c9.957,0,18.029,8.073,18.029,18.03c0,9.958-8.072,18.03-18.029,18.03H2.186V2.455H48.037
				 M48.037,0.46H2.186H0.191v1.994v36.06v1.994h1.994h45.852c11.041,0,20.023-8.983,20.023-20.024
				C68.061,9.443,59.078,0.46,48.037,0.46L48.037,0.46z"/>
		</g>
		<g>
			<path fill="#D93D3D" d="M66.066,20.484c0,9.958-8.206,18.03-18.327,18.03H1.129V2.455h46.61
				C57.86,2.455,66.066,10.527,66.066,20.484L66.066,20.484z"/>
		</g>
		<g>
			<g>
				<path d="M11.256,12.304h-1.022v1.026h1.024v-1.026h1.022v-1.023h-1.024V12.304z M14.326,9.233h1.024V8.208h-1.024V9.233z
					 M9.21,14.351H8.187v1.025h1.025v-1.023h1.021V13.33H9.21V14.351z M2.075,17.406H1.129v1.024h0.946V17.406z M13.303,10.256
					H12.28v1.025h1.023v-1.023h1.022V9.233h-1.023V10.256z M9.248,26.622H8.225v1.024h1.023V26.622z M15.353,12.304H14.33v1.026
					h1.024v-1.026h1.021v-1.023h-1.023V12.304z M18.422,9.233h1.024V8.208h-1.024V9.233z M17.399,10.256h-1.023v1.025h1.023v-1.023
					h1.022V9.233h-1.022V10.256z M7.164,16.399h1.022v-1.023H7.164V16.399z M9.238,10.239H8.215v1.026h1.023V10.239z M3.07,20.497
					h1.022v-1.025H3.068v1.025H2.048v1.023H3.07V20.497z M2.048,21.52H1.129v1.025h0.919V21.52z M5.116,18.45H6.14v-1.025H5.115
					v1.023H4.093v1.023h1.023V18.45z M2.049,25.615h-0.92v1.025h0.92V25.615z M3.071,24.592H2.049v1.023h1.022V24.592z
					 M3.099,16.382h1.023v-1.023H3.098v1.021H2.075v1.025h1.023V16.382z M5.146,14.334h1.022v-1.023H5.145L5.146,14.334H4.122v1.025
					h1.023V14.334z M7.191,12.288h1.023v-1.023H7.19v1.021H6.168v1.025h1.023V12.288z M7.163,16.401H6.14v1.024h1.023V16.401z
					 M11.26,16.399h1.024v-1.023H11.26V16.399z M13.308,14.351h-1.023v1.025h1.023v-1.023h1.022V13.33h-1.022V14.351z M6.144,21.52
					h1.023v-1.023h1.021v-1.025H7.165v1.025H6.144V21.52z M3.072,24.592h1.024v-1.025H3.072V24.592z M9.212,18.45h1.023v-1.025
					H9.212v1.023H8.188v1.023h1.023V18.45z M3.104,28.67h1.023v-1.025H3.104v1.023H2.08v1.023h1.024V28.67z M11.259,16.401h-1.023
					v1.024h1.023V16.401z M2.08,29.691H1.129v1.026H2.08V29.691z M19.479,12.286h-1.023v1.025h1.024v-1.023h1.022v-1.023h-1.023
					V12.286z M17.433,14.334h-1.021v1.025h1.023v-1.025h1.021v-1.023h-1.023V14.334z M20.503,11.265h1.024v-1.026h-1.024V11.265z
					 M5.151,26.622H4.128v1.024h1.023V26.622z M11.297,24.576h1.023V23.55h-1.024v1.024h-1.022v1.023h1.023V24.576z M15.39,20.48
					h1.022v-1.025H15.39v1.023h-1.023v1.023h1.023V20.48z M17.437,18.432h-1.024v1.023h1.024V18.432z M13.345,22.526h1.021v-1.025
					h-1.023v1.025H12.32v1.023h1.024V22.526z M6.177,25.597H5.153v1.025h1.023V25.597z M10.273,25.597H9.249v1.025h1.024V25.597z
					 M7.2,24.576h1.023V23.55H7.2v1.024H6.177v1.023H7.2V24.576z M11.292,20.48h1.024v-1.025h-1.024v1.023h-1.023v1.023h1.023V20.48
					z M13.341,18.432h-1.024v1.023h1.024V18.432z M5.119,22.543H4.097v1.024H5.12v-1.022h1.023V21.52H5.119V22.543z M9.247,22.526
					h1.021v-1.025H9.245v1.025H8.224v1.023h1.023V22.526z M15.36,24.592h-1.023v1.023h1.023V24.592z M29.666,26.641h1.022v-1.025
					h-1.023v1.023h-1.023v1.023h1.024V26.641z M22.53,25.597h-1.024v1.025h1.024V25.597z M31.713,24.592h-1.024v1.023h1.024V24.592z
					 M21.506,22.545h1.022V21.52h-1.023v1.023h-1.023v1.024h1.024V22.545z M27.62,28.687h1.021v-1.025h-1.023v1.025h-1.021v1.023
					h1.023V28.687z M20.481,23.567h-1.023v1.025h1.023V23.567z M29.692,18.432h-1.023v1.023h1.023V18.432z M23.553,24.576h1.024
					V23.55h-1.025v1.024H22.53v1.023h1.022V24.576z M25.573,30.734h-1.024v1.023h1.024v-1.021h1.023V29.71h-1.023V30.734z
					 M25.601,22.526h1.021v-1.025h-1.023v1.025h-1.021v1.023h1.023V22.526z M27.646,20.48h1.023v-1.025h-1.025v1.023h-1.021v1.023
					h1.023V20.48z M23.526,32.781h1.022v-1.024h-1.022V32.781z M33.763,26.641h1.023v-1.025h-1.025v1.023h-1.022v1.023h1.024V26.641
					z M31.717,28.687h1.021v-1.025h-1.023v1.025h-1.022v1.023h1.024V28.687z M35.81,24.592h-1.023v1.023h1.023V24.592z
					 M28.646,31.757h-1.023v1.024h1.023V31.757z M29.67,30.736h1.022V29.71h-1.023v1.023h-1.023v1.023h1.024V30.736z M43.997,16.401
					h-1.023v1.024h1.023V16.401z M39.904,20.497h1.022v-1.025h-1.024v1.025h-1.021v1.023h1.022V20.497z M36.834,23.567H35.81v1.025
					h1.024V23.567z M41.95,18.45h1.023v-1.025h-1.025v1.023h-1.021v1.023h1.023V18.45z M37.858,22.545h1.023V21.52h-1.025v1.023
					h-1.022v1.024h1.024V22.545z M7.174,32.781h1.022v-1.024H7.174V32.781z M13.313,26.641h1.023v-1.025h-1.023v1.023H12.29v1.023
					h1.023V26.641z M11.268,28.687h1.022v-1.025h-1.024v1.025h-1.022v1.023h1.024V28.687z M9.221,30.734H8.196v1.023h1.025v-1.021
					h1.021V29.71H9.221V30.734z M19.457,24.592h-1.024v1.023h1.024V24.592z M7.202,28.67h1.022v-1.025H7.2v1.023H6.177v1.023h1.025
					V28.67z M15.388,16.38h-1.023v1.025h1.023v-1.023h1.023v-1.023h-1.023V16.38z M3.108,32.767h1.022v-1.026H3.107v1.024H2.085
					v1.022h1.023V32.767z M5.156,30.718h1.021v-1.026H5.154v1.026H4.131v1.023h1.025V30.718z M2.085,33.788H1.129v1.024h0.956
					V33.788z M17.409,26.641h1.023v-1.025h-1.023v1.023h-1.023v1.023h1.023V26.641z M15.364,28.687h1.021v-1.025h-1.023v1.025H14.34
					v1.023h1.024V28.687z M23.548,16.401h-1.023v1.024h1.023V16.401z M21.501,18.45h1.023v-1.025h-1.023v1.023h-1.023v1.023h1.023
					V18.45z M20.478,19.471h-1.023v1.025h-1.021v1.023h1.023v-1.023h1.021V19.471z M27.644,16.401H26.62v1.024h1.023V16.401z
					 M25.599,18.45h1.021v-1.025h-1.023v1.023h-1.023v1.023h1.025V18.45z M12.294,31.757H11.27v1.024h1.024V31.757z M23.552,20.497
					h1.021v-1.025H23.55v1.025h-1.021v1.023h1.023V20.497z M13.317,30.736h1.022V29.71h-1.022v1.023h-1.023v1.023h1.023V30.736z
					 M17.407,22.543h-1.021v1.024h1.023v-1.022h1.023V21.52h-1.025V22.543z M15.362,24.592h1.023v-1.025h-1.023V24.592z
					 M60.362,32.781h0.789c0.079-0.083,0.156-0.166,0.233-0.25v-0.774h-1.022V32.781z M3.094,8.208H2.069v1.025h1.024V8.208z
					 M51.173,29.691h-1.023v1.026h-1.022v1.023h1.024v-1.023h1.021V29.691z M2.071,13.311H1.129v1.023h0.942V13.311z M3.095,12.288
					h1.023v-1.023H3.094v1.021H2.071v1.025h1.023V12.288z M5.143,10.239H4.118v1.026h1.024V10.239z M2.069,9.233h-0.94v1.024h0.94
					V9.233z M46.058,34.812h1.022v-1.024h-1.022V34.812z M48.104,32.765H47.08v1.022h1.024v-1.021h1.022v-1.026h-1.023V32.765z
					 M54.243,26.622H53.22v1.024h1.023V26.622z M52.196,28.67h1.023v-1.025h-1.023v1.023h-1.023v1.023h1.023V28.67z M46.077,18.43
					h1.025v-1.024h-1.025V18.43z M48.124,16.38h-1.021v1.025h1.023v-1.023h1.022v-1.023h-1.024V16.38z M51.177,33.788h-1.023v1.024
					h1.023V33.788z M50.171,14.334h-1.022v1.025h1.024v-1.025h1.021v-1.023h-1.023V14.334z M54.265,10.239h-1.023v1.026h1.023
					V10.239z M43.997,16.399h1.023v-1.023h-1.023V16.399z M51.194,13.311h1.023v-1.023h1.023v-1.023h-1.024v1.021h-1.022V13.311z
					 M48.09,12.304h-1.022v1.026h1.024v-1.026h1.021v-1.023H48.09V12.304z M46.044,14.351h-1.023v1.025h1.025v-1.023h1.021V13.33
					h-1.023V14.351z M50.136,10.256h-1.022v1.025h1.024v-1.023h1.023V9.233h-1.025V10.256z M51.161,9.233h1.023V8.208h-1.023V9.233z
					 M37.892,26.622h1.023v-1.025h-1.023V26.622z M59.338,33.807h0.755c0.089-0.079,0.181-0.155,0.268-0.236v-0.79h-1.022V33.807z
					 M5.141,2.455H4.116v0.635h1.024V2.455z M50.151,34.812h-1.022v1.026h1.022V34.812z M58.313,34.828h-1.022v1.025h0.024
					c0.34-0.204,0.674-0.413,0.998-0.638V34.83h0.53c0.163-0.122,0.335-0.232,0.494-0.359v-0.663h-1.024V34.828z M48.104,36.859
					h-1.022v1.025h1.023v-1.023h1.023v-1.022h-1.024V36.859z M46.058,38.514h1.024v-0.63h-1.024V38.514z M41.985,26.622h-1.022
					v1.024h1.022V26.622z M56.267,36.451c0.351-0.181,0.688-0.382,1.024-0.583v-0.015h-1.024V36.451z M63.432,29.71h0.063
					c0.202-0.335,0.395-0.675,0.575-1.023h-0.639V29.71z M62.409,30.734h-1.024v1.023h0.678c0.12-0.147,0.231-0.302,0.347-0.454
					v-0.567h0.435c0.209-0.298,0.396-0.612,0.588-0.924V29.71h-1.022V30.734z M3.094,4.116h1.022V3.089H3.092v1.026H2.07v1.023
					h1.023V4.116z M58.34,26.622h-1.023v1.024h1.023V26.622z M62.403,26.639h-1.022v1.023h1.024v-1.021h1.023v-1.025h-1.025V26.639z
					 M60.358,28.687h-1.022v1.023h1.024v-1.023h1.021v-1.025h-1.022V28.687z M56.293,28.67h1.023v-1.025h-1.024v1.023h-1.023v1.023
					h1.024V28.67z M54.247,30.718h1.021v-1.026h-1.023v1.026h-1.021v1.023h1.023V30.718z M2.07,5.139H1.129v1.025H2.07V5.139z
					 M56.266,32.781h1.023v-1.024h-1.023V32.781z M52.201,32.767h1.022v-1.026H52.2v1.024h-1.023v1.022h1.024V32.767z
					 M58.312,30.734h-1.022v1.023h1.024v-1.021h1.022V29.71h-1.024V30.734z M63.429,25.615h1.023v-1.023h-1.023V25.615z
					 M19.483,16.38H18.46v1.025h1.024v-1.023h1.022v-1.023h-1.023V16.38z M36.855,11.265h1.024v-1.026h-1.024V11.265z
					 M27.644,16.399h1.025v-1.023h-1.025V16.399z M33.782,10.256h-1.021v1.025h1.023v-1.023h1.023V9.233h-1.025V10.256z
					 M31.737,12.304h-1.022v1.026h1.024v-1.026h1.021v-1.023h-1.023V12.304z M35.831,12.286H34.81v1.025h1.023v-1.023h1.022v-1.023
					h-1.024V12.286z M31.743,20.48h1.021v-1.025h-1.022v1.023h-1.024v1.023h1.025V20.48z M33.784,14.334h-1.021v1.025h1.023v-1.025
					h1.022v-1.023h-1.025V14.334z M34.808,9.233h1.023V8.208h-1.023V9.233z M29.692,18.43h1.024v-1.024h-1.024V18.43z M31.74,16.38
					h-1.023v1.025h1.024v-1.023h1.022v-1.023H31.74V16.38z M27.64,12.304h-1.021v1.026h1.022v-1.026h1.023v-1.023H27.64V12.304z
					 M17.437,18.43h1.023v-1.024h-1.023V18.43z M21.529,14.334h-1.022v1.025h1.024v-1.025h1.021v-1.023h-1.022V14.334z
					 M13.341,18.43h1.023v-1.024h-1.023V18.43z M24.599,11.265h1.025v-1.026h-1.025V11.265z M23.575,12.286h-1.023v1.025h1.025
					v-1.023h1.021v-1.023h-1.023V12.286z M30.71,9.233h1.024V8.208H30.71V9.233z M23.548,16.399h1.023v-1.023h-1.023V16.399z
					 M33.789,18.432h-1.024v1.023h1.024V18.432z M25.595,14.351h-1.023v1.025h1.025v-1.023h1.022V13.33h-1.024V14.351z
					 M29.687,10.256h-1.021v1.025h1.022v-1.023h1.022V9.233h-1.023V10.256z M33.761,22.545h1.023V21.52h-1.023v1.023h-1.022v1.024
					h1.022V22.545z M41.948,14.351h-1.023v1.025h1.023v-1.023h1.023V13.33h-1.023V14.351z M43.993,12.304h-1.021v1.026h1.023v-1.026
					h1.021v-1.023h-1.023V12.304z M46.04,10.256h-1.023v1.025h1.025v-1.023h1.021V9.233H46.04V10.256z M35.836,16.38h-1.022v1.025
					h1.023v-1.023h1.022v-1.023h-1.023V16.38z M47.063,9.233h1.024V8.208h-1.024V9.233z M33.789,18.43h1.024v-1.024h-1.024V18.43z
					 M44.03,20.478h-1.023v1.023h1.023V20.48h1.023v-1.025H44.03V20.478z M39.901,16.399h1.023v-1.023h-1.023V16.399z
					 M41.982,22.526h-1.021v1.023h1.022v-1.023h1.022v-1.025h-1.024V22.526z M45.054,19.455h1.023v-1.023h-1.023V19.455z
					 M32.738,23.567h-1.024v1.025h1.024V23.567z M29.694,22.526h-1.021v1.023h1.023v-1.023h1.021v-1.025h-1.023V22.526z
					 M35.808,20.497h1.022v-1.025h-1.024v1.025h-1.021v1.023h1.023V20.497z M39.937,24.574h-1.021v1.023h1.023v-1.021h1.023V23.55
					h-1.025V24.574z M25.603,26.622h1.023v-1.025h-1.023V26.622z M27.647,24.574h-1.021v1.023h1.023v-1.021h1.023V23.55h-1.025
					V24.574z M39.9,16.401h-1.023v1.024H39.9V16.401z M40.952,11.265h1.023v-1.026h-1.023V11.265z M37.854,18.45h1.023v-1.025
					h-1.024v1.023H36.83v1.023h1.023V18.45z M39.928,12.286h-1.022v1.025h1.023v-1.023h1.023v-1.023h-1.024V12.286z M37.882,14.334
					h-1.022v1.025h1.024v-1.025h1.021v-1.023h-1.023V14.334z M29.69,14.351h-1.021v1.025h1.022v-1.023h1.023V13.33H29.69V14.351z
					 M19.458,28.67h1.023v-1.025h-1.024v1.023h-1.022v1.023h1.023V28.67z M22.501,33.807h-1.023v1.021h-1.022v1.025h1.022V34.83
					h1.023V33.807z M17.411,30.718h1.023v-1.026h-1.025v1.026h-1.021v1.023h1.023V30.718z M14.341,33.788h-1.023v1.024h1.023V33.788
					z M12.294,35.838h1.023v-1.026h-1.023V35.838z M5.13,38.514h1.023v-0.612H5.13V38.514z M11.269,32.781h-1.023v1.026h1.023
					V32.781z M9.223,34.83h1.022v-1.022H9.222v1.021H8.199v1.025h1.023V34.83z M1.129,38.514h0.928v-0.612H1.129V38.514z
					 M21.505,26.622h-1.023v1.024h1.023V26.622z M7.175,36.876H6.153v1.025h1.023v-1.025h1.022v-1.023H7.175V36.876z M11.269,36.859
					h-1.021v1.025h1.022v-1.023h1.024v-1.022h-1.025V36.859z M15.366,36.859h-1.023v1.025h1.023v-1.023h1.023v-1.022h-1.023V36.859z
					 M17.413,34.812H16.39v1.026h1.023V34.812z M23.524,32.781h-1.023v1.026h1.023V32.781z M18.438,33.788h-1.025v1.024h1.025
					V33.788z M13.319,38.514h1.023v-0.63h-1.023V38.514z M25.601,26.622h-1.023v1.024h1.023V26.622z M9.223,38.514h1.024v-0.63
					H9.223V38.514z M19.462,32.767h1.021v-1.026h-1.022v1.024h-1.022v1.022h1.023V32.767z M23.554,28.67h1.023v-1.025h-1.024v1.023
					H22.53v1.023h1.023V28.67z M21.509,30.718h1.021v-1.026h-1.023v1.026h-1.023v1.023h1.025V30.718z M15.366,32.767h1.021v-1.026
					h-1.023v1.024h-1.023v1.022h1.025V32.767z M11.288,8.192h-1.023v1.023h1.023V8.194h1.023V7.168h-1.023V8.192z M3.078,36.876
					H2.057v1.025H3.08v-1.025h1.022v-1.023H3.078V36.876z M12.312,7.168h1.023V6.146h1.022V5.12h-1.023v1.026h-1.022V7.168z
					 M17.428,2.455h-1.024v0.619h1.024V2.455z M5.146,10.241h1.022V9.215H5.146V10.241z M15.381,4.099h1.022V3.074H15.38v1.023
					h-1.022V5.12h1.023V4.099z M15.353,8.21h1.023V7.186h-1.023V8.21z M17.399,6.162h-1.023v1.024h1.023V6.164h1.023V5.139h-1.023
					V6.162z M19.446,4.116h1.022V3.089h-1.024v1.026h-1.021v1.023h1.023V4.116z M21.492,2.455h-1.023v0.635h1.023V2.455z
					 M9.241,10.241h1.023V9.215H9.241V10.241z M7.19,4.116h1.023V3.089H7.188v1.026H6.167v1.023H7.19V4.116z M25.589,2.455h-1.024
					v0.635h1.024V2.455z M4.121,7.186h1.023V6.164h1.022V5.139H5.144v1.023H4.121V7.186z M6.149,33.807H5.125v1.021H4.103v1.025
					h1.023V34.83h1.023V33.807z M7.173,32.781H6.149v1.026h1.023V32.781z M3.096,8.21h1.025V7.186H3.096V8.21z M11.285,4.099h1.022
					V3.074h-1.023v1.023h-1.023V5.12h1.024V4.099z M8.215,7.168h1.024V6.146h1.021V5.12H9.237v1.026H8.215V7.168z M7.191,8.192
					H6.168v1.023h1.024V8.194h1.022V7.168H7.191V8.192z M13.332,2.455h-1.024v0.619h1.024V2.455z M9.236,2.455H8.214v0.635h1.022
					V2.455z M48.102,28.687h1.021v-1.025h-1.023v1.025h-1.021v1.023h1.024V28.687z M47.077,29.71h-1.023v1.023H45.03v1.023h1.025
					v-1.021h1.021V29.71z M50.147,26.641h1.023v-1.025h-1.025v1.023h-1.023v1.023h1.025V26.641z M42.983,33.807h1.023v-1.026h-1.023
					V33.807z M44.007,32.781h1.023v-1.024h-1.023V32.781z M54.242,22.545h1.023V21.52h-1.024v1.023H53.22v1.024h1.022V22.545z
					 M52.194,24.592h-1.023v1.023h1.023V24.592z M41.958,34.828h-1.021v1.025h1.023V34.83h1.023v-1.022h-1.025V34.828z
					 M56.289,20.497h1.022v-1.025h-1.024v1.025h-1.021v1.023h1.023V20.497z M53.22,23.567h-1.025v1.025h1.025V23.567z M58.335,18.45
					h1.023v-1.025h-1.024v1.023h-1.022v1.023h1.023V18.45z M52.17,36.876h-1.021v1.025h1.022v-1.025h1.022v-1.023H52.17V36.876z
					 M54.217,34.828h-1.022v1.025h1.023V34.83h1.023v-1.022h-1.024V34.828z M39.912,36.876h-1.021v1.025h1.023v-1.025h1.022v-1.023
					h-1.024V36.876z M55.241,33.807h1.023v-1.026h-1.023V33.807z M50.124,38.341c0.344-0.044,0.688-0.089,1.025-0.151v-0.288h-1.025
					V38.341z M55.245,36.928c0.037-0.017,0.073-0.035,0.11-0.052h-0.11V36.928z M19.431,36.876h-1.021v1.025h1.023v-1.025h1.022
					v-1.023h-1.024V36.876z M45.032,35.838h1.023v-1.026h-1.023V35.838z M44.009,36.859h-1.023v1.025h1.023v-1.023h1.023v-1.022
					h-1.023V36.859z M41.962,38.514h1.023v-0.63h-1.023V38.514z M37.866,38.514h1.024v-0.612h-1.024V38.514z M35.843,28.67h1.023
					v-1.025h-1.024v1.023h-1.022v1.023h1.023V28.67z M37.89,26.622h-1.023v1.024h1.023V26.622z M30.727,33.788h-1.024v1.024h1.024
					V33.788z M31.751,32.767h1.021v-1.026H31.75v1.024h-1.023v1.022h1.024V32.767z M33.798,30.718h1.021v-1.026h-1.023v1.026h-1.023
					v1.023h1.025V30.718z M21.481,38.514h1.023v-0.612h-1.023V38.514z M17.385,38.514h1.024v-0.612h-1.024V38.514z M27.621,32.781
					h-1.022v1.026h1.022V32.781z M26.599,33.807h-1.025v1.021h-1.022v1.025h1.024V34.83h1.023V33.807z M23.526,36.876h-1.021v1.025
					h1.023v-1.025h1.022v-1.023h-1.024V36.876z M38.887,33.807h-1.024v1.021h-1.023v1.025h1.024V34.83h1.023V33.807z M39.939,28.67
					h1.023v-1.025h-1.024v1.023h-1.023v1.023h1.024V28.67z M29.704,38.514h1.024v-0.63h-1.024V38.514z M39.909,32.781h-1.022v1.026
					h1.022V32.781z M33.771,38.514h1.023v-0.612h-1.023V38.514z M35.815,36.876h-1.021v1.025h1.023v-1.025h1.021v-1.023h-1.023
					V36.876z M31.751,36.859h-1.022v1.025h1.023v-1.023h1.022v-1.022h-1.023V36.859z M25.608,38.514h1.023v-0.63h-1.023V38.514z
					 M28.679,35.838h1.023v-1.026h-1.023V35.838z M27.655,36.859h-1.023v1.025h1.023v-1.023h1.023v-1.022h-1.023V36.859z
					 M33.799,34.812h-1.024v1.026h1.024V34.812z M60.382,16.401h-1.023v1.024h1.023V16.401z M60.411,8.194h0.738
					c-0.24-0.253-0.483-0.504-0.738-0.744v0.742h-1.023v1.023h1.023V8.194z M56.286,16.399h1.023v-1.023h-1.023V16.399z
					 M58.364,10.241h1.023V9.215h-1.023V10.241z M65.478,23.567h0.308c0.058-0.339,0.118-0.678,0.158-1.024h-0.466V23.567z
					 M62.433,18.43h1.023v-1.024h-1.023V18.43z M64.453,24.592h1.024v-1.025h-1.024V24.592z M56.313,12.288h1.024v-1.023h-1.024
					v1.021H55.29v1.025h1.023V12.288z M62.427,10.258h0.428c-0.135-0.193-0.287-0.374-0.43-0.562v0.56h-1.022v1.025h1.024V10.258z
					 M60.379,12.304h-1.022v1.026h1.024v-1.026h1.021v-1.023h-1.023V12.304z M58.333,14.351H57.31v1.025h1.024v-1.023h1.022V13.33
					h-1.023V14.351z M58.341,26.622h1.024v-1.025h-1.024V26.622z M64.478,13.124c-0.126-0.278-0.263-0.55-0.402-0.82h-0.623v1.026
					h1.025V13.124z M54.244,26.622h1.024v-1.025h-1.024V26.622z M60.382,16.399h1.023v-1.023h-1.023V16.399z M23.543,4.116h1.021
					V3.089H23.54v1.026h-1.021v1.023h1.024V4.116z M62.433,18.432h-1.025v1.023h1.025V18.432z M63.456,17.406h1.023v-1.023h1.023
					v-0.291c-0.062-0.245-0.119-0.492-0.191-0.732h-0.832v1.021h-1.023V17.406z M64.481,20.478h-1.024v1.023h1.024V20.48h1.023
					v-1.025h-1.023V20.478z M65.941,18.432h-0.437v1.023h0.509C65.994,19.112,65.979,18.769,65.941,18.432z M58.36,10.239h-1.022
					v1.026h1.022V10.239z M60.388,24.574h-1.022v1.023h1.022v-1.021h1.023V23.55h-1.023V24.574z M62.429,14.351h-1.023v1.025h1.025
					v-1.023h1.021V13.33h-1.023V14.351z M41.958,30.736h1.022V29.71h-1.022v1.023h-1.023v1.023h1.023V30.736z M44.005,28.687h1.022
					v-1.025h-1.023L44.005,28.687H42.98v1.023h1.024V28.687z M41.986,26.622h1.024v-1.025h-1.024V26.622z M40.935,31.757h-1.023
					v1.024h1.023V31.757z M46.051,26.641h1.023v-1.025H46.05v1.023h-1.022v1.023h1.023V26.641z M36.869,31.741h1.024v-1.023h1.021
					v-1.026h-1.023v1.026h-1.022V31.741z M35.846,32.765h-1.022v1.022h1.023v-1.021h1.022v-1.026h-1.023V32.765z M33.8,34.812h1.023
					v-1.024H33.8V34.812z M48.098,24.592h-1.023v1.023h1.023V24.592z M44.034,24.574h-1.023v1.023h1.024v-1.021h1.022V23.55h-1.023
					V24.574z M50.175,18.43h1.023v-1.024h-1.023V18.43z M49.122,23.567h-1.023v1.025h1.023V23.567z M50.146,22.545h1.023V21.52
					h-1.023v1.023h-1.023v1.024h1.023V22.545z M52.192,20.497h1.023v-1.025h-1.024L52.192,20.497h-1.023v1.023h1.023V20.497z
					 M54.267,14.334h-1.021v1.025h1.023v-1.025h1.021v-1.023h-1.023V14.334z M46.08,22.526h-1.022v1.023h1.025v-1.023h1.021v-1.025
					H46.08V22.526z M52.222,16.38h-1.023v1.025h1.023v-1.023h1.023v-1.023h-1.023V16.38z M48.128,20.48h1.021v-1.025h-1.023v1.023
					h-1.022v1.023h1.024V20.48z M50.175,18.432h-1.025v1.023h1.025V18.432z M56.285,16.401h-1.023v1.024h1.023V16.401z
					 M54.238,18.45h1.023v-1.025h-1.024v1.023h-1.021v1.023h1.022V18.45z M62.435,22.526h-1.023v1.023h1.025v-1.023h1.021v-1.025
					h-1.022V22.526z M33.784,6.162h-1.023v1.024h1.023V6.164h1.023V5.139h-1.023V6.162z M27.673,8.192h-1.023v1.023h1.023V8.194
					h1.023V7.168h-1.023V8.192z M46.069,2.455h-1.024v0.619h1.024V2.455z M31.738,8.21h1.022V7.186h-1.022V8.21z M37.878,2.455
					h-1.025v0.635h1.025V2.455z M35.831,4.116h1.021V3.089h-1.023v1.026h-1.021v1.023h1.023V4.116z M35.833,8.21h1.023V7.186h-1.023
					V8.21z M56.291,24.574h-1.022v1.023h1.023v-1.021h1.023V23.55h-1.024V24.574z M36.856,7.186h1.025V6.164h1.021V5.139h-1.022
					v1.023h-1.024V7.186z M39.928,4.116h1.021V3.089h-1.023v1.026h-1.022v1.023h1.024V4.116z M25.626,10.241h1.023V9.215h-1.023
					V10.241z M24.6,7.168h1.024V6.146h1.021V5.12h-1.023v1.026H24.6V7.168z M29.716,2.455h-1.023v0.619h1.023V2.455z M27.669,4.099
					h1.023V3.074h-1.024v1.023h-1.022V5.12h1.023V4.099z M20.474,7.186h1.022V6.164h1.022V5.139h-1.023v1.023h-1.021V7.186z
					 M28.696,7.168h1.023V6.146h1.021V5.12h-1.023v1.026h-1.021V7.168z M19.448,8.21h1.025V7.186h-1.025V8.21z M31.766,4.099h1.023
					V3.074h-1.024v1.023h-1.023V5.12h1.024V4.099z M33.812,2.455h-1.022v0.619h1.022V2.455z M21.529,10.241h1.024V9.215h-1.024
					V10.241z M23.575,8.192h-1.021v1.023h1.023V8.194H24.6V7.168h-1.024V8.192z M41.974,2.455h-1.024v0.635h1.024V2.455z
					 M44.022,4.099h1.022V3.074h-1.022v1.023h-1.025V5.12h1.025V4.099z M58.362,6.146h0.483c-0.16-0.12-0.321-0.238-0.485-0.353
					v0.353h-1.022v1.022h1.024V6.146z M56.281,4.528c-0.287-0.148-0.586-0.279-0.882-0.413h-0.143v1.023h1.024V4.528z M55.29,9.215
					h1.025V8.194h1.022V7.168h-1.024v1.024H55.29V9.215z M54.235,6.164h1.021V5.139h-1.023v1.023H53.21v1.024h1.025V6.164z
					 M52.188,8.21h1.022V7.186h-1.022V8.21z M54.268,10.241h1.022V9.215h-1.022V10.241z M60.384,20.48h1.023v-1.025h-1.023v1.023
					h-1.022v1.023h1.022V20.48z M59.361,21.501h-1.024v1.025h-1.021v1.023h1.023v-1.023h1.022V21.501z M64.454,27.905
					c0.038-0.083,0.083-0.161,0.12-0.244h-0.12V27.905z M48.09,8.21h1.024V7.186H48.09V8.21z M37.883,10.241h1.022V9.215h-1.022
					V10.241z M50.165,2.633c-0.339-0.044-0.68-0.083-1.024-0.108v0.549h1.024V2.633z M39.929,8.192h-1.023v1.023h1.024V8.194h1.022
					V7.168h-1.023V8.192z M50.136,6.162h-1.021v1.024h1.023V6.164h1.023V5.139h-1.025V6.162z M40.952,7.168h1.024V6.146h1.021V5.12
					h-1.022v1.026h-1.022V7.168z M48.118,4.099h1.022V3.074h-1.022v1.023h-1.023V5.12h1.023V4.099z M45.049,7.168h1.024V6.146h1.021
					V5.12h-1.023v1.026h-1.022V7.168z M52.186,4.116h1.021V3.273c-0.233-0.071-0.476-0.121-0.713-0.184h-0.31v1.026h-1.022v1.023
					h1.024V4.116z M41.979,10.241h1.022V9.215h-1.022V10.241z M44.026,8.192h-1.025v1.023h1.025V8.194h1.022V7.168h-1.022V8.192z"/>
			</g>
		</g>
		<g id="Shape_1">
			<g>
				<polygon fill-rule="evenodd" clip-rule="evenodd" points="38.036,18.488 34.036,18.488 34.036,14.488 30.037,14.488 
					30.037,18.488 26.038,18.488 26.038,22.487 30.037,22.487 30.037,26.486 34.036,26.486 34.036,22.487 38.036,22.487 				"/>
			</g>
		</g>
	</g>
</switch>
</svg>
