<?xml version="1.0" encoding="utf-8"?>
<!-- Generator: Adobe Illustrator 13.0.2, SVG Export Plug-In . SVG Version: 6.00 Build 14948)  -->
<!DOCTYPE svg PUBLIC "-//W3C//DTD SVG 1.1//EN" "http://www.w3.org/Graphics/SVG/1.1/DTD/svg11.dtd" [
	<!ENTITY ns_extend "http://ns.adobe.com/Extensibility/1.0/">
	<!ENTITY ns_ai "http://ns.adobe.com/AdobeIllustrator/10.0/">
	<!ENTITY ns_graphs "http://ns.adobe.com/Graphs/1.0/">
	<!ENTITY ns_vars "http://ns.adobe.com/Variables/1.0/">
	<!ENTITY ns_imrep "http://ns.adobe.com/ImageReplacement/1.0/">
	<!ENTITY ns_sfw "http://ns.adobe.com/SaveForWeb/1.0/">
	<!ENTITY ns_custom "http://ns.adobe.com/GenericCustomNamespace/1.0/">
	<!ENTITY ns_adobe_xpath "http://ns.adobe.com/XPath/1.0/">
]>
<svg version="1.1" id="Layer_1" xmlns:x="&ns_extend;" xmlns:i="&ns_ai;" xmlns:graph="&ns_graphs;"
	 xmlns="http://www.w3.org/2000/svg" xmlns:xlink="http://www.w3.org/1999/xlink" x="0px" y="0px" width="14.011px"
	 height="14.01px" viewBox="0 0 14.011 14.01" enable-background="new 0 0 14.011 14.01" xml:space="preserve">
<switch>
	<g i:extraneous="self">
		<g>
			<g>
				<path fill-rule="evenodd" clip-rule="evenodd" fill="#FFDC7F" d="M7.005,14.01C3.143,14.01,0,10.867,0,7.005
					C0,3.144,3.143,0,7.005,0c3.863,0,7.007,3.144,7.007,7.005C14.012,10.867,10.868,14.01,7.005,14.01L7.005,14.01z"/>
			</g>
			<g>
				<path d="M7.005,1c3.316,0,6.006,2.688,6.006,6.005s-2.689,6.005-6.006,6.005S1,10.321,1,7.005S3.688,1,7.005,1 M7.005-1
					C2.591-1-1,2.591-1,7.005s3.591,8.005,8.005,8.005s8.006-3.591,8.006-8.005S11.419-1,7.005-1L7.005-1z"/>
			</g>
		</g>
	</g>
</switch>
</svg>
