<?xml version="1.0" encoding="utf-8"?>
<!-- Generator: Adobe Illustrator 13.0.2, SVG Export Plug-In . SVG Version: 6.00 Build 14948)  -->
<!DOCTYPE svg PUBLIC "-//W3C//DTD SVG 1.1//EN" "http://www.w3.org/Graphics/SVG/1.1/DTD/svg11.dtd" [
	<!ENTITY ns_extend "http://ns.adobe.com/Extensibility/1.0/">
	<!ENTITY ns_ai "http://ns.adobe.com/AdobeIllustrator/10.0/">
	<!ENTITY ns_graphs "http://ns.adobe.com/Graphs/1.0/">
	<!ENTITY ns_vars "http://ns.adobe.com/Variables/1.0/">
	<!ENTITY ns_imrep "http://ns.adobe.com/ImageReplacement/1.0/">
	<!ENTITY ns_sfw "http://ns.adobe.com/SaveForWeb/1.0/">
	<!ENTITY ns_custom "http://ns.adobe.com/GenericCustomNamespace/1.0/">
	<!ENTITY ns_adobe_xpath "http://ns.adobe.com/XPath/1.0/">
]>
<svg version="1.1" id="Layer_1" xmlns:x="&ns_extend;" xmlns:i="&ns_ai;" xmlns:graph="&ns_graphs;"
	 xmlns="http://www.w3.org/2000/svg" xmlns:xlink="http://www.w3.org/1999/xlink" x="0px" y="0px" width="245.969px"
	 height="37.994px" viewBox="0 0 245.969 37.994" enable-background="new 0 0 245.969 37.994" xml:space="preserve">
<switch>
	<g i:extraneous="self">
		<g id="frame_copy_4">
			<g>
				<path fill-rule="evenodd" clip-rule="evenodd" fill="#E6E6E6" d="M241.971,0H4C1.791,0,0,1.791,0,4v29.996
					c0,2.209,1.791,3.999,4,3.999h237.971c2.207,0,3.998-1.79,3.998-3.999V4C245.969,1.791,244.178,0,241.971,0z"/>
			</g>
		</g>
		<g>
			<polygon fill-rule="evenodd" clip-rule="evenodd" points="237.471,28.997 8.5,28.997 8.5,8.998 237.471,8.998 237.471,28.995 
				237.471,28.997 			"/>
			<path fill="#FFFFFF" d="M237.471,6.999c1.104,0,2,0.895,2,1.999v19.999c0,1.104-0.896,2-2,2H8.499c-1.104,0-2-0.896-2-2V8.998
				c0-1.104,0.896-1.999,2-1.999H237.471 M235.471,10.999H10.499v15.998h224.972V10.999L235.471,10.999z"/>
		</g>
	</g>
</switch>
</svg>
