<?xml version="1.0" encoding="utf-8"?>
<!-- Generator: Adobe Illustrator 13.0.2, SVG Export Plug-In . SVG Version: 6.00 Build 14948)  -->
<!DOCTYPE svg PUBLIC "-//W3C//DTD SVG 1.1//EN" "http://www.w3.org/Graphics/SVG/1.1/DTD/svg11.dtd" [
	<!ENTITY ns_extend "http://ns.adobe.com/Extensibility/1.0/">
	<!ENTITY ns_ai "http://ns.adobe.com/AdobeIllustrator/10.0/">
	<!ENTITY ns_graphs "http://ns.adobe.com/Graphs/1.0/">
	<!ENTITY ns_vars "http://ns.adobe.com/Variables/1.0/">
	<!ENTITY ns_imrep "http://ns.adobe.com/ImageReplacement/1.0/">
	<!ENTITY ns_sfw "http://ns.adobe.com/SaveForWeb/1.0/">
	<!ENTITY ns_custom "http://ns.adobe.com/GenericCustomNamespace/1.0/">
	<!ENTITY ns_adobe_xpath "http://ns.adobe.com/XPath/1.0/">
]>
<svg version="1.1" id="Layer_1" xmlns:x="&ns_extend;" xmlns:i="&ns_ai;" xmlns:graph="&ns_graphs;"
	 xmlns="http://www.w3.org/2000/svg" xmlns:xlink="http://www.w3.org/1999/xlink" x="0px" y="0px" width="93.988px"
	 height="71.991px" viewBox="0 0 93.988 71.991" enable-background="new 0 0 93.988 71.991" xml:space="preserve">
<switch>
	<g i:extraneous="self">
		<g id="frame_copy_10">
			<g>
				<path fill-rule="evenodd" clip-rule="evenodd" fill="#E6E6E6" d="M89.988,0H4C1.791,0,0,1.791,0,4v63.992
					c0,2.209,1.791,3.999,4,3.999h85.989c2.209,0,4-1.79,4-3.999V4C93.988,1.791,92.197,0,89.988,0z"/>
			</g>
		</g>
		<g>
			<g>
				<linearGradient id="SVGID_1_" gradientUnits="userSpaceOnUse" x1="46.9951" y1="6.999" x2="46.9951" y2="64.9922">
					<stop  offset="0" style="stop-color:#7F7F7F"/>
					<stop  offset="1" style="stop-color:#000000"/>
				</linearGradient>
				<path fill-rule="evenodd" clip-rule="evenodd" fill="url(#SVGID_1_)" d="M84.988,64.992H8.999c-1.103,0-2-0.896-2-2V8.999
					c0-1.103,0.896-2,2-2h75.989c1.104,0,2.002,0.896,2.002,2v53.993C86.99,64.095,86.092,64.992,84.988,64.992L84.988,64.992z"/>
			</g>
			<g>
				<path fill="#1A1A1A" d="M84.989,5.999c1.657,0,3,1.343,3,3v53.994c0,1.656-1.343,3-3,3H8.999c-1.656,0-3-1.344-3-3V8.998
					c0-1.656,1.344-3,3-3H84.989 M84.989,7.999H8.999c-0.551,0-1,0.448-1,1v53.994c0,0.552,0.449,1,1,1h75.99c0.552,0,1-0.448,1-1
					V8.998C85.989,8.447,85.541,7.999,84.989,7.999L84.989,7.999z"/>
			</g>
		</g>
	</g>
</switch>
</svg>
